<?xml version="1.0" encoding="utf-8"?>
<!-- Generator: Adobe Illustrator 22.1.0, SVG Export Plug-In . SVG Version: 6.00 Build 0)  -->
<svg version="1.1" id="Logo_AKENEO_-_Couleur_-_Fond_Noir"
	 xmlns="http://www.w3.org/2000/svg" xmlns:xlink="http://www.w3.org/1999/xlink" x="0px" y="0px" width="2159.7px"
	 height="178.8px" viewBox="0 0 2159.7 178.8" style="enable-background:new 0 0 2159.7 178.8;" xml:space="preserve">
<style type="text/css">
	.st0{fill:url(#SVGID_1_);}
	.st1{opacity:0.8;}
	.st2{opacity:0.51;fill:url(#SVGID_2_);}
	.st3{opacity:0.51;fill:url(#SVGID_3_);}
	.st4{opacity:0.7;}
	.st5{fill:url(#SVGID_4_);}
	.st6{fill:url(#SVGID_5_);}
</style>
<g>
	<g>
		<g>
			<path d="M245,85.9c0-6.9-1.8-11.8-5.3-14.5c-3.5-2.7-8.6-4.1-15.3-4.1c-4.1,0-8,0.3-11.6,1c-3.6,0.6-7.1,1.5-10.5,2.6
				c-2.2-3.9-3.4-8.5-3.4-13.9c4-1.3,8.4-2.3,13.2-3c4.8-0.7,9.5-1.1,13.9-1.1c11.8,0,20.7,2.7,26.8,8c6.1,5.4,9.2,13.9,9.2,25.7
				v56.6c-4.1,0.9-9.1,1.9-15,2.9c-5.9,1-11.9,1.5-18,1.5c-5.8,0-11-0.5-15.6-1.6c-4.6-1.1-8.6-2.8-11.8-5.1c-3.2-2.4-5.7-5.4-7.5-9
				c-1.8-3.6-2.6-8.1-2.6-13.2c0-5.1,1-9.5,3.1-13.3c2.1-3.8,4.9-7,8.4-9.5c3.5-2.5,7.6-4.4,12.2-5.6c4.6-1.2,9.4-1.9,14.5-1.9
				c3.8,0,6.9,0.1,9.3,0.3c2.4,0.2,4.4,0.4,6.1,0.6V85.9z M245,103c-1.8-0.2-4-0.5-6.7-0.7c-2.7-0.2-5-0.4-6.9-0.4
				c-7.3,0-12.9,1.4-16.7,4.1c-3.8,2.7-5.7,6.8-5.7,12.3c0,3.5,0.6,6.3,1.9,8.3c1.3,2,2.9,3.5,4.9,4.6c1.9,1.1,4.1,1.7,6.4,1.9
				c2.4,0.2,4.6,0.4,6.7,0.4c2.7,0,5.5-0.1,8.4-0.4c2.9-0.3,5.4-0.7,7.7-1.3V103z"/>
			<path d="M287.7,16.2c1.3-0.2,2.7-0.4,4.3-0.5c1.6-0.1,3-0.2,4.3-0.2c1.3,0,2.8,0.1,4.4,0.2c1.6,0.1,3.1,0.3,4.4,0.5v129.3
				c-1.3,0.2-2.8,0.4-4.4,0.5c-1.6,0.1-3.1,0.2-4.4,0.2c-1.3,0-2.7-0.1-4.3-0.2c-1.6-0.1-3-0.3-4.3-0.5V16.2z M305.5,98.6L338.7,55
				c1.5-0.2,3.1-0.4,4.6-0.5c1.5-0.1,3.1-0.2,4.8-0.2c1.8,0,3.4,0.1,5,0.2c1.6,0.1,3.2,0.3,4.9,0.5l-33.2,42.3l38.1,48.2
				c-1.6,0.2-3.2,0.4-4.8,0.5c-1.5,0.1-3.1,0.2-4.8,0.2c-1.6,0-3.3-0.1-4.9-0.2c-1.6-0.1-3.3-0.3-4.9-0.5L305.5,98.6z"/>
			<path d="M388.6,104.6c0.2,9.9,2.8,17.1,7.7,21.7c4.9,4.6,12.1,6.9,21.6,6.9c8.3,0,16.3-1.5,23.8-4.4c0.9,1.8,1.7,3.9,2.3,6.4
				c0.6,2.5,0.9,5,1.1,7.5c-3.9,1.6-8.1,2.9-12.8,3.7c-4.6,0.8-9.8,1.2-15.4,1.2c-8.2,0-15.3-1.1-21.2-3.4
				c-5.9-2.3-10.7-5.5-14.6-9.7c-3.8-4.2-6.6-9.1-8.4-14.8c-1.8-5.7-2.6-12-2.6-18.8c0-6.7,0.9-13,2.6-18.8
				c1.7-5.8,4.3-10.9,7.9-15.2c3.5-4.3,8-7.7,13.3-10.2c5.3-2.5,11.7-3.8,19-3.8c6.2,0,11.7,1.1,16.4,3.2c4.7,2.1,8.6,5,11.8,8.7
				c3.2,3.7,5.6,8.1,7.2,13.2c1.6,5.1,2.5,10.7,2.5,16.7c0,1.7-0.1,3.4-0.2,5.2c-0.1,1.8-0.2,3.4-0.4,4.7H388.6z M433.4,91.5
				c0-3.3-0.4-6.4-1.3-9.4c-0.9-3-2.2-5.6-3.9-7.9c-1.7-2.2-3.9-4-6.5-5.4c-2.6-1.4-5.8-2-9.4-2c-7.2,0-12.7,2.2-16.5,6.5
				c-3.8,4.4-6.1,10.4-7,18.2H433.4z"/>
			<path d="M473.6,55c1.3-0.2,2.6-0.4,3.8-0.5c1.2-0.1,2.5-0.2,3.8-0.2c1.3,0,2.5,0.1,3.6,0.2c1.1,0.1,2.3,0.3,3.6,0.5
				c0.4,1.8,0.7,4.1,1.1,7.1c0.4,3,0.5,5.5,0.5,7.5c1.2-2,2.7-4,4.5-6c1.8-2,3.9-3.8,6.3-5.4c2.4-1.6,5.1-2.9,8.1-3.9
				c3.1-1,6.4-1.5,10.1-1.5c10.4,0,18,3,22.9,8.9c4.9,5.9,7.4,14.7,7.4,26.4v57.3c-1.3,0.2-2.8,0.4-4.4,0.5
				c-1.6,0.1-3.1,0.2-4.4,0.2c-1.3,0-2.7-0.1-4.3-0.2c-1.6-0.1-3-0.3-4.3-0.5V93c0-8.3-1.3-14.5-3.9-18.4c-2.6-3.9-6.7-5.9-12.4-5.9
				c-3.3,0-6.4,0.6-9.3,1.8c-2.9,1.2-5.5,3-7.8,5.5c-2.2,2.5-4,5.7-5.4,9.6c-1.4,3.9-2,8.7-2,14.2v45.9c-1.3,0.2-2.7,0.4-4.3,0.5
				c-1.6,0.1-3,0.2-4.3,0.2c-1.3,0-2.8-0.1-4.4-0.2c-1.6-0.1-3.1-0.3-4.4-0.5V55z"/>
			<path d="M588.6,104.6c0.2,9.9,2.8,17.1,7.7,21.7c4.9,4.6,12.1,6.9,21.6,6.9c8.3,0,16.3-1.5,23.8-4.4c0.9,1.8,1.7,3.9,2.3,6.4
				c0.6,2.5,0.9,5,1.1,7.5c-3.9,1.6-8.1,2.9-12.8,3.7c-4.6,0.8-9.8,1.2-15.4,1.2c-8.2,0-15.3-1.1-21.2-3.4
				c-5.9-2.3-10.7-5.5-14.6-9.7c-3.8-4.2-6.6-9.1-8.4-14.8c-1.8-5.7-2.6-12-2.6-18.8c0-6.7,0.8-13,2.6-18.8
				c1.7-5.8,4.3-10.9,7.9-15.2c3.5-4.3,8-7.7,13.3-10.2c5.4-2.5,11.7-3.8,19-3.8c6.2,0,11.7,1.1,16.4,3.2c4.7,2.1,8.6,5,11.8,8.7
				c3.2,3.7,5.6,8.1,7.2,13.2c1.6,5.1,2.5,10.7,2.5,16.7c0,1.7-0.1,3.4-0.2,5.2c-0.1,1.8-0.2,3.4-0.4,4.7H588.6z M633.5,91.5
				c0-3.3-0.4-6.4-1.3-9.4c-0.9-3-2.2-5.6-3.9-7.9c-1.7-2.2-3.9-4-6.5-5.4c-2.6-1.4-5.8-2-9.4-2c-7.2,0-12.7,2.2-16.5,6.5
				c-3.8,4.4-6.1,10.4-7,18.2H633.5z"/>
			<path d="M710.4,147.7c-7.1,0-13.2-1.2-18.5-3.6c-5.3-2.4-9.7-5.7-13.2-10c-3.5-4.2-6.1-9.2-7.8-15c-1.7-5.8-2.6-12-2.6-18.7
				c0-6.7,0.9-12.9,2.6-18.7c1.7-5.8,4.3-10.8,7.8-15c3.5-4.2,7.9-7.6,13.2-10.1c5.3-2.5,11.5-3.7,18.5-3.7c7.1,0,13.2,1.2,18.5,3.7
				c5.3,2.5,9.7,5.8,13.2,10.1c3.5,4.2,6.1,9.2,7.9,15c1.7,5.8,2.6,12,2.6,18.7c0,6.7-0.9,12.9-2.6,18.7c-1.7,5.8-4.3,10.8-7.9,15
				c-3.5,4.2-7.9,7.6-13.2,10C723.6,146.4,717.4,147.7,710.4,147.7z M710.4,133.7c8.1,0,14.1-2.9,18-8.8c3.9-5.9,5.8-14.1,5.8-24.5
				c0-10.5-1.9-18.6-5.8-24.4c-3.9-5.8-9.9-8.7-18-8.7c-8.1,0-14.1,2.9-17.9,8.7c-3.8,5.8-5.7,14-5.7,24.4c0,10.5,1.9,18.6,5.7,24.5
				C696.3,130.8,702.3,133.7,710.4,133.7z"/>
		</g>
		<g>
			
				<linearGradient id="SVGID_1_" gradientUnits="userSpaceOnUse" x1="320.4718" y1="183.8207" x2="473.5983" y2="183.8207" gradientTransform="matrix(0.8818 -0.4717 0.4717 0.8818 -347.8113 120.9767)">
				<stop  offset="4.294480e-02" style="stop-color:#5C257E"/>
				<stop  offset="0.9693" style="stop-color:#8B4F99"/>
			</linearGradient>
			<path class="st0" d="M123.8,159.5c0.6,2,1.1,3.3,1.3,3.8c0.1,0-0.1,0,0,0l0,0c0,0,0,0,0,0c0,0,0,0,0,0l0,0
				c-3-42.6,21.7-59.5,30.4-87.5c0.1-0.4,0.2-0.9,0.3-1.4c0.2-0.6,0.3-1.3,0.4-1.9c1.4-7.8-1.5-17-7.2-26.6c0-0.1-0.1-0.1-0.1-0.2
				c-0.5-0.8-1-1.6-1.5-2.4c0,0,0,0,0,0c-0.9-1.5-2-3-3-4.5c-0.1-0.1-0.2-0.3-0.3-0.5c-0.3-0.4-0.6-0.8-0.9-1.2
				c-0.3-0.4-0.6-0.8-0.9-1.3c-0.3-0.4-0.6-0.8-1-1.2c-0.3-0.4-0.7-0.8-1-1.3c-0.2-0.3-0.5-0.6-0.7-0.9
				c-9.2-11.3-21.2-22.5-33.8-32.4c0,0,0,0,0,0l0,0l0,0c0,0-0.1-0.1,0,0c1.2,16,0.9,32.1-1.1,44.8C102.3,60.2,96.2,78,88,94
				c-17.9-2.1-36-6.8-50.1-13.4c-11.8-5.5-25.2-14-37.9-24c0.1,1.3,0.2,2.7,0.3,4c0,0.4,0.1,0.8,0.1,1.2c0.1,1,0.2,1.9,0.3,2.8
				c0,0.4,0.1,0.9,0.1,1.3c0.1,1,0.2,1.9,0.3,2.8c0,0.4,0.1,0.8,0.1,1.2c0.2,1.2,0.3,2.4,0.5,3.6c0,0.1,0,0.2,0,0.4
				c0.2,1.4,0.4,2.8,0.6,4.1c0,0.1,0,0.2,0.1,0.3C2.8,79.5,3,80.7,3.2,82c0,0.3,0.1,0.5,0.1,0.7C3.6,83.8,3.8,84.9,4,86
				c0.1,0.2,0.1,0.4,0.1,0.6c0.3,1.3,0.5,2.5,0.8,3.8c0,0,0,0,0,0c0.9,4,2,7.9,3.1,11.6c0,0.1,0,0.1,0,0.1c1.9,6.2,4.2,12,6.7,17.1
				c0.4,0.7,0.8,1.5,1.1,2.2c0,0,0,0.1,0,0.1c0,0,0,0,0,0c0.3,0.6,0.7,1.3,1.1,1.9c0,0,0,0,0,0c0,0,0,0,0,0.1
				c0.4,0.7,0.8,1.3,1.2,1.9c0,0,0,0,0,0c0.1,0.1,0.1,0.2,0.2,0.2c0,0,0,0,0,0c0.5,0.8,1.1,1.6,1.6,2.3c0.1,0.1,0.2,0.2,0.3,0.4
				c0,0,0.1,0.1,0.1,0.1c0.6,0.8,1.3,1.6,1.9,2.4l0,0c0.5,0.5,0.9,1,1.4,1.5c0.2,0.2,0.4,0.4,0.6,0.6c0.3,0.3,0.6,0.6,0.9,0.9
				c0.2,0.2,0.4,0.4,0.7,0.6c0.3,0.3,0.6,0.5,0.9,0.7c0.2,0.2,0.5,0.4,0.7,0.5c0.3,0.2,0.6,0.5,0.9,0.7c0.2,0.2,0.5,0.3,0.7,0.5
				c0.3,0.2,0.6,0.4,1,0.6c0.2,0.1,0.5,0.3,0.7,0.4c0.4,0.2,0.7,0.4,1.1,0.5c0.2,0.1,0.4,0.2,0.6,0.3c0.6,0.3,1.2,0.5,1.7,0.7
				c0.4,0.1,0.7,0.3,1,0.4c28.1,8.4,56.1-2.5,89.9,23.4"/>
			<g class="st1">
				
					<linearGradient id="SVGID_2_" gradientUnits="userSpaceOnUse" x1="435.3118" y1="254.1384" x2="435.3118" y2="107.3829" gradientTransform="matrix(0.8818 -0.4717 0.4717 0.8818 -347.8113 120.9767)">
					<stop  offset="4.294480e-02" style="stop-color:#5C257E"/>
					<stop  offset="1" style="stop-color:#FFFFFF"/>
				</linearGradient>
				<path class="st2" d="M104.7,44.9C102.3,60.2,96.2,78,88,94c31.7,3.7,62.5-1.1,67.8-19.6c5.8-20.2-20.4-51.2-50-74.3
					C107,16.2,106.6,32,104.7,44.9z"/>
				
					<linearGradient id="SVGID_3_" gradientUnits="userSpaceOnUse" x1="358.7477" y1="254.1322" x2="358.7477" y2="107.3764" gradientTransform="matrix(0.8818 -0.4717 0.4717 0.8818 -347.8113 120.9767)">
					<stop  offset="4.294480e-02" style="stop-color:#5C257E"/>
					<stop  offset="1" style="stop-color:#FFFFFF"/>
				</linearGradient>
				<path class="st3" d="M37.9,80.6c-11.8-5.5-25.2-14-37.9-24c2.8,37.5,14.1,76.5,34.1,82.9C52.4,145.3,73.5,122.4,88,94
					C70.2,91.9,52,87.2,37.9,80.6z"/>
			</g>
			<g class="st4">
				
					<linearGradient id="SVGID_4_" gradientUnits="userSpaceOnUse" x1="358.7529" y1="133.7821" x2="358.7529" y2="248.0368" gradientTransform="matrix(0.8818 -0.4717 0.4717 0.8818 -347.8113 120.9767)">
					<stop  offset="0.2331" style="stop-color:#4E256F"/>
					<stop  offset="0.8405" style="stop-color:#5C257E"/>
				</linearGradient>
				<path class="st5" d="M63.1,116.1C16.5,98.8,0,56.6,0,56.6l0,0c1.7,23,6.6,46.5,14.8,62.8c0.4,0.7,0.7,1.4,1.1,2.1
					c0,0.1,0.1,0.1,0.1,0.2c0.4,0.6,0.7,1.3,1.1,1.9c0,0.1,0.1,0.2,0.2,0.2c0.4,0.6,0.7,1.2,1.1,1.8c0.1,0.1,0.1,0.2,0.2,0.2
					c0.4,0.6,0.7,1.1,1.1,1.7c0.3,0.4,0.5,0.7,0.7,1c0.1,0.1,0.1,0.2,0.2,0.3c0.2,0.2,0.4,0.5,0.5,0.7c0.4,0.6,0.9,1.1,1.3,1.6
					c3.5,4.1,7.5,7.1,11.8,8.5c0.4,0.1,0.7,0.3,1,0.4c28.1,8.4,56.1-2.5,89.9,23.4C122.5,159.9,98.5,129.2,63.1,116.1z"/>
				
					<linearGradient id="SVGID_5_" gradientUnits="userSpaceOnUse" x1="435.3077" y1="133.7883" x2="435.3077" y2="248.0414" gradientTransform="matrix(0.8818 -0.4717 0.4717 0.8818 -347.8113 120.9767)">
					<stop  offset="0.2331" style="stop-color:#4E256F"/>
					<stop  offset="0.8405" style="stop-color:#5C257E"/>
				</linearGradient>
				<path class="st6" d="M155.8,74.4c5.8-20.2-20.4-51.2-50-74.3l0,0c0,0,25.8,37.1,14.3,85.6c-8.9,37.4,4,74.8,5,77.7
					c0.1,0-0.1,0,0,0l0,0c0,0,0,0,0,0c0,0,0,0,0,0l0,0c-3-42.6,21.7-59.5,30.4-87.5C155.6,75.3,155.6,74.9,155.8,74.4z"/>
			</g>
		</g>
	</g>
	<g>
		<path d="M812.9,71.4c4-5.5,8.8-9.9,14.2-13.2c5.4-3.2,11.5-4.9,18.3-4.9c11.2,0,20,3.9,26.3,11.7c6.3,7.8,9.4,19.5,9.4,35.1
			c0,6.7-0.9,12.9-2.6,18.7s-4.3,10.8-7.7,15.1c-3.4,4.3-7.6,7.6-12.5,10.1c-4.9,2.5-10.6,3.7-17.1,3.7c-6.2,0-11.6-1.1-16.1-3.4
			c-4.5-2.3-8.5-5.6-11.8-10v44.6h-8.8V54.9h4.9c1.5,0,2.4,0.8,2.7,2.3L812.9,71.4z M813.2,126.5c1.8,2.6,3.6,4.9,5.6,6.7
			c1.9,1.8,4,3.3,6.1,4.4c2.1,1.1,4.4,1.9,6.9,2.4c2.4,0.5,5,0.7,7.7,0.7c5.4,0,10.1-1,14.2-2.9c4-2,7.4-4.7,10.2-8.3
			c2.7-3.6,4.8-7.9,6.2-12.9c1.4-5,2.1-10.5,2.1-16.5c0-13.6-2.5-23.6-7.5-30c-5-6.4-12.2-9.6-21.6-9.6c-6.1,0-11.6,1.6-16.5,4.7
			c-4.9,3.1-9.3,7.5-13.2,13.1V126.5z"/>
		<path d="M942.1,53.4c6.6,0,12.4,1.1,17.6,3.4c5.2,2.2,9.6,5.4,13.1,9.5c3.6,4.1,6.3,9.1,8.1,14.9c1.9,5.8,2.8,12.3,2.8,19.5
			c0,7.2-0.9,13.6-2.8,19.4c-1.9,5.8-4.6,10.7-8.1,14.8c-3.6,4.1-7.9,7.3-13.1,9.5c-5.2,2.2-11.1,3.3-17.6,3.3
			c-6.6,0-12.4-1.1-17.6-3.3c-5.2-2.2-9.6-5.4-13.2-9.5c-3.6-4.1-6.3-9-8.2-14.8c-1.9-5.8-2.8-12.2-2.8-19.4
			c0-7.2,0.9-13.7,2.8-19.5c1.9-5.8,4.6-10.7,8.2-14.9c3.6-4.1,8-7.3,13.2-9.5C929.7,54.6,935.6,53.4,942.1,53.4z M942.1,140.8
			c5.5,0,10.2-0.9,14.3-2.8c4.1-1.9,7.5-4.6,10.2-8.1c2.7-3.5,4.8-7.7,6.1-12.6c1.3-4.9,2-10.5,2-16.6c0-6.1-0.7-11.6-2-16.6
			c-1.3-5-3.4-9.2-6.1-12.7c-2.7-3.5-6.1-6.2-10.2-8.1c-4.1-1.9-8.8-2.9-14.3-2.9c-5.5,0-10.2,1-14.3,2.9c-4.1,1.9-7.5,4.6-10.2,8.1
			c-2.7,3.5-4.8,7.8-6.2,12.7c-1.4,5-2.1,10.5-2.1,16.6c0,6.1,0.7,11.7,2.1,16.6c1.4,4.9,3.4,9.2,6.2,12.6c2.7,3.5,6.1,6.2,10.2,8.1
			C931.9,139.8,936.7,140.8,942.1,140.8z"/>
		<path d="M1016.9,77c1.4-3.7,3-7.1,4.8-10c1.8-2.9,3.9-5.4,6.3-7.4c2.4-2,5-3.6,7.9-4.6c2.9-1.1,6.1-1.6,9.7-1.6
			c1.9,0,3.8,0.2,5.6,0.5c1.8,0.3,3.5,0.9,4.9,1.8l-0.7,6.1c-0.3,1-0.9,1.5-1.7,1.5c-0.7,0-1.9-0.2-3.4-0.6
			c-1.5-0.4-3.5-0.6-5.9-0.6c-3.6,0-6.7,0.5-9.4,1.6c-2.7,1.1-5.2,2.7-7.4,4.8c-2.2,2.1-4.1,4.8-5.7,8c-1.6,3.2-3.1,6.8-4.5,10.9
			v59.2h-8.8V54.9h4.7c1,0,1.8,0.2,2.2,0.6c0.4,0.4,0.7,1.2,0.8,2.2L1016.9,77z"/>
		<path d="M1098.6,147.9c-6.2,0-11-1.7-14.5-5.2c-3.5-3.4-5.2-8.7-5.2-15.9V64.3h-13.2c-0.7,0-1.2-0.2-1.7-0.6
			c-0.4-0.4-0.6-0.9-0.6-1.6v-3.4l15.6-1.1l2.2-32.8c0.1-0.6,0.4-1,0.7-1.5c0.4-0.4,0.9-0.6,1.6-0.6h4.1v35h28.9v6.5h-28.9v62.1
			c0,2.5,0.3,4.7,1,6.5c0.6,1.8,1.5,3.3,2.7,4.5c1.1,1.2,2.5,2,4,2.6c1.5,0.6,3.2,0.8,5,0.8c2.2,0,4.1-0.3,5.7-1
			c1.6-0.6,3-1.3,4.1-2.1c1.2-0.8,2.1-1.5,2.9-2.1c0.7-0.6,1.3-1,1.7-1c0.5,0,1,0.3,1.5,0.9l2.4,3.9c-2.3,2.6-5.3,4.6-8.9,6.2
			S1102.5,147.9,1098.6,147.9z"/>
		<path d="M1134,67.9c4.8-4.8,9.8-8.4,15.1-10.9c5.3-2.5,11.3-3.7,17.9-3.7c4.9,0,9.2,0.8,12.9,2.3s6.7,3.8,9.2,6.7
			c2.4,2.9,4.2,6.4,5.5,10.6c1.2,4.1,1.8,8.8,1.8,13.8v59.6h-3.5c-1.8,0-3-0.9-3.4-2.6l-1.3-11.8c-2.5,2.5-5,4.7-7.5,6.6
			c-2.5,2-5.1,3.6-7.8,5c-2.7,1.3-5.6,2.4-8.7,3.1c-3.1,0.7-6.6,1.1-10.3,1.1c-3.1,0-6.2-0.5-9.1-1.4c-2.9-0.9-5.6-2.3-7.9-4.2
			c-2.3-1.9-4.1-4.3-5.5-7.3c-1.4-3-2.1-6.5-2.1-10.7c0-3.9,1.1-7.5,3.3-10.8s5.7-6.2,10.4-8.6c4.7-2.5,10.8-4.4,18.2-5.9
			c7.4-1.5,16.3-2.3,26.6-2.6v-9.6c0-8.5-1.8-15-5.5-19.5c-3.7-4.6-9.1-6.9-16.2-6.9c-4.4,0-8.2,0.6-11.3,1.8
			c-3.1,1.2-5.7,2.6-7.9,4c-2.1,1.5-3.9,2.8-5.2,4c-1.3,1.2-2.5,1.8-3.4,1.8c-0.7,0-1.2-0.2-1.7-0.5c-0.4-0.3-0.8-0.7-1.1-1.2
			L1134,67.9z M1187.9,102.2c-8.7,0.3-16.2,1-22.5,2.1c-6.3,1.1-11.5,2.5-15.5,4.4c-4.1,1.8-7.1,4-9.1,6.6c-2,2.5-2.9,5.4-2.9,8.7
			c0,3.1,0.5,5.7,1.5,8c1,2.2,2.4,4.1,4,5.5c1.7,1.4,3.6,2.5,5.8,3.2c2.2,0.7,4.5,1,6.9,1c3.6,0,6.8-0.4,9.8-1.1
			c3-0.8,5.7-1.8,8.3-3.2c2.5-1.4,4.9-3,7.1-4.9c2.2-1.9,4.4-4,6.5-6.2V102.2z"/>
		<path d="M1235.3,12.6v133.9h-8.8V12.6H1235.3z"/>
		<path d="M1308.6,70.4c4.2-5.2,9.1-9.3,14.5-12.3c5.4-3.1,11.5-4.6,18.3-4.6c5,0,9.5,0.8,13.3,2.4c3.8,1.6,7,3.9,9.5,6.9
			c2.5,3,4.4,6.6,5.7,10.9c1.3,4.2,1.9,9,1.9,14.4v58.5h-8.8V87.9c0-8.6-2-15.3-5.9-20.2c-3.9-4.9-9.9-7.3-17.9-7.3
			c-5.9,0-11.5,1.5-16.7,4.6c-5.2,3-9.8,7.3-13.8,12.6v68.8h-8.8V12.6h8.8V70.4z"/>
		<path d="M1404.1,97.1v1.7c0,6.9,0.8,12.9,2.4,18.1c1.6,5.2,3.9,9.6,6.8,13.1c2.9,3.5,6.5,6.2,10.7,8c4.2,1.8,8.8,2.7,14,2.7
			c4.6,0,8.6-0.5,12-1.5c3.4-1,6.2-2.1,8.5-3.4c2.3-1.3,4.1-2.4,5.5-3.4c1.3-1,2.3-1.5,2.9-1.5c0.8,0,1.4,0.3,1.8,0.9l2.4,2.9
			c-1.5,1.8-3.4,3.6-5.8,5.2c-2.4,1.6-5.1,3-8.1,4.1c-3,1.1-6.2,2-9.6,2.7c-3.4,0.7-6.8,1-10.3,1c-6.3,0-12-1.1-17.1-3.3
			c-5.2-2.2-9.6-5.4-13.2-9.5c-3.7-4.2-6.5-9.3-8.5-15.3c-2-6-3-13-3-20.7c0-6.6,0.9-12.6,2.8-18.2c1.9-5.5,4.6-10.3,8.1-14.4
			c3.5-4,7.9-7.2,13-9.4c5.1-2.3,10.9-3.4,17.4-3.4c5.2,0,9.9,0.9,14.4,2.7c4.4,1.8,8.2,4.4,11.5,7.8c3.3,3.4,5.8,7.6,7.7,12.6
			c1.9,5,2.8,10.7,2.8,17.1c0,1.3-0.2,2.3-0.6,2.8c-0.4,0.5-1,0.7-1.8,0.7H1404.1z M1465.1,91.4c0-4.9-0.7-9.3-2.1-13.2
			c-1.4-3.9-3.3-7.2-5.8-9.9c-2.5-2.7-5.5-4.8-9-6.2c-3.5-1.4-7.3-2.2-11.5-2.2c-4.7,0-9,0.7-12.7,2.2c-3.7,1.5-7,3.6-9.7,6.3
			c-2.7,2.8-4.9,6.1-6.6,9.9c-1.7,3.9-2.8,8.2-3.3,13H1465.1z"/>
		<path d="M1506.5,12.6v133.9h-8.8V12.6H1506.5z"/>
		<path d="M1546,71.4c4-5.5,8.8-9.9,14.2-13.2c5.4-3.2,11.5-4.9,18.3-4.9c11.2,0,20,3.9,26.3,11.7c6.3,7.8,9.4,19.5,9.4,35.1
			c0,6.7-0.9,12.9-2.6,18.7s-4.3,10.8-7.7,15.1c-3.4,4.3-7.6,7.6-12.5,10.1c-4.9,2.5-10.6,3.7-17.1,3.7c-6.2,0-11.6-1.1-16.1-3.4
			c-4.5-2.3-8.5-5.6-11.8-10v44.6h-8.8V54.9h4.9c1.5,0,2.4,0.8,2.7,2.3L1546,71.4z M1546.4,126.5c1.8,2.6,3.6,4.9,5.6,6.7
			c1.9,1.8,4,3.3,6.1,4.4c2.1,1.1,4.4,1.9,6.9,2.4c2.4,0.5,5,0.7,7.7,0.7c5.4,0,10.1-1,14.2-2.9c4-2,7.4-4.7,10.2-8.3
			c2.7-3.6,4.8-7.9,6.2-12.9c1.4-5,2.1-10.5,2.1-16.5c0-13.6-2.5-23.6-7.5-30c-5-6.4-12.2-9.6-21.6-9.6c-6.1,0-11.6,1.6-16.5,4.7
			c-4.9,3.1-9.3,7.5-13.2,13.1V126.5z"/>
		<path d="M1734,67.2c-0.3,0.3-0.6,0.6-0.9,0.8c-0.3,0.2-0.7,0.3-1.1,0.3c-0.6,0-1.4-0.4-2.5-1.2c-1-0.8-2.5-1.7-4.2-2.7
			c-1.8-1-4-1.9-6.7-2.7s-5.9-1.2-9.7-1.2c-5.3,0-10,0.9-14,2.8c-4.1,1.9-7.5,4.6-10.4,8.1c-2.8,3.5-5,7.7-6.4,12.7
			c-1.4,5-2.2,10.5-2.2,16.7c0,6.4,0.8,12.1,2.3,17.1c1.5,5,3.6,9.2,6.4,12.6c2.8,3.4,6.1,6,10,7.8c3.9,1.8,8.3,2.7,13.1,2.7
			c4.4,0,8.1-0.5,11.1-1.6c3-1,5.4-2.2,7.4-3.4c1.9-1.2,3.5-2.4,4.6-3.4c1.1-1,2-1.6,2.8-1.6s1.3,0.3,1.8,0.9l2.3,2.9
			c-1.4,1.8-3.2,3.6-5.3,5.2c-2.1,1.6-4.6,3-7.3,4.1c-2.7,1.2-5.6,2.1-8.8,2.7c-3.2,0.6-6.5,1-9.9,1c-5.8,0-11.1-1.1-16-3.2
			c-4.8-2.1-9-5.2-12.4-9.2c-3.5-4-6.2-8.9-8.1-14.8c-1.9-5.8-2.9-12.5-2.9-19.9c0-7,0.9-13.4,2.8-19.1c1.8-5.8,4.5-10.7,8.1-14.9
			c3.6-4.2,7.9-7.4,13-9.7c5.1-2.3,11-3.5,17.6-3.5c5.9,0,11.2,1,15.8,2.9c4.6,1.9,8.6,4.5,12.1,7.7L1734,67.2z"/>
		<path d="M1760.6,97.1v1.7c0,6.9,0.8,12.9,2.4,18.1c1.6,5.2,3.9,9.6,6.8,13.1c2.9,3.5,6.5,6.2,10.7,8c4.2,1.8,8.8,2.7,14,2.7
			c4.6,0,8.6-0.5,12-1.5c3.4-1,6.2-2.1,8.5-3.4c2.3-1.3,4.1-2.4,5.5-3.4c1.3-1,2.3-1.5,2.9-1.5c0.8,0,1.4,0.3,1.8,0.9l2.4,2.9
			c-1.5,1.8-3.4,3.6-5.8,5.2c-2.4,1.6-5.1,3-8.1,4.1c-3,1.1-6.2,2-9.6,2.7c-3.4,0.7-6.8,1-10.3,1c-6.3,0-12-1.1-17.1-3.3
			c-5.2-2.2-9.6-5.4-13.2-9.5c-3.7-4.2-6.5-9.3-8.5-15.3c-2-6-3-13-3-20.7c0-6.6,0.9-12.6,2.8-18.2c1.9-5.5,4.6-10.3,8.1-14.4
			c3.5-4,7.9-7.2,13-9.4c5.1-2.3,10.9-3.4,17.4-3.4c5.2,0,9.9,0.9,14.4,2.7c4.4,1.8,8.2,4.4,11.5,7.8c3.3,3.4,5.8,7.6,7.7,12.6
			c1.9,5,2.8,10.7,2.8,17.1c0,1.3-0.2,2.3-0.6,2.8c-0.4,0.5-1,0.7-1.8,0.7H1760.6z M1821.6,91.4c0-4.9-0.7-9.3-2.1-13.2
			c-1.4-3.9-3.3-7.2-5.8-9.9c-2.5-2.7-5.5-4.8-9-6.2c-3.5-1.4-7.3-2.2-11.5-2.2c-4.7,0-9,0.7-12.7,2.2c-3.7,1.5-7,3.6-9.7,6.3
			c-2.7,2.8-4.9,6.1-6.6,9.9c-1.7,3.9-2.8,8.2-3.3,13H1821.6z"/>
		<path d="M1861.8,70.9c4.2-5.3,9.1-9.5,14.7-12.7c5.6-3.2,11.7-4.8,18.5-4.8c5,0,9.5,0.8,13.3,2.4c3.8,1.6,7,3.9,9.5,6.9
			c2.5,3,4.4,6.6,5.7,10.9c1.3,4.2,1.9,9,1.9,14.4v58.5h-8.8V87.9c0-8.6-2-15.3-5.9-20.2c-3.9-4.9-9.9-7.3-17.9-7.3
			c-5.9,0-11.5,1.5-16.7,4.6c-5.2,3-9.8,7.3-13.8,12.6v68.8h-8.8V54.9h4.9c1.5,0,2.4,0.8,2.7,2.3L1861.8,70.9z"/>
		<path d="M1978.4,147.9c-6.2,0-11-1.7-14.5-5.2c-3.5-3.4-5.2-8.7-5.2-15.9V64.3h-13.2c-0.7,0-1.2-0.2-1.7-0.6
			c-0.4-0.4-0.6-0.9-0.6-1.6v-3.4l15.6-1.1l2.2-32.8c0.1-0.6,0.4-1,0.7-1.5c0.4-0.4,0.9-0.6,1.6-0.6h4.1v35h28.9v6.5h-28.9v62.1
			c0,2.5,0.3,4.7,1,6.5c0.6,1.8,1.5,3.3,2.7,4.5c1.1,1.2,2.5,2,4,2.6c1.5,0.6,3.2,0.8,5,0.8c2.2,0,4.1-0.3,5.7-1
			c1.6-0.6,3-1.3,4.1-2.1c1.2-0.8,2.1-1.5,2.9-2.1c0.7-0.6,1.3-1,1.7-1c0.5,0,1,0.3,1.5,0.9l2.4,3.9c-2.3,2.6-5.3,4.6-8.9,6.2
			S1982.3,147.9,1978.4,147.9z"/>
		<path d="M2019.3,97.1v1.7c0,6.9,0.8,12.9,2.4,18.1c1.6,5.2,3.9,9.6,6.8,13.1c2.9,3.5,6.5,6.2,10.7,8c4.2,1.8,8.8,2.7,14,2.7
			c4.6,0,8.6-0.5,12-1.5c3.4-1,6.2-2.1,8.5-3.4c2.3-1.3,4.1-2.4,5.5-3.4c1.3-1,2.3-1.5,2.9-1.5c0.8,0,1.4,0.3,1.8,0.9l2.4,2.9
			c-1.5,1.8-3.4,3.6-5.8,5.2c-2.4,1.6-5.1,3-8.1,4.1c-3,1.1-6.2,2-9.6,2.7c-3.4,0.7-6.8,1-10.3,1c-6.3,0-12-1.1-17.1-3.3
			c-5.2-2.2-9.6-5.4-13.2-9.5c-3.7-4.2-6.5-9.3-8.5-15.3c-2-6-3-13-3-20.7c0-6.6,0.9-12.6,2.8-18.2c1.9-5.5,4.6-10.3,8.1-14.4
			c3.5-4,7.9-7.2,13-9.4c5.1-2.3,10.9-3.4,17.4-3.4c5.2,0,9.9,0.9,14.4,2.7c4.4,1.8,8.2,4.4,11.5,7.8c3.3,3.4,5.8,7.6,7.7,12.6
			c1.9,5,2.8,10.7,2.8,17.1c0,1.3-0.2,2.3-0.6,2.8c-0.4,0.5-1,0.7-1.8,0.7H2019.3z M2080.4,91.4c0-4.9-0.7-9.3-2.1-13.2
			c-1.4-3.9-3.3-7.2-5.8-9.9c-2.5-2.7-5.5-4.8-9-6.2c-3.5-1.4-7.3-2.2-11.5-2.2c-4.7,0-9,0.7-12.7,2.2c-3.7,1.5-7,3.6-9.7,6.3
			c-2.7,2.8-4.9,6.1-6.6,9.9c-1.7,3.9-2.8,8.2-3.3,13H2080.4z"/>
		<path d="M2120.5,77c1.4-3.7,3-7.1,4.8-10c1.8-2.9,3.9-5.4,6.3-7.4c2.4-2,5-3.6,7.9-4.6c2.9-1.1,6.1-1.6,9.7-1.6
			c1.9,0,3.8,0.2,5.6,0.5c1.8,0.3,3.5,0.9,4.9,1.8l-0.7,6.1c-0.3,1-0.9,1.5-1.7,1.5c-0.7,0-1.9-0.2-3.4-0.6
			c-1.5-0.4-3.5-0.6-5.9-0.6c-3.6,0-6.7,0.5-9.4,1.6c-2.7,1.1-5.2,2.7-7.4,4.8c-2.2,2.1-4.1,4.8-5.7,8c-1.6,3.2-3.1,6.8-4.5,10.9
			v59.2h-8.8V54.9h4.7c1,0,1.8,0.2,2.2,0.6c0.4,0.4,0.7,1.2,0.8,2.2L2120.5,77z"/>
	</g>
</g>
</svg>
