<svg xmlns="http://www.w3.org/2000/svg" xmlns:xlink="http://www.w3.org/1999/xlink" viewBox="0 0 256 256"><defs><style>.cls-1{fill:none;}.cls-2{fill:#e1f2ff;}.cls-3{fill:#acd3ef;}.cls-4{fill:#5e63b6;}.cls-5{fill:#fff;}.cls-6{clip-path:url(#clip-path);}.cls-7{fill:#9452ba;}.cls-8{fill:#52267d;}.cls-10,.cls-9{fill:#f3e3ff;}.cls-10,.cls-11{opacity:0.3;}.cls-12{clip-path:url(#clip-path-2);}.cls-13{fill:#fcce76;}.cls-14{fill:#f74b64;}.cls-15{fill:#abdcdc;}</style><clipPath id="clip-path"><rect class="cls-1" x="44.8" y="149.7" width="84.33" height="45.26"/></clipPath><clipPath id="clip-path-2"><rect class="cls-1" x="157.5" y="179.34" width="21.76" height="34.74"/></clipPath></defs><g id="Onboarder"><polygon class="cls-2" points="16.23 220.01 121.99 220.01 121.99 157.57 58.8 157.57 36.56 132.33 16.23 157.57 16.23 220.01"/><path class="cls-3" d="M122,221H16.23a1,1,0,0,1-1-1V157.57a1,1,0,0,1,.22-.63l20.34-25.23a1,1,0,0,1,.75-.38,1,1,0,0,1,.77.34l21.94,24.9H122a1,1,0,0,1,1,1V220A1,1,0,0,1,122,221ZM17.23,219H121V158.57H58.8a1,1,0,0,1-.75-.34L36.6,133.88l-19.37,24Z"/><polygon class="cls-2" points="36.56 132.33 98.89 132.33 121.99 157.57 58.8 157.57 36.56 132.33"/><path class="cls-3" d="M122,158.57H58.8a1,1,0,0,1-.75-.34L35.81,133a1,1,0,0,1,.75-1.66H98.89a1,1,0,0,1,.74.33l23.1,25.24a1,1,0,0,1,.18,1.07A1,1,0,0,1,122,158.57Zm-62.74-2h60.47L98.45,133.33H38.78Z"/><circle class="cls-2" cx="35.57" cy="157.88" r="5.15"/><path class="cls-3" d="M35.57,164a6.16,6.16,0,1,1,6.15-6.16A6.18,6.18,0,0,1,35.57,164Zm0-10.31a4.16,4.16,0,1,0,4.15,4.15A4.16,4.16,0,0,0,35.57,153.73Z"/><path class="cls-2" d="M24.44,228.52a103.56,103.56,0,0,1,207.12,0Z"/><path class="cls-4" d="M225.08,149.81H187.66a1,1,0,0,1,0-2h37.42a1,1,0,0,1,0,2Z"/><path class="cls-4" d="M241,121.73a.5.5,0,0,1-.5-.5V117.3a.5.5,0,0,1,.5-.5.5.5,0,0,1,.5.5v3.93A.5.5,0,0,1,241,121.73Z"/><path class="cls-4" d="M243,119.77h-3.94a.5.5,0,0,1-.5-.5.5.5,0,0,1,.5-.5H243a.5.5,0,0,1,.5.5A.51.51,0,0,1,243,119.77Z"/><path class="cls-4" d="M252.1,221h-3a1,1,0,0,1,0-2h3a1,1,0,1,1,0,2Z"/><path class="cls-4" d="M11.88,221h-9a1,1,0,1,1,0-2h9a1,1,0,0,1,0,2Z"/><path class="cls-4" d="M161.33,230.11H94.14a1,1,0,1,1,0-2h67.19a1,1,0,1,1,0,2Z"/><path class="cls-4" d="M179.09,230.11H170a1,1,0,0,1,0-2h9.14a1,1,0,1,1,0,2Z"/><line class="cls-5" x1="86.26" y1="229.03" x2="81.26" y2="229.11"/><path class="cls-4" d="M81.26,230.11a1,1,0,0,1,0-2l5-.08h0a1,1,0,0,1,0,2l-5,.08Z"/><path class="cls-4" d="M210.16,74.49a1,1,0,0,1-1-1v-7a1,1,0,1,1,2,0v7A1,1,0,0,1,210.16,74.49Z"/><path class="cls-4" d="M213.66,71h-7a1,1,0,0,1,0-2h7a1,1,0,0,1,0,2Z"/><path class="cls-4" d="M35.56,53.14a1,1,0,0,1-1-1v-7a1,1,0,0,1,2,0v7A1,1,0,0,1,35.56,53.14Z"/><path class="cls-4" d="M39.06,49.64h-7a1,1,0,0,1,0-2h7a1,1,0,0,1,0,2Z"/><path class="cls-4" d="M144.71,24.86a.5.5,0,0,1-.5-.5V20.42a.5.5,0,0,1,.5-.5.5.5,0,0,1,.5.5v3.94A.51.51,0,0,1,144.71,24.86Z"/><path class="cls-4" d="M146.68,22.89h-3.94a.5.5,0,0,1,0-1h3.94a.5.5,0,0,1,0,1Z"/><path class="cls-4" d="M18.46,115.38a.5.5,0,0,1-.5-.5v-3.94a.5.5,0,0,1,.5-.5.5.5,0,0,1,.5.5v3.94A.51.51,0,0,1,18.46,115.38Z"/><path class="cls-4" d="M20.42,113.41H16.49a.5.5,0,0,1-.5-.5.5.5,0,0,1,.5-.5h3.93a.5.5,0,0,1,.5.5A.5.5,0,0,1,20.42,113.41Z"/><rect class="cls-3" x="26.32" y="182.4" width="17.75" height="33.14"/><path class="cls-2" d="M186.93,216.89a1,1,0,0,1-1-1V201.64a1,1,0,0,1,2,0v14.25A1,1,0,0,1,186.93,216.89Z"/><polygon class="cls-5" points="202.1 219.94 51.24 219.94 51.24 130.87 141.38 130.87 173.1 94.87 202.1 130.87 202.1 219.94"/><path class="cls-4" d="M202.1,220.94H51.24a1,1,0,0,1-1-1V130.87a1,1,0,0,1,1-1h89.69l31.42-35.66a.93.93,0,0,1,.77-.34,1,1,0,0,1,.75.37l29,36a1,1,0,0,1,.22.63v89.07A1,1,0,0,1,202.1,220.94Zm-149.86-2H201.1V131.22l-28-34.8-30.93,35.11a1,1,0,0,1-.75.34H52.24Z"/><rect class="cls-2" x="67.4" y="149.7" width="61.73" height="46.24"/><path class="cls-4" d="M130.13,196.94H66.4V148.7h63.73Zm-61.73-2h59.73V150.7H68.4Z"/><rect class="cls-2" x="156.39" y="159.65" width="34.86" height="60.29"/><path class="cls-4" d="M192.26,220.94H155.39V158.65h36.87Zm-34.87-2h32.87V160.65H157.39Z"/><path class="cls-5" d="M87.5,220a11.65,11.65,0,0,0-10.32-10.93,19.34,19.34,0,0,0-34.44-7.63,16.07,16.07,0,0,0-3.83-.47,15.68,15.68,0,0,0-15.67,15.68A16.07,16.07,0,0,0,23.6,220"/><path class="cls-3" d="M23.6,221a1,1,0,0,1-1-.78A16.67,16.67,0,0,1,38.91,200a16.37,16.37,0,0,1,3.43.36,20.14,20.14,0,0,1,15.91-7.67A20.4,20.4,0,0,1,78,208.19,12.61,12.61,0,0,1,88.5,220a1,1,0,1,1-2,.11,10.63,10.63,0,0,0-9.44-10l-.72-.08-.15-.71a18.34,18.34,0,0,0-32.66-7.23l-.4.54-.64-.17a15,15,0,0,0-3.59-.44,14.69,14.69,0,0,0-14.67,14.68,14.52,14.52,0,0,0,.34,3.14,1,1,0,0,1-.76,1.19Z"/><g class="cls-6"><path class="cls-7" d="M101.32,257.25l5-.06a4.17,4.17,0,0,0,3.85-2.69c1.71-4.57,1.22-8.75,1.39-12.33.3-6.63-.77-10-1.83-15.54l-7.47.27s.67,2.74,1.2,11c.16,2.55-3.93,12.87-3.67,17.9A1.53,1.53,0,0,0,101.32,257.25Z"/><path class="cls-8" d="M101.3,258.25a2.53,2.53,0,0,1-2.53-2.4c-.16-3.08,1.14-7.74,2.29-11.86a32.18,32.18,0,0,0,1.38-6,78.22,78.22,0,0,0-1.17-10.82L101,226l9.55-.35.16.85c.2,1,.39,2,.58,2.85a46,46,0,0,1,1.27,12.92c0,.81-.05,1.66-.05,2.53a27.53,27.53,0,0,1-1.4,10.1,5.21,5.21,0,0,1-4.78,3.34l-5,.06Zm2.14-30.39c.24,1.5.65,4.57,1,10,.08,1.19-.5,3.32-1.44,6.7-1.06,3.77-2.37,8.46-2.22,11.22a.51.51,0,0,0,.54.5l5-.06a3.19,3.19,0,0,0,2.93-2,25.66,25.66,0,0,0,1.27-9.41c0-.9,0-1.77.05-2.62a43.82,43.82,0,0,0-1.23-12.41c-.14-.66-.28-1.34-.42-2.05Z"/><path class="cls-7" d="M86.53,233.77,80.43,227l-3.71.19s-.44,5.68-.63,8.05a111.69,111.69,0,0,1-3,16,14.44,14.44,0,0,0-.57,3.26,3,3,0,0,0,3,3l4.41-.06a5.63,5.63,0,0,0,5.43-4.27C87.27,245.47,86.53,233.77,86.53,233.77Z"/><path class="cls-8" d="M75.52,258.58a4.07,4.07,0,0,1-2.88-1.22,3.82,3.82,0,0,1-1.09-2.84,15.68,15.68,0,0,1,.6-3.49,110.76,110.76,0,0,0,2.94-15.83c.19-2.38.64-8.06.64-8.06l.07-.87,5.06-.27,6.65,7.35,0,.35c0,.49.73,12-1.15,19.78a6.63,6.63,0,0,1-6.39,5l-4.42.06Zm2.13-30.41c-.13,1.69-.42,5.38-.56,7.18a112.91,112.91,0,0,1-3,16.22,13.51,13.51,0,0,0-.53,3,1.82,1.82,0,0,0,.53,1.35,2,2,0,0,0,1.44.62h0l4.41-.06A4.63,4.63,0,0,0,84.43,253c1.64-6.8,1.22-16.85,1.12-18.83L80,228.05Z"/><path class="cls-8" d="M78.07,240.59l-1.29-1.13L78,238.39l.34.37-.39.35,1.56-.39.51,1.1Zm-.12-.77.22.19,1.14-.46-.11-.24-.8.19,0,.29Zm-.42-.37.3.27,0-.51Z"/><path class="cls-7" d="M77.8,208.49c4.37-.15,8.44-3.21,17.37-3.74a7.46,7.46,0,0,1,.47-1.55c1.57-3.52,3.73-13.64,2.18-20.25l-1.23-5.23a24.29,24.29,0,0,1-.64-5.23h0a10.89,10.89,0,0,1,.19-2.15c0-.17.07-.34.11-.51a10.4,10.4,0,0,1,.49-1.49c.06-.16.13-.32.2-.48.15-.31.31-.61.48-.91a9.69,9.69,0,0,1,.57-.85,10.53,10.53,0,0,1,2.13-2.19,9.64,9.64,0,0,1,.84-.58,10.5,10.5,0,0,1,5.49-1.61l1.75,0a10.59,10.59,0,0,1,7.56,3,9.73,9.73,0,0,1,.69.74,12.32,12.32,0,0,1,1.08,1.52c.11.21.23.41.33.62s.15.31.22.47a10.68,10.68,0,0,1,.52,1.47,10.36,10.36,0,0,1,.3,1.57c0,.36.06.72.07,1.09h0a2.66,2.66,0,0,1-2.62,2.68l-10.89.14,1.77,9.43c2,9.69,1.55,16.19.11,20.53-.32,1-2.18,4.42-2.18,4.42,5.55,8.52,14,12.17,22.89,13.15,7.6.83,23.9-6.3,15.35-14.2s1.73-3,3.24-2.06,10.3,8.4,1,19.53c-3.93,4.71-8.39,9-19.22,12.39-1.74.54-11.24,1.35-16.34,2.88-15.19,4.57-27.65,0-34.72-10S76.07,208.55,77.8,208.49Z"/><path class="cls-8" d="M100.78,243.84c-10,0-18.58-4.22-24.22-12.18S73,214.46,75.1,210.23c1.34-2.7,2.34-2.73,2.66-2.74h0a20.52,20.52,0,0,0,5.51-1.29,44.15,44.15,0,0,1,11.1-2.4,7,7,0,0,1,.35-1c1.5-3.34,3.6-13.3,2.12-19.61L95.62,178A25.71,25.71,0,0,1,95,172.5a11.54,11.54,0,0,1,.21-2.35c0-.19.08-.37.12-.56a11.92,11.92,0,0,1,.53-1.63c.07-.18.15-.35.23-.52.16-.34.33-.67.52-1s.4-.63.62-.93a11.48,11.48,0,0,1,2.33-2.39,10,10,0,0,1,.92-.64,11.51,11.51,0,0,1,6-1.76l1.75,0a11.42,11.42,0,0,1,8.27,3.3c.26.26.52.53.76.82a12.35,12.35,0,0,1,1.17,1.66c.13.22.25.44.37.67l.24.52a11.86,11.86,0,0,1,.57,1.61,11.31,11.31,0,0,1,.32,1.72,11.5,11.5,0,0,1,.08,1.18,3.65,3.65,0,0,1-1,2.6,3.6,3.6,0,0,1-2.57,1.1l-9.7.13,1.55,8.26c1.83,8.6,1.86,15.68.08,21a42,42,0,0,1-2,4c4.8,7,12.14,11.15,21.84,12.21,5.23.59,14.39-2.88,16.3-7.06.82-1.8.25-3.57-1.73-5.4-3.39-3.13-4.25-4.55-3.41-5.63,1.46-1.87,7.81,2,7.87,2a13.7,13.7,0,0,1,5.54,8.78c.59,4-.86,8.09-4.31,12.22-3.74,4.48-8.34,9.15-19.69,12.7A44.84,44.84,0,0,1,124,240a89.22,89.22,0,0,0-11.57,2.1A40.35,40.35,0,0,1,100.78,243.84ZM78,209.48c-.47.38-1.78,2.48-2.52,5.91-.7,3.21-1.27,9.46,2.74,15.11,7.33,10.34,19.58,13.86,33.61,9.64A90,90,0,0,1,123.68,238c2-.28,3.88-.54,4.45-.72,10.84-3.39,15.06-7.64,18.75-12.07,3.07-3.68,4.37-7.26,3.87-10.65a11.75,11.75,0,0,0-4.66-7.4,25.23,25.23,0,0,0-4.46-2,27.73,27.73,0,0,0,2.45,2.51c3.32,3.06,3,5.88,2.2,7.7-2.45,5.38-12.86,8.81-18.34,8.22-10.54-1.15-18.49-5.73-23.62-13.6l-.32-.5.28-.52c.7-1.3,1.9-3.61,2.11-4.25,1.66-5,1.62-11.74-.14-20l-2-10.63,12.08-.15a1.64,1.64,0,0,0,1.16-.49,1.68,1.68,0,0,0,.47-1.18c0-.33,0-.66-.06-1a9.64,9.64,0,0,0-.28-1.42,8.86,8.86,0,0,0-.47-1.34c-.06-.14-.12-.28-.19-.42s-.2-.38-.31-.56a9.2,9.2,0,0,0-1-1.38c-.2-.24-.41-.46-.63-.68a9.56,9.56,0,0,0-6.72-2.74h-.13l-1.74,0a9.6,9.6,0,0,0-5,1.45c-.26.17-.52.35-.76.53a9.89,9.89,0,0,0-1.94,2c-.18.25-.35.5-.51.77s-.3.54-.43.83-.13.28-.19.43a9.09,9.09,0,0,0-.43,1.34c0,.15-.08.31-.11.47a9.72,9.72,0,0,0-.17,1.94,23.52,23.52,0,0,0,.61,5l1.23,5.23c1.6,6.84-.61,17.23-2.24,20.89a6.58,6.58,0,0,0-.4,1.34l-.16.76-.76,0a42.12,42.12,0,0,0-11.34,2.35A22.82,22.82,0,0,1,78,209.48Z"/><path class="cls-7" d="M87.07,193.9c.21-11.26-8.84-20-19-21.74-2.11-.36-2.8-1-5.11-1l-1.77,0a10.79,10.79,0,0,0-10.64,10.92,2.69,2.69,0,0,0,2.72,2.65l18.21-.24,1.47,0-1.48,0c4,1.65,6.59,6.74,7.06,9.49a15.62,15.62,0,0,1-1,9.78,10.5,10.5,0,0,0-.79,5.54l.1,0a21.39,21.39,0,0,0,.52,3.11c1.7-1.21,4.33-3,4.81-3.29,1-.57,3.39-1.86,4.44-2.48C93.26,202.76,87,200.31,87.07,193.9Z"/><path class="cls-8" d="M76.68,214.16l-.35-1.44a22.29,22.29,0,0,1-.48-2.61l-.1,0-.06-.64a11.23,11.23,0,0,1,.88-6.09,14.74,14.74,0,0,0,1-9.16c-.39-2.25-2.63-7-6.29-8.66l-18,.24h-.05a3.7,3.7,0,0,1-3.69-3.64,11.81,11.81,0,0,1,11.63-11.93l1.77,0a9.58,9.58,0,0,1,3.45.54,12.31,12.31,0,0,0,1.84.46c9.8,1.68,20.08,10.22,19.85,22.75a11.85,11.85,0,0,0,1.46,5.4c1.23,2.62,2.49,5.32-2.48,8.26-1,.6-3.29,1.84-4.46,2.49-.38.2-2.79,1.86-4.7,3.23Zm.95-5.57h0l.14.7c0,.48.1,1,.19,1.49,1.46-1,3.22-2.23,3.66-2.47,1.17-.64,3.41-1.87,4.41-2.46,3.4-2,2.9-3.08,1.68-5.69a13.69,13.69,0,0,1-1.65-6.28h0c.21-11.41-9.21-19.2-18.18-20.74a15.25,15.25,0,0,1-2.09-.51,7.63,7.63,0,0,0-2.85-.46l-1.76,0a9.8,9.8,0,0,0-9.66,9.9,1.69,1.69,0,0,0,1.69,1.67h0l18.18-.24h1.49a1,1,0,0,1,.47.09l2.16,1.09-1.24.41a16.17,16.17,0,0,1,5.2,8.74,16.67,16.67,0,0,1-1.14,10.39A9.17,9.17,0,0,0,77.63,208.59Z"/><path class="cls-9" d="M81.47,207c-.11-1.74-.39-2.62-.21-3.34A27.89,27.89,0,0,0,82.63,194a13,13,0,0,0-6.28-10.7,7,7,0,0,0-4.9,1.26c4,1.65,6.59,6.74,7.06,9.49a15.62,15.62,0,0,1-1,9.78,10.5,10.5,0,0,0-.79,5.54s4.94,1.79,4.79-2.35"/><path class="cls-8" d="M78.86,210.21a8.08,8.08,0,0,1-2.35-.4l-.3-.11,0-.32a11.16,11.16,0,0,1,.84-5.82,15.2,15.2,0,0,0,1-9.47c-.49-2.86-3.12-7.61-6.76-9.11l-.81-.33.7-.53a7.09,7.09,0,0,1,5.46-1.29A13.51,13.51,0,0,1,83.13,194a28.53,28.53,0,0,1-1.35,9.72l0,.1a4.35,4.35,0,0,0,0,1.5c0,.46.12,1,.16,1.68h0a3,3,0,0,1-1.07,2.69A3.44,3.44,0,0,1,78.86,210.21ZM77.15,209c.8.23,2.33.49,3.16-.12A2,2,0,0,0,81,207c0-.65-.11-1.18-.16-1.62a4.94,4.94,0,0,1,0-1.87l0-.11A27.44,27.44,0,0,0,82.13,194a12.44,12.44,0,0,0-6-10.27,7,7,0,0,0-3.61.77c3.68,2,6,6.7,6.53,9.46A16.22,16.22,0,0,1,77.91,204,9.93,9.93,0,0,0,77.15,209Z"/><path class="cls-5" d="M55.54,173.1a3,3,0,0,1,1.83-2.66l1.61-.67s1.14,2.34-.11,2.95A4.77,4.77,0,0,1,55.54,173.1Z"/><path class="cls-8" d="M56.66,173.74a4.51,4.51,0,0,1-1.28-.17l-.33-.11v-.36A3.43,3.43,0,0,1,57.18,170l1.6-.67.44-.18.21.42a4.36,4.36,0,0,1,.42,2.76,1.47,1.47,0,0,1-.76.86A5.52,5.52,0,0,1,56.66,173.74Zm-.57-1a4.54,4.54,0,0,0,2.56-.43c.29-.14.37-.52.26-1.14a4.94,4.94,0,0,0-.2-.7l-1.14.48A2.4,2.4,0,0,0,56.09,172.7Z"/><path class="cls-5" d="M60.21,171.71a3.13,3.13,0,0,1,2.9-3,18.93,18.93,0,0,1,1.94-.06s.68,2.7-.84,3A14.41,14.41,0,0,1,60.21,171.71Z"/><path class="cls-8" d="M62.15,172.33a15.81,15.81,0,0,1-2-.12l-.44-.06v-.44A3.62,3.62,0,0,1,63,168.24c.56-.07,1.86-.06,2-.06h.39l.09.38a4.28,4.28,0,0,1-.19,2.9,1.52,1.52,0,0,1-1,.7A12.36,12.36,0,0,1,62.15,172.33Zm-1.38-1.06a13.51,13.51,0,0,0,3.35-.1.53.53,0,0,0,.38-.25,2.9,2.9,0,0,0,.14-1.74c-.49,0-1.16,0-1.46,0A2.63,2.63,0,0,0,60.77,171.27Z"/><path class="cls-5" d="M66,171.89s.34-2.85,2.9-2.1a3.59,3.59,0,0,1,1.72,1.14s-.49,2.17-1.5,1.94A19.44,19.44,0,0,1,66,171.89Z"/><path class="cls-8" d="M69.22,173.39l-.27,0a20.42,20.42,0,0,1-3.2-1l-.35-.15,0-.37a3.46,3.46,0,0,1,1.3-2.29,2.56,2.56,0,0,1,2.24-.23,4.05,4.05,0,0,1,2,1.32l.13.18,0,.23a3.88,3.88,0,0,1-1.19,2.16A1.25,1.25,0,0,1,69.22,173.39Zm-2.7-1.81a18.82,18.82,0,0,0,2.66.8.16.16,0,0,0,.14,0,2.76,2.76,0,0,0,.7-1.29,3.07,3.07,0,0,0-1.31-.79,1.64,1.64,0,0,0-1.41.1A2.19,2.19,0,0,0,66.52,171.58Z"/><path class="cls-5" d="M73.54,185.6s5.91-3.31,4.71-8.75A32.06,32.06,0,0,1,82,180.46c0,1.07.26,5.3-5.55,8.21A33.9,33.9,0,0,0,73.54,185.6Z"/><path class="cls-8" d="M76.32,189.28l-.26-.26c-.42-.42-.81-.88-1.19-1.33A10.2,10.2,0,0,0,73.24,186l-.63-.46.68-.38c.06,0,5.58-3.2,4.47-8.2l-.31-1.39,1.11.89a32.07,32.07,0,0,1,3.8,3.7l.11.13v.17c.06,3.81-1.9,6.69-5.83,8.66Zm-1.95-3.63a17.72,17.72,0,0,1,1.27,1.4c.28.33.58.68.88,1,4.94-2.62,5-6.15,5-7.42a29.32,29.32,0,0,0-2.56-2.56C79,182,75.75,184.7,74.37,185.65Z"/><path class="cls-9" d="M56.35,172.57a1.51,1.51,0,0,1,.94-1.37l.84-.35s.59,1.21-.06,1.52A2.44,2.44,0,0,1,56.35,172.57Z"/><path class="cls-9" d="M61.43,171.12a1.6,1.6,0,0,1,1.48-1.52,9.86,9.86,0,0,1,1,0s.35,1.38-.43,1.52A7.37,7.37,0,0,1,61.43,171.12Z"/><path class="cls-9" d="M66.86,171.67s.18-1.51,1.54-1.11a1.86,1.86,0,0,1,.91.6s-.25,1.16-.79,1A10,10,0,0,1,66.86,171.67Z"/><path class="cls-10" d="M65,177.85h.48a2.48,2.48,0,0,1,2.48,2.48v0a2.48,2.48,0,0,1-2.48,2.48H60a0,0,0,0,1,0,0v0a5,5,0,0,1,5-5Z" transform="translate(-2.26 0.82) rotate(-0.72)"/><path class="cls-5" d="M64,178.83h1a2,2,0,0,1,2,2v0a2,2,0,0,1-2,2H60.09a0,0,0,0,1,0,0v0a3.9,3.9,0,0,1,3.9-3.9Z" transform="matrix(1, -0.01, 0.01, 1, -2.27, 0.81)"/><path class="cls-8" d="M59.62,183.28v-.5A4.41,4.41,0,0,1,64,178.32h1a2.45,2.45,0,0,1,0,4.9Zm5.37-4H64a3.45,3.45,0,0,0-2.4,1,3.38,3.38,0,0,0-.93,1.92l4.35-.06h0a1.41,1.41,0,0,0,1-.44,1.44,1.44,0,0,0-1-2.46Z"/><circle class="cls-8" cx="62.07" cy="180.68" r="1.09"/><path class="cls-8" d="M53,183.94h0a1.35,1.35,0,0,0,.78-.49l.36-.47-.81.19-.48.11a.35.35,0,0,0-.26.41h0A.35.35,0,0,0,53,183.94Z"/><path class="cls-2" d="M74.54,185.69s4.56-2.52,4.43-7.5a9.26,9.26,0,0,1,2.53,2.33,8,8,0,0,1-1.4,3.59C78.43,186,76.67,186.55,74.54,185.69Z"/><path class="cls-5" d="M78.88,184.77a16.51,16.51,0,0,1-3.54,2.76"/><path class="cls-8" d="M75.57,188l-.46-.89a16.51,16.51,0,0,0,3.41-2.67l.72.69A16.94,16.94,0,0,1,75.57,188Z"/><path class="cls-7" d="M97.11,203.89l-1-2c-3.93-9.33-4.59-14.83-2.72-23.81l1.09-5.26a24.28,24.28,0,0,0,.51-5.25h0a10.65,10.65,0,0,0-10.77-10.5l-1.72,0A10.5,10.5,0,0,0,72.09,167.7V168a2.48,2.48,0,0,0,2.52,2.46l10.88-.14L84,179.81c-4.73,25.39-4.1,35.65,5.81,33.42"/><path class="cls-8" d="M87.34,214.53a6.07,6.07,0,0,1-4.43-1.66c-3.73-3.59-3.71-12.91.07-33.25l1.34-8.27-9.68.12h0A3.49,3.49,0,0,1,71.1,168v-.3a11.51,11.51,0,0,1,11.35-11.64l1.71,0a11.42,11.42,0,0,1,8.28,3.31,11.57,11.57,0,0,1,3.51,8.18,25.66,25.66,0,0,1-.53,5.46l-1.09,5.26c-1.83,8.78-1.23,14,2.66,23.22l1,1.93-1.78.93-1-2c-4.07-9.65-4.72-15.35-2.82-24.48l1.09-5.26a23.67,23.67,0,0,0,.49-5,9.64,9.64,0,0,0-9.63-9.51h-.13l-1.72,0a9.51,9.51,0,0,0-9.37,9.61v.3a1.5,1.5,0,0,0,1.49,1.48h0l12.06-.15L85,180c-2.51,13.47-4.54,27.72-.66,31.46,1.14,1.1,2.86,1.36,5.27.82L90,214.2A12,12,0,0,1,87.34,214.53Z"/><path class="cls-5" d="M77.22,158.41a3.26,3.26,0,0,1,2-2.6,2.73,2.73,0,0,1,1.44,0s1.07,1.64-.15,2.24A4.67,4.67,0,0,1,77.22,158.41Z"/><path class="cls-8" d="M78.31,159.05a4.33,4.33,0,0,1-1.25-.17l-.37-.12,0-.39a3.78,3.78,0,0,1,2.28-3,3.21,3.21,0,0,1,1.75,0l.19.05.1.16a2.84,2.84,0,0,1,.47,2,1.49,1.49,0,0,1-.82.94A5.41,5.41,0,0,1,78.31,159.05Zm-.5-1a4.41,4.41,0,0,0,2.45-.43.46.46,0,0,0,.28-.31,1.64,1.64,0,0,0-.23-1,1.81,1.81,0,0,0-.93,0A2.67,2.67,0,0,0,77.81,158Z"/><path class="cls-5" d="M81.57,157.74a3.56,3.56,0,0,1,3.29-3.37,8.61,8.61,0,0,1,1.39,0s1.58,3-.14,3.35A16.54,16.54,0,0,1,81.57,157.74Z"/><path class="cls-8" d="M83.77,158.38a17.93,17.93,0,0,1-2.27-.14l-.43-.06v-.44a4,4,0,0,1,3.72-3.86,9.13,9.13,0,0,1,1.49,0l.28,0,.13.25c.12.22,1.1,2.18.55,3.31a1.36,1.36,0,0,1-1,.76A13.73,13.73,0,0,1,83.77,158.38Zm-1.64-1.08a15.06,15.06,0,0,0,3.89-.11.35.35,0,0,0,.32-.21,3.38,3.38,0,0,0-.41-2.15,5.8,5.8,0,0,0-1,0A3,3,0,0,0,82.13,157.3Z"/><path class="cls-5" d="M87.42,158.33s.41-2.78,2.91-2A3.47,3.47,0,0,1,92,157.51s-.52,2.11-1.51,1.86A19.38,19.38,0,0,1,87.42,158.33Z"/><path class="cls-8" d="M90.62,159.89a1.43,1.43,0,0,1-.29,0,19.28,19.28,0,0,1-3.12-1.08l-.33-.15.05-.37A3.47,3.47,0,0,1,88.26,156a2.6,2.6,0,0,1,2.22-.17,4,4,0,0,1,1.9,1.35l.13.19-.05.22a3.81,3.81,0,0,1-1.23,2.09A1.25,1.25,0,0,1,90.62,159.89ZM88,158a21.1,21.1,0,0,0,2.57.85.14.14,0,0,0,.13,0,2.58,2.58,0,0,0,.71-1.23,3,3,0,0,0-1.25-.81,1.62,1.62,0,0,0-1.38.07A2.13,2.13,0,0,0,88,158Z"/><path class="cls-9" d="M78,208.15a4.82,4.82,0,0,1,1.78-.88"/><path class="cls-8" d="M78.32,208.55l-.61-.8a5.61,5.61,0,0,1,2-1l.25,1A4.42,4.42,0,0,0,78.32,208.55Z"/><path class="cls-9" d="M81.62,208.05c-1.87-7.2,1.16-21.05,1.71-24.45L85.49,170h1a2.34,2.34,0,0,1,2.12,2.67L87.1,184.44c-.52,4-.88,22.52,6.11,26.41,1.5.83,3.9.25,4.8-.2,3.28-1.62,4.18-5.75,4.86-9.07,1.41-6.89.18-12.27-.22-17.65l-.43-6.73a2.37,2.37,0,0,1,2.09-2.54h1.24L108,188.23c.72,3.87,2.62,17.29-5.22,23.69-.15.12,1.93.56,1.34,1.63-2.33,4.24-9.22,5-10.5,6.81-4.92,7,0,21.74,0,21.74a36,36,0,0,1-9.07-5.19c-8.14-7.11-9.29-17.54-9.36-20.61-.1-3.68.84-6,2-7.35"/><path class="cls-8" d="M94.34,243l-1-.38a36.07,36.07,0,0,1-9.22-5.28c-8.77-7.66-9.48-18.82-9.53-21-.09-3.34.63-5.92,2.13-7.69l.77.65c-1.32,1.55-2,4-1.9,7,0,1.28.55,12.71,9.19,20.26a33.38,33.38,0,0,0,8,4.69c-1-3.51-3.88-15,.42-21.16.58-.82,1.92-1.37,3.62-2.06,2.45-1,5.51-2.25,6.85-4.7.06-.11,0-.15,0-.17-.08-.23-.66-.49-.88-.59s-.53-.24-.57-.55l0-.27.22-.19c7.55-6.16,5.77-19.33,5-23.22l-2.34-13.17h-.81a1.5,1.5,0,0,0-1,.51,2.09,2.09,0,0,0-.55,1.5l.43,6.73c.09,1.22.23,2.45.36,3.7.47,4.27,1,8.69-.15,14.08-.66,3.23-1.57,7.67-5.13,9.42-.93.46-3.54,1.14-5.26.19-7.51-4.17-6.81-23.53-6.36-26.92l1.54-11.83a2,2,0,0,0-.51-1.56,1.54,1.54,0,0,0-1.12-.54h-.6l-2.1,13.22c-.07.47-.19,1.12-.33,1.92-.89,4.85-3,16.21-1.39,22.33l-1,.25c-1.64-6.33.39-17.43,1.37-22.76.15-.79.26-1.44.34-1.89l2.23-14.06,1.44,0a2.5,2.5,0,0,1,1.88.88,3,3,0,0,1,.75,2.35L87.6,184.5c-.61,4.66-.7,22.28,5.86,25.92,1.28.71,3.48.2,4.33-.22,3.12-1.54,4-5.69,4.59-8.72,1.08-5.24.6-9.58.14-13.78-.14-1.25-.28-2.49-.37-3.73l-.43-6.74a3.06,3.06,0,0,1,.82-2.24,2.44,2.44,0,0,1,1.76-.83l1.67,0,2.48,14c.73,3.92,2.49,17-4.84,23.68a1.9,1.9,0,0,1,1,1,1.21,1.21,0,0,1-.11,1c-1.52,2.76-4.75,4.08-7.35,5.14-1.43.58-2.77,1.13-3.18,1.72-4.72,6.72,0,21.15,0,21.29Z"/><path class="cls-5" d="M147,213.25a3,3,0,0,0,.47-3,2.63,2.63,0,0,0-.92-1s-1.78.34-1.39,1.54A4.27,4.27,0,0,0,147,213.25Z"/><path class="cls-8" d="M147.12,213.88l-.35-.19a4.79,4.79,0,0,1-2.08-2.68,1.36,1.36,0,0,1,.11-1.17,2.7,2.7,0,0,1,1.66-1l.19,0,.16.1a2.87,2.87,0,0,1,1.12,1.2,3.5,3.5,0,0,1-.55,3.48Zm-.67-4a1.53,1.53,0,0,0-.79.49.38.38,0,0,0,0,.35,4,4,0,0,0,1.23,1.85,2.43,2.43,0,0,0,.13-2.09A1.82,1.82,0,0,0,146.45,209.86Z"/><path class="cls-9" d="M146.6,211.5a1.07,1.07,0,0,0,.17-1.05.88.88,0,0,0-.32-.33s-.63.12-.49.54A1.54,1.54,0,0,0,146.6,211.5Z"/><path class="cls-5" d="M137.76,222.44a3.31,3.31,0,0,1,1.45-4.14,7.38,7.38,0,0,1,1.17-.57s2.52,1.94,1.19,2.88A15.46,15.46,0,0,1,137.76,222.44Z"/><path class="cls-8" d="M137.49,223l-.19-.4a3.81,3.81,0,0,1,1.64-4.76,9.06,9.06,0,0,1,1.25-.62l.27-.1.22.17c.3.23,1.8,1.45,1.77,2.62a1.29,1.29,0,0,1-.59,1.07,15.33,15.33,0,0,1-4,1.89Zm2.8-4.73a5.54,5.54,0,0,0-.8.41,2.79,2.79,0,0,0-1.41,3.08,14.52,14.52,0,0,0,3.2-1.6.3.3,0,0,0,.17-.27C141.46,219.49,140.84,218.78,140.29,218.31Z"/><path class="cls-9" d="M138.65,221.49a1.83,1.83,0,0,1,.81-2.29,4.28,4.28,0,0,1,.64-.32s1.4,1.08.66,1.6A8.54,8.54,0,0,1,138.65,221.49Z"/><path class="cls-5" d="M145.57,214.22s1.9,1.63.12,3.13A3.11,3.11,0,0,1,144,218s-1.34-1.4-.68-2A17.74,17.74,0,0,1,145.57,214.22Z"/><path class="cls-8" d="M143.83,218.55l-.16-.16a3.4,3.4,0,0,1-1-2,1,1,0,0,1,.34-.78,17.67,17.67,0,0,1,2.29-1.85l.32-.2.28.24a3.13,3.13,0,0,1,1,2.1,2.31,2.31,0,0,1-.94,1.79,3.62,3.62,0,0,1-1.95.81Zm1.68-3.67a17,17,0,0,0-1.82,1.5,2.07,2.07,0,0,0,.54,1.13,2.73,2.73,0,0,0,1.14-.54,1.37,1.37,0,0,0,.58-1A1.74,1.74,0,0,0,145.51,214.88Z"/><path class="cls-9" d="M145.32,215.4s.84.72.05,1.38a1.36,1.36,0,0,1-.74.31s-.59-.62-.3-.9A6.82,6.82,0,0,1,145.32,215.4Z"/><path class="cls-5" d="M128.75,223.85a2.55,2.55,0,0,1,1.77-3.1c2.42-.91,3.08-.19,3.08-.19s1.37,2.25.18,3S128.75,223.85,128.75,223.85Z"/><path class="cls-8" d="M131.06,224.48c-1.13,0-2.16-.11-2.36-.13l-.33,0-.1-.32a3,3,0,0,1,2.08-3.71c2.59-1,3.47-.22,3.62-.05.66,1.06,1.34,3,.07,3.74A6.44,6.44,0,0,1,131.06,224.48Zm-1.88-1.09c1.45.13,3.64.17,4.33-.27s0-1.73-.29-2.22c-.16-.08-.83-.32-2.52.32A2,2,0,0,0,129.18,223.39Z"/><path class="cls-9" d="M129.89,223.34a1.33,1.33,0,0,1,.92-1.62c1.25-.47,1.6-.09,1.6-.09s.71,1.16.09,1.55A6.52,6.52,0,0,1,129.89,223.34Z"/><path class="cls-5" d="M85,173.28a11.74,11.74,0,0,0,9.32.09c-.36,1.7-1.07,5.1-1.07,5.1s-5,1.61-9-.79C84.68,175.44,85,173.28,85,173.28Z"/><path class="cls-8" d="M89.46,179.51a10.27,10.27,0,0,1-5.41-1.4l-.29-.18.06-.33c.37-2.24.69-4.39.69-4.4l.11-.7.62.34a11.41,11.41,0,0,0,8.91.07l.85-.32-.18.89c-.36,1.69-1.08,5.1-1.08,5.1l-.06.28-.27.09A14,14,0,0,1,89.46,179.51Zm-4.6-2.09c3.12,1.73,6.93.93,8,.65.15-.7.53-2.53.83-3.94A12.4,12.4,0,0,1,85.4,174C85.28,174.75,85.08,176.05,84.86,177.42Z"/><path class="cls-5" d="M113.86,163.07a3.31,3.31,0,0,0-2-2.57,10.27,10.27,0,0,0-2.09-.26s-.4,2,.85,2.55A4.67,4.67,0,0,0,113.86,163.07Z"/><path class="cls-8" d="M112.64,163.75a5.52,5.52,0,0,1-2.28-.51c-1.6-.72-1.15-3-1.13-3.09l.08-.42h.42a10.11,10.11,0,0,1,2.26.3,3.78,3.78,0,0,1,2.37,3l0,.39-.37.14A4.62,4.62,0,0,1,112.64,163.75Zm-2.48-3c0,.5,0,1.3.62,1.56a4.36,4.36,0,0,0,2.48.37,2.73,2.73,0,0,0-1.63-1.73A6.84,6.84,0,0,0,110.16,160.77Z"/><path class="cls-5" d="M109.17,162.18a3.1,3.1,0,0,0-2.94-2.86,7.27,7.27,0,0,0-1.21,0s-1.31,2.68.19,2.91A14.27,14.27,0,0,0,109.17,162.18Z"/><path class="cls-8" d="M106.88,162.85a11.7,11.7,0,0,1-1.75-.12,1.29,1.29,0,0,1-1-.67c-.51-1,.25-2.64.41-3l.12-.25.28,0a8.75,8.75,0,0,1,1.32,0,3.59,3.59,0,0,1,3.37,3.35l0,.44-.44.07A16.47,16.47,0,0,1,106.88,162.85Zm-1.53-3a2.93,2.93,0,0,0-.3,1.8s.06.11.24.14a13.47,13.47,0,0,0,3.3,0,2.6,2.6,0,0,0-2.42-1.94A5.75,5.75,0,0,0,105.35,159.8Z"/><path class="cls-5" d="M103.77,162.44s-.48-2.79-3-1.93a3.55,3.55,0,0,0-1.63,1.21s.58,2.12,1.58,1.84A18.91,18.91,0,0,0,103.77,162.44Z"/><path class="cls-8" d="M100.57,164.09a1.27,1.27,0,0,1-.59-.16,3.79,3.79,0,0,1-1.29-2.07l-.06-.23.13-.19a4,4,0,0,1,1.88-1.4,2.56,2.56,0,0,1,2.23.12,3.45,3.45,0,0,1,1.4,2.19l.06.37-.33.16a19.37,19.37,0,0,1-3.12,1.16A1.12,1.12,0,0,1,100.57,164.09Zm-.84-2.26a2.58,2.58,0,0,0,.74,1.23.15.15,0,0,0,.14,0,19.83,19.83,0,0,0,2.57-.92,2.07,2.07,0,0,0-.82-1.14,1.62,1.62,0,0,0-1.39,0A3.1,3.1,0,0,0,99.73,161.83Z"/><path class="cls-9" d="M78.17,157.93a1.74,1.74,0,0,1,1.06-1.39,1.5,1.5,0,0,1,.76,0s.58.87-.08,1.19A2.5,2.5,0,0,1,78.17,157.93Z"/><path class="cls-9" d="M82.64,157.24a2.23,2.23,0,0,1,2.06-2.11,5.47,5.47,0,0,1,.87,0s1,1.9-.09,2.1A10.5,10.5,0,0,1,82.64,157.24Z"/><path class="cls-9" d="M88.5,158s.23-1.61,1.67-1.15a2,2,0,0,1,1,.67s-.3,1.22-.87,1.08A10.76,10.76,0,0,1,88.5,158Z"/><path class="cls-9" d="M112.94,162.61a1.76,1.76,0,0,0-1.09-1.36,5.29,5.29,0,0,0-1.1-.13s-.22,1,.45,1.34A2.5,2.5,0,0,0,112.94,162.61Z"/><path class="cls-9" d="M108.05,161.75a1.7,1.7,0,0,0-1.62-1.58,3.36,3.36,0,0,0-.67,0s-.72,1.48.11,1.61A8,8,0,0,0,108.05,161.75Z"/><path class="cls-9" d="M102.78,162.26s-.27-1.53-1.63-1a1.91,1.91,0,0,0-.89.66s.32,1.16.86,1A10.33,10.33,0,0,0,102.78,162.26Z"/><path class="cls-5" d="M96.64,177.93a27.08,27.08,0,0,0,9.35-.49c.48,2.47.79,4.34.79,4.34s-3.14,2.19-9,1C97.05,179.62,96.64,177.93,96.64,177.93Z"/><path class="cls-8" d="M101.14,183.64a18,18,0,0,1-3.46-.35l-.32-.07-.07-.31c-.73-3.17-1.14-4.86-1.14-4.86l-.17-.72.73.1a26.88,26.88,0,0,0,9.16-.47l.51-.14.1.53c.48,2.48.79,4.35.79,4.35l0,.31-.26.18A10.77,10.77,0,0,1,101.14,183.64Zm-3-1.27a12.43,12.43,0,0,0,8-.85c-.1-.58-.33-1.87-.63-3.47a27.4,27.4,0,0,1-8.31.46C97.47,179.24,97.77,180.54,98.19,182.37Z"/><path class="cls-10" d="M102,168h5.45a2.48,2.48,0,0,1,2.48,2.48v0a2.48,2.48,0,0,1-2.48,2.48H107a5,5,0,0,1-5-5v0a0,0,0,0,1,0,0Z" transform="translate(214.06 339.68) rotate(179.28)"/><path class="cls-5" d="M103,169h4.76a2.09,2.09,0,0,1,2.09,2.09v0A1.81,1.81,0,0,1,108,172.9h-1.13A3.9,3.9,0,0,1,103,169v0a0,0,0,0,1,0,0Z" transform="translate(214.97 340.54) rotate(179.28)"/><path class="cls-8" d="M105.08,173.41a2.58,2.58,0,0,1-2.59-2.55,2.32,2.32,0,0,1,2.29-2.35H106a4.4,4.4,0,0,1,4.4,4.35v.5l-5.26.06h0Zm.88-3.91h-1.17a1.36,1.36,0,0,0-.93.4,1.33,1.33,0,0,0-.37.93A1.62,1.62,0,0,0,104,172a1.58,1.58,0,0,0,1.11.45h0l4.22,0A3.43,3.43,0,0,0,106,169.5Z"/><circle class="cls-8" cx="108.07" cy="171.48" r="1.09"/><path class="cls-10" d="M85.1,163.59h.48a2.48,2.48,0,0,1,2.48,2.48v0a2.48,2.48,0,0,1-2.48,2.48H80.13a0,0,0,0,1,0,0v0A5,5,0,0,1,85.1,163.59Z" transform="translate(-2.08 1.07) rotate(-0.72)"/><path class="cls-5" d="M84.14,164.57h1a2,2,0,0,1,2,2v0a2,2,0,0,1-2,2H80.23a0,0,0,0,1,0,0v0A3.9,3.9,0,0,1,84.14,164.57Z" transform="translate(-2.09 1.06) rotate(-0.72)"/><path class="cls-8" d="M79.77,169v-.5a4.4,4.4,0,0,1,4.35-4.46h1a2.45,2.45,0,0,1,.06,4.9Zm5.36-4h-1a3.45,3.45,0,0,0-2.4,1,3.38,3.38,0,0,0-.93,1.92l4.36-.06a1.45,1.45,0,0,0,0-2.9Z"/><circle class="cls-8" cx="82.31" cy="166.54" r="1.09"/><path class="cls-8" d="M116.53,174h0a1.37,1.37,0,0,1-.79-.47l-.37-.46.82.17.48.09a.35.35,0,0,1,.26.41h0A.33.33,0,0,1,116.53,174Z"/><path class="cls-8" d="M74.46,169.43h0a1.36,1.36,0,0,0,.78-.5l.36-.46-.81.18-.48.11a.35.35,0,0,0-.26.41h0A.36.36,0,0,0,74.46,169.43Z"/><path class="cls-2" d="M85.48,174a11.92,11.92,0,0,0,8.15.05,34.69,34.69,0,0,1-.76,3.63,20.3,20.3,0,0,1-4.1-.12C86.44,177.11,85.51,176.06,85.48,174Z"/><path class="cls-5" d="M91.16,177a13.9,13.9,0,0,1-6.56-1.09"/><path class="cls-8" d="M90.11,177.53a13.25,13.25,0,0,1-5.74-1.19l.45-.89a13.51,13.51,0,0,0,6.3,1l.09,1S90.75,177.53,90.11,177.53Z"/><path class="cls-2" d="M104.25,178.37a16.81,16.81,0,0,1-6.77.48,25.94,25.94,0,0,0,1,3.09S103.19,181.25,104.25,178.37Z"/><path class="cls-9" d="M102.74,212s-.22.16-.53.35"/><path class="cls-8" d="M102.35,212.54l-.27-.43a5.37,5.37,0,0,0,.51-.34l.3.41Z"/><path class="cls-5" d="M104.61,179.73a27.76,27.76,0,0,1-7.47.32"/><path class="cls-8" d="M99.62,180.68a24.65,24.65,0,0,1-2.53-.13l.11-1a27.41,27.41,0,0,0,7.31-.32l.2,1A28.43,28.43,0,0,1,99.62,180.68Z"/><path class="cls-5" d="M99.61,254.35a1.75,1.75,0,0,0-2.24.29c-1.15,1-2,2.47-1.49,2.61a5.46,5.46,0,0,0,2.42.09c.84-.17,1.58,0,1.9-1.78A1.19,1.19,0,0,0,99.61,254.35Z"/><path class="cls-8" d="M97.31,257.68a5.64,5.64,0,0,1-1.49-.19.44.44,0,0,1-.33-.34c-.14-.62.8-1.92,1.72-2.7a2,2,0,0,1,2.53-.31,1.42,1.42,0,0,1,.7,1.47c-.3,1.7-1,1.81-1.78,1.92l-.31.05A4.87,4.87,0,0,1,97.31,257.68Zm1.43-3.35a1.84,1.84,0,0,0-1.21.51A4.13,4.13,0,0,0,96,257a6,6,0,0,0,2.27,0l.34,0c.67-.1,1.12-.17,1.36-1.52a.91.91,0,0,0-.46-1l0,0A1.18,1.18,0,0,0,98.74,254.33Z"/><path class="cls-2" d="M99.39,254.64a1.08,1.08,0,0,0-1.39.18c-.72.61-1.25,1.54-.92,1.62a3.38,3.38,0,0,0,1.5.06c.52-.1,1,0,1.18-1.11A.73.73,0,0,0,99.39,254.64Z"/><path class="cls-5" d="M101,254.32c.51-.08,1.25,1,1.18,1.35s-.13,1.45-1,1.58c-.6.1-2.76.35-3.24-.11S98.35,254.7,101,254.32Z"/><path class="cls-8" d="M99.34,257.66a2.51,2.51,0,0,1-1.55-.34.94.94,0,0,1-.11-1,3.87,3.87,0,0,1,3.26-2.29h0a1.1,1.1,0,0,1,.9.46c.27.29.63.85.55,1.2,0,0,0,.11,0,.18-.08.47-.24,1.45-1.12,1.59A14.45,14.45,0,0,1,99.34,257.66Zm1.67-3.1a3.36,3.36,0,0,0-2.86,1.95c-.08.27,0,.42,0,.45.3.29,2,.22,3,0,.48-.07.62-.64.7-1.17,0-.09,0-.16,0-.21a1.68,1.68,0,0,0-.51-.84c-.18-.17-.3-.22-.38-.22Z"/><path class="cls-2" d="M101.12,254.62c.3,0,.74.6.69.8s-.07.86-.56.93-1.62.21-1.91-.07S99.57,254.85,101.12,254.62Z"/><path class="cls-5" d="M103.12,254.5s-.44-.22-1.3.29-1.9,1.16-1.59,2,2.74.51,3.27.32a1.19,1.19,0,0,0,.77-1.29A1.69,1.69,0,0,0,103.12,254.5Z"/><path class="cls-8" d="M101.75,257.63c-.78,0-1.55-.16-1.75-.72-.4-1.11,1-1.94,1.69-2.34a1.71,1.71,0,0,1,1.52-.3,1.91,1.91,0,0,1,1.3,1.53,1.44,1.44,0,0,1-.92,1.58A7,7,0,0,1,101.75,257.63Zm1.09-2.92a1.82,1.82,0,0,0-.89.29c-.86.51-1.71,1.11-1.48,1.74s2.32.39,3,.17a.94.94,0,0,0,.6-1,1.4,1.4,0,0,0-1-1.15l0,0A.83.83,0,0,0,102.84,254.71Z"/><path class="cls-2" d="M103.29,254.81s-.26-.13-.77.17-1.12.69-.94,1.2,1.62.31,1.94.19a.69.69,0,0,0,.45-.76A1,1,0,0,0,103.29,254.81Z"/><path class="cls-7" d="M92.64,226.82a64.69,64.69,0,0,1-.76,14.46c-1.22,8.23-3.55,10.84-3.35,13,.16,1.65.87,3.15,2.53,3.13l4.94-.06a5.38,5.38,0,0,0,5-3.72,36.94,36.94,0,0,0,1.5-7.2,92.3,92.3,0,0,0,.09-10.67"/><path class="cls-8" d="M91,258.38c-2,0-3.25-1.5-3.49-4a8.78,8.78,0,0,1,.89-3.79,42.49,42.49,0,0,0,2.47-9.42,63.78,63.78,0,0,0,.74-14.21l2-.2a64.67,64.67,0,0,1-.76,14.71,44.26,44.26,0,0,1-2.57,9.82,7.92,7.92,0,0,0-.77,2.91c.1,1,.43,2.22,1.5,2.22h0l4.94-.06a4.35,4.35,0,0,0,4.09-3,35.19,35.19,0,0,0,1.46-7,87.11,87.11,0,0,0,.09-10.52l2-.08a89.77,89.77,0,0,1-.1,10.79,37,37,0,0,1-1.54,7.43,6.39,6.39,0,0,1-6,4.41l-4.94.06Z"/><path class="cls-7" d="M118,230.22a7.8,7.8,0,0,0-2.39,5.86c0,2.83,1.73,6.41.75,11.13-.87,4.2-2.71,5-2.1,8.71a1.39,1.39,0,0,0,1.41,1.15l5.5-.07a5.18,5.18,0,0,0,5.06-4.4,51.32,51.32,0,0,0-.85-17.8"/><path class="cls-8" d="M115.66,258.07a2.4,2.4,0,0,1-2.38-2,8.39,8.39,0,0,1,.89-5.49,16.23,16.23,0,0,0,1.22-3.58,18.06,18.06,0,0,0-.31-7.58,19.73,19.73,0,0,1-.47-3.33,8.83,8.83,0,0,1,2.74-6.63l1.33,1.5a6.76,6.76,0,0,0-2.07,5.09,17.86,17.86,0,0,0,.44,3,20,20,0,0,1,.3,8.36,18.26,18.26,0,0,1-1.35,4,6.54,6.54,0,0,0-.75,4.36.38.38,0,0,0,.41.31l5.51-.07a4.18,4.18,0,0,0,4.09-3.55,50.75,50.75,0,0,0-.85-17.46l2-.38a52.29,52.29,0,0,1,.86,18.14,6.16,6.16,0,0,1-6,5.25l-5.5.07Z"/><polygon class="cls-8" points="119.41 237.47 117.52 236.57 119.37 235.05 120.16 235.31 120.01 235.78 119.47 235.61 118.45 236.45 119.37 236.9 119.91 236.54 119.55 236.47 119.32 236.64 119.03 236.24 119.44 235.94 121.18 236.31 119.41 237.47"/><path class="cls-5" d="M89.62,254.48a1.74,1.74,0,0,0-2.24.29c-1.15,1-2,2.47-1.49,2.61a5.6,5.6,0,0,0,2.41.08c.84-.16,1.59,0,1.9-1.77A1.17,1.17,0,0,0,89.62,254.48Z"/><path class="cls-8" d="M87.31,258.06a6.15,6.15,0,0,1-1.55-.2.71.71,0,0,1-.51-.53c-.18-.82,1-2.24,1.81-2.94a2.25,2.25,0,0,1,2.83-.33,1.64,1.64,0,0,1,.81,1.72c-.32,1.74-1.09,2-2,2.12l-.31.05A5.44,5.44,0,0,1,87.31,258.06Zm-1-1.1a5.05,5.05,0,0,0,1.93,0l.35-.05c.63-.1.94-.14,1.15-1.32a.65.65,0,0,0-.33-.68l-.07,0c-.08-.06-.71-.47-1.61.28A5.33,5.33,0,0,0,86.28,257Z"/><path class="cls-2" d="M89.4,254.76A1.08,1.08,0,0,0,88,255c-.72.6-1.25,1.53-.93,1.62a3.41,3.41,0,0,0,1.5.05c.53-.1,1,0,1.19-1.1A.75.75,0,0,0,89.4,254.76Z"/><polygon class="cls-8" points="97.44 242.66 95.1 242.52 94.75 240.29 96.91 239.59 97.07 240.06 95.31 240.63 95.53 242.04 97.22 242.15 97.86 241.38 97.01 240.92 96.5 241.08 96.87 241.48 96.5 241.82 95.59 240.83 97.07 240.38 98.64 241.23 97.44 242.66"/><g class="cls-11"><path class="cls-9" d="M54.61,181a.67.67,0,0,1-.67-.65h.25a.42.42,0,0,0,.42.41h0a.41.41,0,0,0,.41-.42h.25a.66.66,0,0,1-.66.67Z"/><path class="cls-9" d="M53.53,181a.67.67,0,0,1-.46-.18.65.65,0,0,1-.2-.47h.25a.41.41,0,0,0,.13.29.39.39,0,0,0,.28.11h0a.4.4,0,0,0,.29-.12.44.44,0,0,0,.11-.29h.25a.7.7,0,0,1-.18.48.68.68,0,0,1-.47.19Z"/><path class="cls-9" d="M54.07,181.52a.67.67,0,0,1-.46-.18.74.74,0,0,1-.2-.47h.25a.46.46,0,0,0,.13.29.43.43,0,0,0,.28.11h0a.41.41,0,0,0,.41-.41h.25a.67.67,0,0,1-.19.47.65.65,0,0,1-.47.2Z"/><path class="cls-9" d="M75,179.81a.89.89,0,0,1-.47-.14l.12-.21a.67.67,0,0,0,.92-.23.66.66,0,0,0-.23-.91l.13-.21a.91.91,0,0,1,.31,1.25A.9.9,0,0,1,75,179.81Z"/><path class="cls-9" d="M75.27,180.89a.91.91,0,0,1-.48-.13l.13-.22a.67.67,0,0,0,.92-.22.67.67,0,0,0-.23-.91l.13-.22a.93.93,0,0,1,.31,1.26A.93.93,0,0,1,75.27,180.89Z"/><path class="cls-9" d="M101,198.08a.82.82,0,0,1-.59-.24.83.83,0,0,1-.25-.59h.25a.56.56,0,0,0,.18.42.58.58,0,0,0,.41.17h0a.56.56,0,0,0,.42-.18.54.54,0,0,0,.16-.42h.25a.85.85,0,0,1-.23.6.84.84,0,0,1-.6.25Z"/><path class="cls-9" d="M99.52,198.1a.83.83,0,0,1-.58-.24.8.8,0,0,1-.26-.59h.25a.6.6,0,0,0,.18.42.63.63,0,0,0,.42.17.61.61,0,0,0,.59-.6h.25a.86.86,0,0,1-.84.86Z"/><path class="cls-9" d="M100.25,198.81a.87.87,0,0,1-.59-.24.83.83,0,0,1-.25-.59h.25a.56.56,0,0,0,.18.42.58.58,0,0,0,.41.17h0a.6.6,0,0,0,.42-.18.59.59,0,0,0,.17-.42h.25a.87.87,0,0,1-.24.6.81.81,0,0,1-.6.26Z"/><path class="cls-9" d="M80.07,243.88a.84.84,0,0,1-.84-.83h.25a.59.59,0,0,0,.59.59h0a.6.6,0,0,0,.58-.6h.25a.84.84,0,0,1-.83.86Z"/><path class="cls-9" d="M78.63,243.9a.87.87,0,0,1-.59-.24.84.84,0,0,1-.25-.6H78a.6.6,0,0,0,.18.42.58.58,0,0,0,.41.17h0a.64.64,0,0,0,.42-.18.63.63,0,0,0,.17-.42h.25a.83.83,0,0,1-.24.6.89.89,0,0,1-.6.26Z"/><path class="cls-9" d="M79.36,244.61a.87.87,0,0,1-.59-.24.84.84,0,0,1-.25-.6h.25a.56.56,0,0,0,.18.42.57.57,0,0,0,.41.17h0a.59.59,0,0,0,.58-.61h.25a.84.84,0,0,1-.83.86Z"/><path class="cls-9" d="M99.63,175.26A.9.9,0,0,1,99,175a.91.91,0,0,1-.27-.64H99a.63.63,0,0,0,.2.46.66.66,0,0,0,.46.19h0a.67.67,0,0,0,.66-.67h.25a.92.92,0,0,1-.91.92Z"/><path class="cls-9" d="M98.85,176.06a.9.9,0,0,1-.64-.26.91.91,0,0,1-.27-.64h.25a.63.63,0,0,0,.2.47.66.66,0,0,0,.46.19h0a.65.65,0,0,0,.47-.2.68.68,0,0,0,.19-.47h.25a.94.94,0,0,1-.26.65.91.91,0,0,1-.65.27Z"/><path class="cls-9" d="M89.88,189.5a1.06,1.06,0,0,1-.75-.31,1,1,0,0,1-.33-.76h.25a.82.82,0,0,0,.83.82h0a.84.84,0,0,0,.83-.84H91a1.13,1.13,0,0,1-.31.78,1.07,1.07,0,0,1-.76.32Z"/><path class="cls-9" d="M88.94,190.47a1.1,1.1,0,0,1-.76-.3,1.13,1.13,0,0,1-.33-.77h.25a.83.83,0,0,0,.25.59.86.86,0,0,0,.59.23h0a.82.82,0,0,0,.82-.84H90a1.08,1.08,0,0,1-1.07,1.1Z"/><path class="cls-9" d="M75.33,165.51a.79.79,0,0,1-.54-.22.76.76,0,0,1-.23-.54h.25a.48.48,0,0,0,.16.36.49.49,0,0,0,.36.15h0a.52.52,0,0,0,.37-.16.51.51,0,0,0,.15-.37h.25a.8.8,0,0,1-.22.55.78.78,0,0,1-.54.23Z"/><path class="cls-9" d="M74.69,166.16a.75.75,0,0,1-.53-.22.74.74,0,0,1-.23-.54h.25a.53.53,0,0,0,.15.36.51.51,0,0,0,.36.15h0a.52.52,0,0,0,.37-.16.54.54,0,0,0,.14-.36h.25a.75.75,0,0,1-.22.55.76.76,0,0,1-.54.23Z"/><path class="cls-9" d="M136.46,229.07h-.06a.89.89,0,0,1-.6-.3l.19-.16a.63.63,0,0,0,.42.21.62.62,0,0,0,.51-1l.19-.16a.87.87,0,0,1-.09,1.22A.83.83,0,0,1,136.46,229.07Z"/><path class="cls-9" d="M136.39,230.11a.85.85,0,0,1-.66-.3l.19-.16a.63.63,0,0,0,.87.06.61.61,0,0,0,.06-.86l.19-.17a.87.87,0,0,1-.09,1.22A.85.85,0,0,1,136.39,230.11Z"/><path class="cls-9" d="M107.19,219.48a1,1,0,0,1-.9-.57l.23-.1a.75.75,0,0,0,.42.38.77.77,0,0,0,.56,0,.73.73,0,0,0,.39-.42.8.8,0,0,0,0-.57l.23-.1a1,1,0,0,1,0,.75,1,1,0,0,1-.93.66Z"/><path class="cls-9" d="M105.62,220.22a1,1,0,0,1-.9-.57l.23-.11a.73.73,0,0,0,.42.39.8.8,0,0,0,.57,0,.75.75,0,0,0,.38-.42.71.71,0,0,0,0-.57l.23-.1a1,1,0,0,1,0,.75,1,1,0,0,1-.93.66Z"/><path class="cls-9" d="M106.78,220.64a1,1,0,0,1-.9-.57l.22-.11a.74.74,0,0,0,1,.35.73.73,0,0,0,.35-1l.23-.11a1,1,0,0,1-.47,1.32A1.07,1.07,0,0,1,106.78,220.64Z"/><path class="cls-9" d="M105.21,221.37a1,1,0,0,1-.9-.56l.23-.11a.73.73,0,0,0,1,.35.74.74,0,0,0,.36-1l.22-.11a1,1,0,0,1-.47,1.32A1.06,1.06,0,0,1,105.21,221.37Z"/><path class="cls-9" d="M107.93,221.05a1,1,0,0,1-.9-.57l.23-.11a.73.73,0,0,0,.42.39.77.77,0,0,0,.56,0,.73.73,0,0,0,.36-1l.22-.11a1,1,0,0,1,0,.76,1,1,0,0,1-.51.56A.92.92,0,0,1,107.93,221.05Z"/><path class="cls-9" d="M91.58,172a1,1,0,0,1-1-1h.25a.76.76,0,0,0,.75.74h0a.75.75,0,0,0,.53-.22.7.7,0,0,0,.21-.53h.25a.94.94,0,0,1-.28.71,1,1,0,0,1-.7.3Z"/><path class="cls-9" d="M91.7,205.08a1,1,0,0,1-1-1H91a.75.75,0,0,0,.75.74h0a.75.75,0,0,0,.74-.76h.25a1,1,0,0,1-1,1Z"/><path class="cls-9" d="M101.16,186.53a.74.74,0,0,1-.54-.23.76.76,0,0,1-.24-.55h.25a.53.53,0,0,0,.16.38.59.59,0,0,0,.38.16.54.54,0,0,0,.53-.55H102a.79.79,0,0,1-.77.8Z"/><path class="cls-9" d="M116.59,171.11a.62.62,0,0,1-.62-.62h.25a.38.38,0,0,0,.37.37h0a.39.39,0,0,0,.27-.11.38.38,0,0,0,.1-.27h.25a.62.62,0,0,1-.18.44.59.59,0,0,1-.43.19Z"/><path class="cls-9" d="M122,244.38a1,1,0,0,1-1-.82l.25-.05a.75.75,0,0,0,.88.6.77.77,0,0,0,.48-.31.74.74,0,0,0,.11-.56l.25-.05a1,1,0,0,1-.8,1.17Z"/><path class="cls-9" d="M98,251.35a1.08,1.08,0,0,1-1.09-1.07h.25a.89.89,0,0,0,.26.59.82.82,0,0,0,.58.23h0a.82.82,0,0,0,.82-.84h.25A1.08,1.08,0,0,1,98,251.35Z"/><path class="cls-9" d="M97.08,252.33a1.1,1.1,0,0,1-.76-.31,1.12,1.12,0,0,1-.32-.77h.25a.83.83,0,0,0,.25.59.83.83,0,0,0,.58.24h0a.89.89,0,0,0,.59-.26.81.81,0,0,0,.23-.59h.25a1.06,1.06,0,0,1-.3.77,1.13,1.13,0,0,1-.77.33Z"/></g><path class="cls-5" d="M91,254.44c.51-.07,1.25,1,1.17,1.36s-.12,1.45-.94,1.58c-.61.09-2.76.35-3.24-.12S88.36,254.83,91,254.44Z"/><path class="cls-8" d="M89.38,258a2.75,2.75,0,0,1-1.76-.42,1.14,1.14,0,0,1-.17-1.21A4,4,0,0,1,90.91,254h0a1.28,1.28,0,0,1,1.12.54,1.93,1.93,0,0,1,.61,1.42s0,.1,0,.16c-.08.49-.27,1.63-1.32,1.8A12.45,12.45,0,0,1,89.38,258Zm1.65-3.1a3.41,3.41,0,0,0-2.43,1.37,1.09,1.09,0,0,0-.24.66,8.6,8.6,0,0,0,2.77-.09c.32-.05.42-.52.49-1,0-.09,0-.17,0-.23A1.94,1.94,0,0,0,91,254.94Z"/><path class="cls-2" d="M91.13,254.75c.3-.05.73.6.69.8s-.07.85-.56.93-1.63.2-1.91-.07S89.58,255,91.13,254.75Z"/><path class="cls-5" d="M92.79,255s-.39-.2-1.15.25-1.68,1-1.4,1.8,2.41.45,2.89.29a1.06,1.06,0,0,0,.67-1.15A1.48,1.48,0,0,0,92.79,255Z"/><path class="cls-8" d="M91.58,258c-.79,0-1.58-.18-1.82-.83-.42-1.19,1-2,1.62-2.4a1.83,1.83,0,0,1,1.57-.29,2,2,0,0,1,1.34,1.56,1.54,1.54,0,0,1-1,1.72A6.46,6.46,0,0,1,91.58,258Zm1-2.59a1.36,1.36,0,0,0-.65.22c-.33.2-1.33.79-1.18,1.2s1.7.18,2.25,0a.54.54,0,0,0,.35-.57,1,1,0,0,0-.65-.81l-.06,0Z"/><path class="cls-2" d="M92.94,255.23s-.23-.11-.68.15-1,.61-.83,1.07,1.43.27,1.71.17a.63.63,0,0,0,.4-.68A.89.89,0,0,0,92.94,255.23Z"/><path class="cls-5" d="M72.52,255.43s-.39-.2-1.16.25-1.68,1-1.4,1.8,2.42.45,2.89.28a1,1,0,0,0,.68-1.14A1.49,1.49,0,0,0,72.52,255.43Z"/><path class="cls-8" d="M71.31,258.47c-.79,0-1.59-.18-1.82-.82-.43-1.19,1-2,1.62-2.4a1.86,1.86,0,0,1,1.56-.3A2,2,0,0,1,74,256.52a1.54,1.54,0,0,1-1,1.71A6.12,6.12,0,0,1,71.31,258.47Zm1-2.58a1.34,1.34,0,0,0-.64.22c-.33.2-1.34.79-1.19,1.2.19.26,1.71.18,2.25,0a.54.54,0,0,0,.36-.57,1,1,0,0,0-.65-.81l-.07,0Z"/><path class="cls-2" d="M72.67,255.7s-.24-.12-.69.15-1,.61-.83,1.06,1.43.27,1.71.17a.62.62,0,0,0,.41-.67A.89.89,0,0,0,72.67,255.7Z"/><path class="cls-5" d="M74.85,254.86c.51-.08,1.26,1,1.18,1.35s-.13,1.45-1,1.58c-.6.1-2.76.35-3.23-.11S72.23,255.24,74.85,254.86Z"/><path class="cls-8" d="M73.25,258.45A2.72,2.72,0,0,1,71.5,258a1.16,1.16,0,0,1-.18-1.22,4.1,4.1,0,0,1,3.46-2.46h0a1.35,1.35,0,0,1,1.13.54c.28.31.72.95.6,1.43,0,0,0,.09,0,.16-.09.49-.27,1.63-1.33,1.8A14.06,14.06,0,0,1,73.25,258.45Zm1.65-3.09a3.4,3.4,0,0,0-2.43,1.37,1.12,1.12,0,0,0-.23.65A8.48,8.48,0,0,0,75,257.3c.31-.05.42-.53.49-1,0-.09,0-.17,0-.23A1.73,1.73,0,0,0,74.9,255.36Z"/><path class="cls-2" d="M75,255.16c.3,0,.74.6.69.8s-.07.86-.55.93-1.63.21-1.91-.06S73.45,255.39,75,255.16Z"/><path class="cls-5" d="M116.34,254.14a1.74,1.74,0,0,0-2.23.29c-1.16,1-2,2.47-1.49,2.61a5.42,5.42,0,0,0,2.41.09c.84-.17,1.59,0,1.9-1.78A1.17,1.17,0,0,0,116.34,254.14Z"/><path class="cls-8" d="M114,257.47a5.71,5.71,0,0,1-1.49-.19.42.42,0,0,1-.32-.34c-.14-.62.79-1.92,1.72-2.7a2,2,0,0,1,2.53-.31,1.42,1.42,0,0,1,.7,1.47c-.31,1.7-1.06,1.81-1.78,1.92l-.32.05A5.61,5.61,0,0,1,114,257.47Zm1.43-3.35a1.82,1.82,0,0,0-1.2.51,4.21,4.21,0,0,0-1.56,2.2,5.78,5.78,0,0,0,2.27.05l.34-.05c.68-.1,1.12-.17,1.37-1.52a.94.94,0,0,0-.46-.95l0,0A1.19,1.19,0,0,0,115.47,254.12Z"/><path class="cls-2" d="M116.13,254.43a1.08,1.08,0,0,0-1.39.18c-.72.61-1.26,1.54-.93,1.62a3.39,3.39,0,0,0,1.5.06c.52-.1,1,0,1.18-1.11A.71.71,0,0,0,116.13,254.43Z"/><path class="cls-5" d="M117.71,254.11c.5-.08,1.25,1,1.17,1.35s-.12,1.45-.94,1.58c-.61.1-2.76.35-3.24-.11S115.08,254.49,117.71,254.11Z"/><path class="cls-8" d="M116.07,257.45a2.5,2.5,0,0,1-1.54-.34.91.91,0,0,1-.12-1,3.9,3.9,0,0,1,3.26-2.29h0a1.12,1.12,0,0,1,.91.46c.26.29.63.85.54,1.2,0,0,0,.11,0,.18-.08.47-.24,1.45-1.11,1.59A14.67,14.67,0,0,1,116.07,257.45Zm1.67-3.1a3.34,3.34,0,0,0-2.85,2c-.09.27,0,.42,0,.45.31.3,2,.22,3,0,.48-.07.61-.64.7-1.17a1.09,1.09,0,0,1,0-.22,1.75,1.75,0,0,0-.52-.83c-.18-.17-.3-.22-.38-.22Z"/><path class="cls-2" d="M117.85,254.41c.3,0,.74.6.7.8s-.08.85-.56.93-1.63.21-1.91-.07S116.31,254.64,117.85,254.41Z"/><path class="cls-5" d="M119.52,254.63s-.39-.2-1.15.25-1.68,1-1.41,1.8,2.42.45,2.89.28a1.05,1.05,0,0,0,.68-1.15A1.47,1.47,0,0,0,119.52,254.63Z"/><path class="cls-8" d="M118.31,257.42c-.7,0-1.4-.15-1.58-.66-.36-1,.9-1.74,1.51-2.1a1.57,1.57,0,0,1,1.36-.27,1.74,1.74,0,0,1,1.18,1.38,1.32,1.32,0,0,1-.84,1.43A6.1,6.1,0,0,1,118.31,257.42Zm1-2.59a1.66,1.66,0,0,0-.78.26c-.75.44-1.48,1-1.29,1.5s2,.32,2.57.14a.82.82,0,0,0,.52-.87,1.24,1.24,0,0,0-.83-1l0,0A.49.49,0,0,0,119.27,254.83Z"/><path class="cls-2" d="M119.67,254.9s-.23-.12-.69.15-1,.61-.83,1.06,1.44.27,1.72.17a.63.63,0,0,0,.4-.68A.89.89,0,0,0,119.67,254.9Z"/><path class="cls-5" d="M81.53,255.25a.44.44,0,0,1,.5-.1c.59.26,2.07,1,1.78,2.09-.22.83-.73.59-1.69.62l-.73,0a.43.43,0,0,1-.37-.21h0a2,2,0,0,1,.46-2.38Z"/><path class="cls-8" d="M81.38,258.38a.91.91,0,0,1-.78-.45,2.48,2.48,0,0,1,.55-3l.38.34-.33-.38a1,1,0,0,1,1-.18c1.6.73,2.33,1.68,2.05,2.68s-1,1-1.64,1h-.52l-.72,0Zm.46-2.77h0l0,0a1.48,1.48,0,0,0-.36,1.74l.65-.06h.59c.56,0,.57,0,.64-.25C83.51,256.44,82.26,255.8,81.84,255.61Z"/><path class="cls-2" d="M81.61,255.49a.34.34,0,0,1,.36-.08c.43.19,1.51.75,1.3,1.52-.17.6-.54.43-1.24.45l-.52,0a.32.32,0,0,1-.27-.16h0a1.43,1.43,0,0,1,.33-1.72Z"/><path class="cls-5" d="M78.12,255a1.74,1.74,0,0,0-2.26.1c-1.23.87-2.21,2.28-1.7,2.47a5.47,5.47,0,0,0,2.4.29c.85-.09,1.58.12,2-1.61A1.16,1.16,0,0,0,78.12,255Z"/><path class="cls-8" d="M76,258.37a6.2,6.2,0,0,1-2-.35.7.7,0,0,1-.46-.58c-.11-.82,1.15-2.14,2-2.77a2.27,2.27,0,0,1,2.84-.09,1.63,1.63,0,0,1,.66,1.78c-.46,1.71-1.25,1.9-2.16,1.95l-.31,0Zm-1.44-1.21a5.09,5.09,0,0,0,1.92.19,2.19,2.19,0,0,1,.36,0c.63,0,1-.06,1.26-1.22a.66.66,0,0,0-.28-.71l-.06,0c-.07-.06-.67-.54-1.63.14A5.33,5.33,0,0,0,74.58,257.16Z"/><path class="cls-2" d="M77.88,255.24a1.09,1.09,0,0,0-1.4.07c-.77.54-1.38,1.42-1.07,1.54a3.71,3.71,0,0,0,1.5.18c.52-.06,1,.07,1.27-1A.76.76,0,0,0,77.88,255.24Z"/></g><path class="cls-3" d="M129.13,201.93H102.74a1,1,0,0,1,0-2h26.39a1,1,0,0,1,0,2Z"/><path class="cls-2" d="M112.24,212.12a1,1,0,0,1-1-1v-6.56a1,1,0,0,1,2,0v6.56A1,1,0,0,1,112.24,212.12Z"/><path class="cls-2" d="M121.07,216.89a1,1,0,0,1-1-1v-3.63a1,1,0,0,1,2,0v3.63A1,1,0,0,1,121.07,216.89Z"/><path class="cls-2" d="M126.74,213.26a1,1,0,0,1-1-1v-3.64a1,1,0,0,1,2,0v3.64A1,1,0,0,1,126.74,213.26Z"/><path class="cls-2" d="M129.13,213.26H104a1,1,0,0,1,0-2h25.15a1,1,0,0,1,0,2Z"/><path class="cls-2" d="M109.8,142.43a1,1,0,0,1-1-1v-3.64a1,1,0,0,1,2,0v3.64A1,1,0,0,1,109.8,142.43Z"/><path class="cls-2" d="M104.13,146.06a1,1,0,0,1-1-1v-3.63a1,1,0,0,1,2,0v3.63A1,1,0,0,1,104.13,146.06Z"/><path class="cls-2" d="M112.89,142.43H101.74a1,1,0,0,1,0-2h11.15a1,1,0,0,1,0,2Z"/><path class="cls-2" d="M68.74,142.21h-6.5a1,1,0,0,1,0-2h6.5a1,1,0,0,1,0,2Z"/><circle class="cls-5" cx="220.44" cy="149.45" r="13.67"/><path class="cls-4" d="M220.44,164.12a14.67,14.67,0,1,1,14.67-14.67A14.69,14.69,0,0,1,220.44,164.12Zm0-27.34a12.67,12.67,0,1,0,12.67,12.67A12.69,12.69,0,0,0,220.44,136.78Z"/><path id="Fill-7" class="cls-7" d="M224.72,157.09a3,3,0,0,0,.14.37h0c-.44-4.25,2-6,2.74-8.85l0-.13c0-.07,0-.13,0-.2a4.12,4.12,0,0,0-.81-2.64h0l-.16-.24h0l-.32-.43,0-.05-.1-.12-.09-.12-.1-.12-.11-.12-.07-.09a20.77,20.77,0,0,0-3.49-3.12h0a21.1,21.1,0,0,1,0,4.48,16.69,16.69,0,0,1-1.5,5,17,17,0,0,1-5-1.17,21,21,0,0,1-3.87-2.27c0,.13,0,.26.05.4s0,.07,0,.11,0,.19,0,.29,0,.08,0,.13,0,.19,0,.28l0,.12.06.35v0c0,.13.05.27.08.41v0c0,.12,0,.24.08.36s0,0,0,.08.05.22.08.33,0,0,0,.06l.09.38h0c.11.4.22.78.35,1.15v0a12.47,12.47,0,0,0,.73,1.68l.12.21h0c0,.06.08.13.12.18h0a1.27,1.27,0,0,0,.13.19h0v0h0l.16.23,0,0v0a2.2,2.2,0,0,0,.2.23l.14.15.07.06.09.08.07.06.09.07.07.05.09.06.07,0,.1.05.07,0,.11.05.06,0a.64.64,0,0,0,.18.06l.1,0c2.84.75,5.6-.44,9.07,2"/><path class="cls-2" d="M194.15,138.6H189a1,1,0,0,1,0-2h5.16a1,1,0,0,1,0,2Z"/><path class="cls-2" d="M100.08,128.07H36.18a1.23,1.23,0,0,1-1.27-1.18v-12.8a1.23,1.23,0,0,1,1.27-1.18h63.9a1.23,1.23,0,0,1,1.27,1.18v12.8A1.23,1.23,0,0,1,100.08,128.07Z"/><path class="cls-3" d="M100.08,129.07H36.18a2.23,2.23,0,0,1-2.27-2.18v-12.8a2.23,2.23,0,0,1,2.27-2.18h63.9a2.23,2.23,0,0,1,2.27,2.18v12.8A2.23,2.23,0,0,1,100.08,129.07Zm-63.9-15.16c-.15,0-.27.09-.27.18v12.8c0,.09.12.18.27.18h63.9c.16,0,.27-.09.27-.18v-12.8c0-.09-.11-.18-.27-.18Z"/><rect class="cls-3" x="47.67" y="127.91" width="2" height="4.42"/><rect class="cls-4" x="83.26" y="126.45" width="2" height="4.42"/><path class="cls-3" d="M49.14,118.27a.38.38,0,0,1-.14.16.26.26,0,0,1-.18,0,.43.43,0,0,1-.24-.08l-.31-.18a2,2,0,0,0-.42-.18,1.62,1.62,0,0,0-.57-.09,2,2,0,0,0-.52.07,1.18,1.18,0,0,0-.37.2.76.76,0,0,0-.23.31,1,1,0,0,0-.07.39.68.68,0,0,0,.15.45,1.29,1.29,0,0,0,.4.31,4,4,0,0,0,.57.23l.65.21c.22.08.44.17.65.27a2.18,2.18,0,0,1,.57.38,1.63,1.63,0,0,1,.4.56,2,2,0,0,1,.15.82,2.61,2.61,0,0,1-.18,1,2.09,2.09,0,0,1-.52.79,2.28,2.28,0,0,1-.83.53,3.08,3.08,0,0,1-1.13.2,3.55,3.55,0,0,1-.73-.08,3.31,3.31,0,0,1-.68-.2A3.55,3.55,0,0,1,45,124a3,3,0,0,1-.51-.41l.42-.69a.41.41,0,0,1,.14-.12.27.27,0,0,1,.18,0,.44.44,0,0,1,.28.11l.37.24a2.59,2.59,0,0,0,.5.24,1.94,1.94,0,0,0,.68.11,1.39,1.39,0,0,0,.94-.29,1,1,0,0,0,.34-.83.8.8,0,0,0-.15-.5,1.45,1.45,0,0,0-.4-.32,3.76,3.76,0,0,0-.57-.22l-.65-.19a5.87,5.87,0,0,1-.65-.26,2,2,0,0,1-.56-.39,1.83,1.83,0,0,1-.41-.59,2.33,2.33,0,0,1-.15-.89,2.06,2.06,0,0,1,.17-.81,2,2,0,0,1,.49-.71,2.36,2.36,0,0,1,.78-.49,2.76,2.76,0,0,1,1.07-.19,3.66,3.66,0,0,1,1.26.21,2.74,2.74,0,0,1,1,.6Z"/><path class="cls-3" d="M54,123.4a1.88,1.88,0,0,0,.74-.14,1.45,1.45,0,0,0,.55-.39,1.61,1.61,0,0,0,.35-.6,2.49,2.49,0,0,0,.12-.8v-4.59h1.42v4.59a3.49,3.49,0,0,1-.22,1.27,2.66,2.66,0,0,1-.63,1,2.91,2.91,0,0,1-1,.66,3.81,3.81,0,0,1-2.66,0A2.82,2.82,0,0,1,51,122.74a3.49,3.49,0,0,1-.22-1.27v-4.59h1.43v4.59a2.43,2.43,0,0,0,.12.79,1.58,1.58,0,0,0,.34.61,1.53,1.53,0,0,0,.55.39A2,2,0,0,0,54,123.4Z"/><path class="cls-3" d="M61.25,116.88a4.37,4.37,0,0,1,1.33.18,2.43,2.43,0,0,1,.93.5,2,2,0,0,1,.55.78,2.63,2.63,0,0,1,.18,1,2.8,2.8,0,0,1-.19,1,2,2,0,0,1-.56.8,2.47,2.47,0,0,1-.93.52,4,4,0,0,1-1.31.19H60.18v2.7H58.76v-7.67Zm0,3.85a2.4,2.4,0,0,0,.69-.09,1.29,1.29,0,0,0,.48-.29,1.09,1.09,0,0,0,.29-.44,1.59,1.59,0,0,0,.1-.59,1.38,1.38,0,0,0-.1-.55,1.06,1.06,0,0,0-.29-.43,1.12,1.12,0,0,0-.48-.27,2.31,2.31,0,0,0-.69-.09H60.18v2.75Z"/><path class="cls-3" d="M67.82,116.88a4.32,4.32,0,0,1,1.33.18,2.43,2.43,0,0,1,.93.5,2,2,0,0,1,.55.78,2.63,2.63,0,0,1,.18,1,2.8,2.8,0,0,1-.19,1,2,2,0,0,1-.56.8,2.4,2.4,0,0,1-.93.52,4,4,0,0,1-1.31.19H66.76v2.7H65.33v-7.67Zm0,3.85a2.4,2.4,0,0,0,.69-.09,1.29,1.29,0,0,0,.48-.29,1.09,1.09,0,0,0,.29-.44,1.59,1.59,0,0,0,.1-.59,1.38,1.38,0,0,0-.1-.55,1.15,1.15,0,0,0-.28-.43,1.22,1.22,0,0,0-.49-.27,2.31,2.31,0,0,0-.69-.09H66.76v2.75Z"/><path class="cls-3" d="M76.4,123.37v1.18H71.9v-7.67h1.43v6.49Z"/><path class="cls-3" d="M78.85,124.55H77.41v-7.67h1.44Z"/><path class="cls-3" d="M82,118v2.13h2.68v1.1H82v2.17h3.4v1.14H80.56v-7.67H85.4V118Z"/><path class="cls-3" d="M92.66,124.55H91.37a.56.56,0,0,1-.53-.29l-1.61-2.45a.63.63,0,0,0-.2-.2.7.7,0,0,0-.32-.06h-.62v3H86.67v-7.67H89a4.78,4.78,0,0,1,1.34.16,2.73,2.73,0,0,1,.92.45,1.76,1.76,0,0,1,.52.7,2.17,2.17,0,0,1,.17.89,2.25,2.25,0,0,1-.11.74,2.16,2.16,0,0,1-.33.62,2.31,2.31,0,0,1-.53.5,2.64,2.64,0,0,1-.72.33,1.57,1.57,0,0,1,.26.19,2,2,0,0,1,.21.26Zm-3.67-4a2.41,2.41,0,0,0,.7-.1,1.37,1.37,0,0,0,.49-.28,1.1,1.1,0,0,0,.29-.42,1.4,1.4,0,0,0,.1-.54,1.09,1.09,0,0,0-.39-.9A1.82,1.82,0,0,0,89,118h-.92v2.55Z"/><path class="cls-3" d="M94.27,123.91a1,1,0,0,1-1-1V115.2a1,1,0,0,1,2,0v7.71A1,1,0,0,1,94.27,123.91Z"/><path class="cls-2" d="M131.32,141.7h-5.17a1,1,0,0,1,0-2h5.17a1,1,0,0,1,0,2Z"/><path class="cls-2" d="M156.63,138.6h-4a1,1,0,0,1,0-2h4a1,1,0,0,1,0,2Z"/><path class="cls-2" d="M90.33,205.56h-4a1,1,0,1,1,0-2h4a1,1,0,0,1,0,2Z"/><path class="cls-2" d="M156.44,213.24H246.7a3.38,3.38,0,0,1,3.38,3.38v0A3.38,3.38,0,0,1,246.7,220H156.44a0,0,0,0,1,0,0v-6.66a0,0,0,0,1,0,0Z"/><path class="cls-4" d="M246.7,221H155.44l-.05-1v-7.66l1.05,0H246.7a4.38,4.38,0,0,1,0,8.75Zm-89.31-2H246.7a2.38,2.38,0,0,0,0-4.75H157.39Z"/><circle class="cls-2" cx="168.26" cy="216.62" r="0.67"/><path class="cls-4" d="M168.26,218.29a1.68,1.68,0,1,1,1.67-1.67A1.67,1.67,0,0,1,168.26,218.29Zm0-2a.33.33,0,0,0-.33.33.33.33,0,0,0,.66,0A.33.33,0,0,0,168.26,216.29Z"/><circle class="cls-2" cx="181.19" cy="216.62" r="0.67"/><path class="cls-4" d="M181.19,218.29a1.68,1.68,0,1,1,1.68-1.67A1.67,1.67,0,0,1,181.19,218.29Zm0-2a.32.32,0,0,0-.32.33.33.33,0,0,0,.65,0A.33.33,0,0,0,181.19,216.29Z"/><circle class="cls-2" cx="194.13" cy="216.62" r="0.67"/><path class="cls-4" d="M194.13,218.29a1.68,1.68,0,1,1,1.67-1.67A1.67,1.67,0,0,1,194.13,218.29Zm0-2a.33.33,0,0,0-.33.33.33.33,0,0,0,.66,0A.33.33,0,0,0,194.13,216.29Z"/><circle class="cls-2" cx="207.07" cy="216.62" r="0.67"/><path class="cls-4" d="M207.07,218.29a1.68,1.68,0,1,1,1.67-1.67A1.68,1.68,0,0,1,207.07,218.29Zm0-2a.33.33,0,0,0-.33.33.32.32,0,0,0,.33.32.32.32,0,0,0,.32-.32A.32.32,0,0,0,207.07,216.29Z"/><circle class="cls-2" cx="220" cy="216.62" r="0.67"/><path class="cls-4" d="M220,218.29a1.68,1.68,0,1,1,1.67-1.67A1.67,1.67,0,0,1,220,218.29Zm0-2a.33.33,0,0,0-.33.33.33.33,0,0,0,.66,0A.33.33,0,0,0,220,216.29Z"/><circle class="cls-2" cx="232.88" cy="216.62" r="0.67"/><path class="cls-4" d="M232.88,218.29a1.68,1.68,0,1,1,1.67-1.67A1.68,1.68,0,0,1,232.88,218.29Zm0-2a.33.33,0,0,0-.33.33.32.32,0,0,0,.33.32.32.32,0,0,0,.32-.32A.32.32,0,0,0,232.88,216.29Z"/><circle class="cls-2" cx="245.69" cy="216.62" r="0.67"/><path class="cls-4" d="M245.69,218.29a1.68,1.68,0,1,1,1.68-1.67A1.67,1.67,0,0,1,245.69,218.29Zm0-2a.32.32,0,0,0-.32.33.33.33,0,0,0,.65,0A.33.33,0,0,0,245.69,216.29Z"/><polygon class="cls-2" points="173.1 94.87 84.19 94.87 51.24 130.87 141.38 130.87 173.1 94.87"/><path class="cls-4" d="M141.38,131.87H51.24a1,1,0,0,1-.92-.6,1,1,0,0,1,.18-1.07l33-36a1,1,0,0,1,.74-.32H173.1a1,1,0,0,1,.75,1.66l-31.72,36A1,1,0,0,1,141.38,131.87Zm-87.87-2h87.42l29.95-34H84.63Z"/><circle class="cls-2" cx="174.52" cy="131.32" r="7.35"/><path class="cls-4" d="M174.52,139.67a8.36,8.36,0,1,1,8.35-8.36A8.36,8.36,0,0,1,174.52,139.67Zm0-14.71a6.36,6.36,0,1,0,6.35,6.35A6.36,6.36,0,0,0,174.52,125Z"/><path class="cls-4" d="M141.32,142.21a1,1,0,0,1-1-1V130.87a1,1,0,0,1,2,0v10.34A1,1,0,0,1,141.32,142.21Z"/><path class="cls-4" d="M141.32,220.93a1,1,0,0,1-1-1V184.59a1,1,0,1,1,2,0v35.34A1,1,0,0,1,141.32,220.93Z"/><path class="cls-5" d="M183.41,88.67H75.08a2.09,2.09,0,0,1-2.16-2V65a2.09,2.09,0,0,1,2.16-2H183.41a2.08,2.08,0,0,1,2.16,2V86.67A2.08,2.08,0,0,1,183.41,88.67Z"/><path class="cls-4" d="M183.41,89.67H75.08a3.09,3.09,0,0,1-3.16-3V65a3.09,3.09,0,0,1,3.16-3H183.41a3.09,3.09,0,0,1,3.16,3V86.67A3.09,3.09,0,0,1,183.41,89.67ZM75.08,64a1.09,1.09,0,0,0-1.16,1V86.67a1.09,1.09,0,0,0,1.16,1H183.41a1.09,1.09,0,0,0,1.16-1V65a1.09,1.09,0,0,0-1.16-1Z"/><rect class="cls-4" x="95.26" y="88.39" width="2" height="7.5"/><rect class="cls-4" x="160.82" y="88.39" width="2" height="7.5"/><path class="cls-4" d="M97.05,72.06a.9.9,0,0,1-.23.27.49.49,0,0,1-.3.09.78.78,0,0,1-.41-.14c-.15-.1-.33-.2-.53-.31a4.07,4.07,0,0,0-.72-.32,3.05,3.05,0,0,0-1-.13,2.88,2.88,0,0,0-.88.12,1.7,1.7,0,0,0-.64.34,1.27,1.27,0,0,0-.38.51,1.59,1.59,0,0,0-.13.66,1.18,1.18,0,0,0,.26.77,2.15,2.15,0,0,0,.68.52,7.35,7.35,0,0,0,1,.39l1.11.36a10.73,10.73,0,0,1,1.11.45,3.78,3.78,0,0,1,1,.65,2.93,2.93,0,0,1,.68,1,3.37,3.37,0,0,1,.25,1.38,4.56,4.56,0,0,1-.3,1.65,3.76,3.76,0,0,1-.88,1.34,4.21,4.21,0,0,1-1.42.9,5.13,5.13,0,0,1-1.91.33,6.26,6.26,0,0,1-1.23-.12A7.3,7.3,0,0,1,91,82.38a6,6,0,0,1-1-.54,4.68,4.68,0,0,1-.87-.7L89.79,80a.73.73,0,0,1,.24-.22.64.64,0,0,1,.3-.08.87.87,0,0,1,.49.18c.17.13.38.26.62.41a4.69,4.69,0,0,0,.84.41,3.1,3.1,0,0,0,1.16.19,2.41,2.41,0,0,0,1.6-.49A1.77,1.77,0,0,0,95.61,79a1.34,1.34,0,0,0-.26-.84,1.94,1.94,0,0,0-.68-.54,4.69,4.69,0,0,0-1-.38l-1.1-.33a9.27,9.27,0,0,1-1.1-.43,3.57,3.57,0,0,1-1-.66,3,3,0,0,1-.68-1,3.91,3.91,0,0,1-.26-1.5,3.57,3.57,0,0,1,.29-1.39,3.48,3.48,0,0,1,.82-1.19,4,4,0,0,1,1.33-.84,4.92,4.92,0,0,1,1.82-.32A6,6,0,0,1,96,69.9a5,5,0,0,1,1.66,1Z"/><path class="cls-4" d="M105.23,80.75a3.28,3.28,0,0,0,1.25-.23,2.75,2.75,0,0,0,.94-.66,3,3,0,0,0,.58-1,4.35,4.35,0,0,0,.2-1.35V69.69h2.42v7.79a6.22,6.22,0,0,1-.37,2.15,4.78,4.78,0,0,1-2.77,2.82,6.56,6.56,0,0,1-4.51,0,4.89,4.89,0,0,1-1.7-1.12,5,5,0,0,1-1.07-1.7,6,6,0,0,1-.37-2.15V69.69h2.42v7.78a4.35,4.35,0,0,0,.2,1.35,2.81,2.81,0,0,0,.59,1,2.53,2.53,0,0,0,.93.67A3.33,3.33,0,0,0,105.23,80.75Z"/><path class="cls-4" d="M117.59,69.69a7.59,7.59,0,0,1,2.26.3,4.38,4.38,0,0,1,1.57.86,3.43,3.43,0,0,1,.92,1.31,4.92,4.92,0,0,1,0,3.41,3.49,3.49,0,0,1-1,1.35,4.32,4.32,0,0,1-1.58.89,7,7,0,0,1-2.21.31h-1.81V82.7h-2.42v-13Zm0,6.54a3.42,3.42,0,0,0,1.16-.17,2.13,2.13,0,0,0,.82-.47,2,2,0,0,0,.49-.76,2.86,2.86,0,0,0,.16-1,2.59,2.59,0,0,0-.16-1,1.89,1.89,0,0,0-.49-.72,2.11,2.11,0,0,0-.81-.45,3.72,3.72,0,0,0-1.17-.16h-1.81v4.67Z"/><path class="cls-4" d="M128.73,69.69A7.59,7.59,0,0,1,131,70a4.38,4.38,0,0,1,1.57.86,3.33,3.33,0,0,1,.92,1.31,4.37,4.37,0,0,1,.31,1.68,4.59,4.59,0,0,1-.32,1.73,3.58,3.58,0,0,1-.94,1.35,4.4,4.4,0,0,1-1.58.89,7.13,7.13,0,0,1-2.22.31h-1.81V82.7H124.5v-13Zm0,6.54a3.42,3.42,0,0,0,1.16-.17,2.13,2.13,0,0,0,.82-.47,2,2,0,0,0,.49-.76,2.86,2.86,0,0,0,.16-1,2.59,2.59,0,0,0-.16-1,2,2,0,0,0-.48-.72,2.23,2.23,0,0,0-.82-.45,3.72,3.72,0,0,0-1.17-.16h-1.81v4.67Z"/><path class="cls-4" d="M143.26,80.7v2h-7.62v-13h2.42v11Z"/><path class="cls-4" d="M147.42,82.7H145v-13h2.43Z"/><path class="cls-4" d="M152.76,71.61v3.61h4.55v1.87h-4.55v3.68h5.77V82.7h-8.2v-13h8.2v1.92Z"/><path class="cls-4" d="M170.84,82.7h-2.19a1,1,0,0,1-.9-.48L165,78.05a.86.86,0,0,0-.33-.33,1.17,1.17,0,0,0-.55-.1h-1V82.7h-2.42v-13h4a8.41,8.41,0,0,1,2.27.27,4.41,4.41,0,0,1,1.55.77,3,3,0,0,1,.9,1.19,4,4,0,0,1,.09,2.75,3.5,3.5,0,0,1-.55,1.07,4,4,0,0,1-.9.83,4.72,4.72,0,0,1-1.22.57,2.67,2.67,0,0,1,.43.32,2.29,2.29,0,0,1,.36.44Zm-6.23-6.82a3.83,3.83,0,0,0,1.19-.17,2.27,2.27,0,0,0,.84-.47,1.89,1.89,0,0,0,.49-.72,2.42,2.42,0,0,0,.16-.91,1.87,1.87,0,0,0-.65-1.52,3.15,3.15,0,0,0-2-.53H163.1v4.32Z"/><path class="cls-5" d="M153.18,219.34A12.27,12.27,0,0,0,129.77,212a8.19,8.19,0,0,0-10,7.37"/><path class="cls-3" d="M153.18,220.35a1.35,1.35,0,0,1-.28,0,1,1,0,0,1-.68-1.25,11.28,11.28,0,0,0-21.51-6.77l-.28.85-.88-.2a7.64,7.64,0,0,0-1.58-.17,7.24,7.24,0,0,0-7.18,6.65,1,1,0,0,1-1.07.92,1,1,0,0,1-.92-1.07,9.23,9.23,0,0,1,9.17-8.5,8.88,8.88,0,0,1,1.15.07,13.28,13.28,0,0,1,25,8.79A1,1,0,0,1,153.18,220.35Z"/><path class="cls-3" d="M178.79,83.39a1,1,0,0,1-1-1V69.33a1,1,0,0,1,2,0V82.39A1,1,0,0,1,178.79,83.39Z"/><path class="cls-3" d="M80.33,83.39a1,1,0,0,1-1-1V73.33a1,1,0,0,1,2,0v9.06A1,1,0,0,1,80.33,83.39Z"/><g class="cls-12"><rect class="cls-5" x="152.41" y="180.76" width="24.12" height="31.9" rx="1.17"/><path class="cls-4" d="M175.33,213.66l-21.77,0a2.17,2.17,0,0,1-2.17-2.17l0-29.55a2.17,2.17,0,0,1,2.17-2.17l21.78,0a2.17,2.17,0,0,1,2.17,2.17l0,29.55A2.18,2.18,0,0,1,175.33,213.66Zm-21.74-31.91a.17.17,0,0,0-.17.17l0,29.55a.17.17,0,0,0,.18.17l21.76,0a.17.17,0,0,0,.18-.17l0-29.55a.17.17,0,0,0-.18-.17Z"/><line class="cls-5" x1="157.33" y1="202.03" x2="171.91" y2="202.04"/><path class="cls-3" d="M171.91,203H157.33a1,1,0,0,1,0-2h14.58a1,1,0,0,1,0,2Z"/><line class="cls-5" x1="157.33" y1="206.5" x2="171.9" y2="206.52"/><path class="cls-3" d="M171.9,207.52h0l-14.57,0a1,1,0,0,1,0-2h0l14.57,0a1,1,0,0,1,1,1A1,1,0,0,1,171.9,207.52Z"/><circle class="cls-2" cx="163.56" cy="191.26" r="5.12"/><circle class="cls-5" cx="164.61" cy="191.23" r="5.12"/><path class="cls-3" d="M164.62,197.35h0a6.13,6.13,0,0,1,0-12.25h0a6.13,6.13,0,0,1,6.12,6.13h0a6.13,6.13,0,0,1-6.12,6.12Zm0-10.25a4.13,4.13,0,0,0,0,8.25h0a4.13,4.13,0,0,0,0-8.25Z"/><path id="Fill-7-2" data-name="Fill-7" class="cls-13" d="M165.89,193.75a1.28,1.28,0,0,1,0,.13h0c-.14-1.4.65-2,.91-2.91v0a.64.64,0,0,1,0-.07,1.37,1.37,0,0,0-.27-.86h0a.35.35,0,0,1-.05-.08h0l-.11-.14v0l0,0,0,0,0,0,0,0,0,0a7.2,7.2,0,0,0-1.15-1h0a6.63,6.63,0,0,1,0,1.47,5.85,5.85,0,0,1-.5,1.63,5.61,5.61,0,0,1-1.66-.39,6.58,6.58,0,0,1-1.27-.74s0,.08,0,.13v0a.28.28,0,0,1,0,.09v0s0,.06,0,.1v0s0,.08,0,.12h0l0,.14h0a.5.5,0,0,1,0,.12v0a.43.43,0,0,1,0,.11v0l0,.12h0c0,.14.07.26.11.38h0a4.8,4.8,0,0,0,.23.55.25.25,0,0,1,0,.07h0l0,.06h0a.21.21,0,0,1,0,.06h0l.06.07h0l.06.08,0,0h0l0,0,0,0,0,0,0,0,0,0,0,0h0l0,0h.05l.06,0h0c.94.25,1.84-.14,3,.68"/></g><rect class="cls-5" x="188.27" y="180.76" width="24.12" height="31.9" rx="1.17"/><path class="cls-4" d="M211.2,213.66l-21.77,0a2.17,2.17,0,0,1-2.17-2.17l0-29.55a2.17,2.17,0,0,1,2.17-2.17l21.77,0a2.16,2.16,0,0,1,2.17,2.17l0,29.55A2.18,2.18,0,0,1,211.2,213.66Zm-21.74-31.91a.16.16,0,0,0-.17.17l0,29.55a.17.17,0,0,0,.17.17l21.77,0a.17.17,0,0,0,.18-.17l0-29.55a.16.16,0,0,0-.17-.17Z"/><line class="cls-5" x1="193.2" y1="202.03" x2="207.78" y2="202.04"/><path class="cls-3" d="M207.78,203H193.2a1,1,0,0,1,0-2h14.58a1,1,0,0,1,0,2Z"/><line class="cls-5" x1="193.2" y1="206.5" x2="207.77" y2="206.52"/><path class="cls-3" d="M207.77,207.52h0l-14.58,0a1,1,0,0,1,0-2h0l14.57,0a1,1,0,0,1,0,2Z"/><circle class="cls-2" cx="199.43" cy="191.26" r="5.12"/><circle class="cls-5" cx="200.48" cy="191.23" r="5.12"/><path class="cls-3" d="M200.48,197.35h0a6.13,6.13,0,0,1,0-12.25h0a6.13,6.13,0,0,1,0,12.25Zm0-10.25a4.13,4.13,0,0,0-4.12,4.12,4.11,4.11,0,0,0,4.12,4.13h0a4.11,4.11,0,0,0,2.92-1.21,4.15,4.15,0,0,0,1.21-2.91h0a4.13,4.13,0,0,0-4.12-4.13Z"/><path id="Fill-7-3" data-name="Fill-7" class="cls-14" d="M201.75,193.75l.05.13h0c-.14-1.4.65-2,.9-2.91v0a.2.2,0,0,0,0-.07,1.29,1.29,0,0,0-.26-.86h0l-.06-.08h0l-.1-.14v0l0,0,0,0,0,0,0,0,0,0a6.71,6.71,0,0,0-1.14-1h0a6.59,6.59,0,0,1,0,1.47,5.51,5.51,0,0,1-.49,1.63,5.61,5.61,0,0,1-1.66-.39,6.58,6.58,0,0,1-1.27-.74s0,.08,0,.13v0s0,.06,0,.09v0s0,.06,0,.1v0a.5.5,0,0,0,0,.12h0l0,.14h0s0,.08,0,.12v0s0,.07,0,.11v0l0,.12h0a3.44,3.44,0,0,0,.11.38h0a3.5,3.5,0,0,0,.24.55l0,.07h0l0,.06h0l0,.06h0l.05.07h0l.06.08s0,0,.05,0h0l0,0,0,0,0,0,0,0,0,0,0,0h0l0,0h.06l.06,0h0c.93.25,1.84-.14,3,.68"/><rect class="cls-5" x="222.02" y="180.76" width="24.12" height="31.9" rx="1.17"/><path class="cls-4" d="M245,213.66l-21.77,0a2.17,2.17,0,0,1-2.17-2.17l0-29.55a2.17,2.17,0,0,1,2.17-2.17l21.77,0a2.18,2.18,0,0,1,2.18,2.17l0,29.55A2.18,2.18,0,0,1,245,213.66Zm-21.74-31.91a.17.17,0,0,0-.17.17l0,29.55a.17.17,0,0,0,.17.17l21.77,0a.17.17,0,0,0,.18-.17l0-29.55a.17.17,0,0,0-.18-.17Z"/><line class="cls-5" x1="226.95" y1="202.03" x2="241.53" y2="202.04"/><path class="cls-3" d="M241.53,203H227a1,1,0,0,1,0-2h14.58a1,1,0,0,1,0,2Z"/><line class="cls-5" x1="226.95" y1="206.5" x2="241.52" y2="206.52"/><path class="cls-3" d="M241.52,207.52h0l-14.57,0a1,1,0,0,1,0-2h0l14.57,0a1,1,0,0,1,0,2Z"/><circle class="cls-2" cx="233.18" cy="191.26" r="5.12"/><circle class="cls-5" cx="234.23" cy="191.23" r="5.12"/><path class="cls-3" d="M234.23,197.35h0a6.13,6.13,0,0,1,0-12.25h0a6.13,6.13,0,0,1,6.12,6.13h0A6.14,6.14,0,0,1,234.23,197.35Zm0-10.25a4.13,4.13,0,0,0,0,8.25h0a4.12,4.12,0,0,0,2.92-7,4.09,4.09,0,0,0-2.91-1.21Z"/><path id="Fill-7-4" data-name="Fill-7" class="cls-15" d="M235.5,193.75l.05.13h0c-.14-1.4.65-2,.9-2.91a.06.06,0,0,0,0,0,.64.64,0,0,1,0-.07,1.37,1.37,0,0,0-.27-.86h0a.35.35,0,0,1-.05-.08h0l-.1-.14v0l0,0,0,0,0,0,0,0,0,0a7.2,7.2,0,0,0-1.15-1h0a6.59,6.59,0,0,1,0,1.47,5.51,5.51,0,0,1-.49,1.63,5.61,5.61,0,0,1-1.66-.39,6.58,6.58,0,0,1-1.27-.74s0,.08,0,.13v0s0,.06,0,.09v0s0,.06,0,.1v0a.5.5,0,0,0,0,.12h0l0,.14h0s0,.08,0,.12v0s0,.07,0,.11v0l0,.12h0a3.44,3.44,0,0,0,.11.38h0a3.5,3.5,0,0,0,.24.55.25.25,0,0,1,0,.07h0a.21.21,0,0,1,0,.06h0l0,.06h0l.05.07h0l.06.08s0,0,.05,0h0l0,0,0,0,0,0,0,0,0,0,0,0h0l0,0h.06l.06,0h0c.94.25,1.84-.14,3,.68"/><path class="cls-3" d="M148.49,102.14H90.33a1,1,0,0,1,0-2h58.16a1,1,0,0,1,0,2Z"/><path class="cls-3" d="M95.24,109.64h-14a1,1,0,0,1,0-2h14a1,1,0,0,1,0,2Z"/><path class="cls-3" d="M90.33,125H72.92a1,1,0,0,1,0-2H90.33a1,1,0,0,1,0,2Z"/><path class="cls-3" d="M142.49,118.14H114a1,1,0,0,1,0-2h28.51a1,1,0,0,1,0,2Z"/><path class="cls-3" d="M136.74,109.64H117.49a1,1,0,0,1,0-2h19.25a1,1,0,0,1,0,2Z"/><path class="cls-4" d="M238.08,221H20.19a1,1,0,1,1,0-2H238.08a1,1,0,0,1,0,2Z"/></g></svg>