<svg xmlns="http://www.w3.org/2000/svg" xmlns:xlink="http://www.w3.org/1999/xlink" viewBox="0 0 256 256"><defs><style>.cls-1{fill:none;}.cls-2{fill:#fff;}.cls-3,.cls-4{fill:#e1f2ff;}.cls-3{fill-rule:evenodd;}.cls-5{fill:#5e63b6;}.cls-6{clip-path:url(#clip-path);}.cls-7{fill:#9452ba;}.cls-8{fill:#52267d;}.cls-10,.cls-9{fill:#f3e3ff;}.cls-10,.cls-11{opacity:0.3;}.cls-12{fill:#acd3ef;}.cls-13{fill:url(#Dégradé_sans_nom_2);}.cls-14{fill:#ff8394;}</style><clipPath id="clip-path"><ellipse class="cls-1" cx="236.39" cy="184.67" rx="18.21" ry="18.59" transform="matrix(0.29, -0.96, 0.96, 0.29, -8.75, 357.55)"/></clipPath><radialGradient id="Dégradé_sans_nom_2" cx="-4834.5" cy="213.27" r="3.87" gradientTransform="matrix(-1, 0, 0, 1, -4759.34, 0)" gradientUnits="userSpaceOnUse"><stop offset="0.63" stop-color="#3b438c"/><stop offset="0.69" stop-color="#484f9c"/><stop offset="0.76" stop-color="#555aab"/><stop offset="0.86" stop-color="#5c61b3"/><stop offset="1" stop-color="#5e63b6"/></radialGradient></defs><g id="Shared_Catalogs" data-name="Shared Catalogs"><path class="cls-4" d="M24.44,228.52a103.56,103.56,0,0,1,207.12,0Z"/><path class="cls-5" d="M241,121.73a.5.5,0,0,1-.5-.5V117.3a.5.5,0,0,1,.5-.5.5.5,0,0,1,.5.5v3.93A.5.5,0,0,1,241,121.73Z"/><path class="cls-5" d="M243,119.77h-3.94a.5.5,0,0,1-.5-.5.5.5,0,0,1,.5-.5H243a.5.5,0,0,1,.5.5A.51.51,0,0,1,243,119.77Z"/><path class="cls-5" d="M252.1,221h-3a1,1,0,0,1,0-2h3a1,1,0,1,1,0,2Z"/><path class="cls-5" d="M11.88,221h-9a1,1,0,1,1,0-2h9a1,1,0,0,1,0,2Z"/><path class="cls-5" d="M161.33,230.11H94.14a1,1,0,1,1,0-2h67.19a1,1,0,1,1,0,2Z"/><path class="cls-5" d="M179.09,230.11H170a1,1,0,0,1,0-2h9.14a1,1,0,1,1,0,2Z"/><line class="cls-2" x1="86.26" y1="229.03" x2="81.26" y2="229.11"/><path class="cls-5" d="M81.26,230.11a1,1,0,0,1,0-2l5-.08h0a1,1,0,0,1,0,2l-5,.08Z"/><path class="cls-5" d="M210.16,74.49a1,1,0,0,1-1-1v-7a1,1,0,1,1,2,0v7A1,1,0,0,1,210.16,74.49Z"/><path class="cls-5" d="M213.66,71h-7a1,1,0,0,1,0-2h7a1,1,0,0,1,0,2Z"/><path class="cls-5" d="M35.56,53.14a1,1,0,0,1-1-1v-7a1,1,0,0,1,2,0v7A1,1,0,0,1,35.56,53.14Z"/><path class="cls-5" d="M39.06,49.64h-7a1,1,0,0,1,0-2h7a1,1,0,0,1,0,2Z"/><path class="cls-5" d="M144.71,24.86a.5.5,0,0,1-.5-.5V20.42a.5.5,0,0,1,.5-.5.5.5,0,0,1,.5.5v3.94A.51.51,0,0,1,144.71,24.86Z"/><path class="cls-5" d="M146.68,22.89h-3.94a.5.5,0,0,1,0-1h3.94a.5.5,0,0,1,0,1Z"/><path class="cls-4" d="M186.93,216.89a1,1,0,0,1-1-1V201.64a1,1,0,0,1,2,0v14.25A1,1,0,0,1,186.93,216.89Z"/><path class="cls-5" d="M238.08,221H20.19a1,1,0,1,1,0-2H238.08a1,1,0,0,1,0,2Z"/></g><g id="Reference_Entities" data-name="Reference Entities"><g class="cls-6"><path class="cls-7" d="M183.61,210.89l4.76,1.44a4.17,4.17,0,0,0,4.49-1.41c3-3.84,3.79-8,5-11.33,2.29-6.23,2.28-9.78,2.94-15.37l-7.21-2a76.51,76.51,0,0,1-2.17,10.85c-.61,2.48-7.62,11.09-8.89,16A1.53,1.53,0,0,0,183.61,210.89Z"/><path class="cls-8" d="M189.57,213.51a5.07,5.07,0,0,1-1.49-.22l-4.76-1.44a2.54,2.54,0,0,1-1.73-3.07c.78-3,3.43-7,5.76-10.61a32.07,32.07,0,0,0,3.13-5.34,75.55,75.55,0,0,0,2.14-10.67l.09-1.22,9.21,2.55-.1.85c-.12,1-.22,2-.31,2.89a45.78,45.78,0,0,1-2.68,12.7c-.28.77-.54,1.57-.81,2.4a27.5,27.5,0,0,1-4.37,9.21A5.19,5.19,0,0,1,189.57,213.51Zm-5.67-3.58,4.76,1.44a3.18,3.18,0,0,0,3.41-1.06,25.75,25.75,0,0,0,4.05-8.59c.27-.86.54-1.69.83-2.48A43.59,43.59,0,0,0,199.52,187c.07-.66.14-1.35.22-2.06l-5.26-1.46c-.22,1.51-.76,4.56-2.06,9.81-.28,1.15-1.47,3-3.39,5.95-2.14,3.28-4.81,7.36-5.5,10a.53.53,0,0,0,.37.64Z"/><path class="cls-7" d="M176.58,184l-3.79-8.26-3.59-.94-3,7.49a112.31,112.31,0,0,1-7.67,14.39,14.51,14.51,0,0,0-1.52,2.94,2.94,2.94,0,0,0,2,3.78l4.22,1.28a5.63,5.63,0,0,0,6.46-2.44C173.76,195.42,176.58,184,176.58,184Z"/><path class="cls-8" d="M164.84,206a6.65,6.65,0,0,1-2-.29l-4.22-1.27a4,4,0,0,1-2.43-2.05,3.81,3.81,0,0,1-.19-3,15.56,15.56,0,0,1,1.63-3.15A112.63,112.63,0,0,0,165.24,182l3-7.49.33-.81,4.9,1.27,4.13,9-.08.34c-.12.47-2.9,11.61-7.06,18.51A6.57,6.57,0,0,1,164.84,206ZM169.79,176c-.63,1.57-2,5-2.69,6.68a113.66,113.66,0,0,1-7.76,14.56,13.84,13.84,0,0,0-1.42,2.74,1.8,1.8,0,0,0,.1,1.45,2,2,0,0,0,1.22,1l4.22,1.28a4.62,4.62,0,0,0,5.32-2c3.61-6,6.24-15.7,6.74-17.62l-3.44-7.51Z"/><path class="cls-8" d="M166.45,188l-.89-1.47,1.46-.66.21.45-.48.22,1.61.1.16,1.2Zm.12-.77.15.25,1.23-.09,0-.28-.82-.05-.07.28Zm-.29-.48.21.34.12-.49Z"/><path class="cls-7" d="M175.86,157.31c4.22,1.18,9-.52,17.69,1.67a7.43,7.43,0,0,1,.92-1.34c2.56-2.89,7.66-11.89,8.17-18.66l.41-5.35a24.12,24.12,0,0,1,1-5.19h0a10.85,10.85,0,0,1,.82-2l.27-.46a10.5,10.5,0,0,1,.9-1.28l.34-.39c.24-.25.48-.49.74-.72s.52-.44.79-.65a10.89,10.89,0,0,1,2.69-1.44,8.51,8.51,0,0,1,1-.3,10.55,10.55,0,0,1,5.73.12l1.66.5a10.57,10.57,0,0,1,6.3,5.16c.16.3.31.61.44.92a11.06,11.06,0,0,1,.57,1.77c.05.23.09.46.13.69s.05.34.07.52a11.51,11.51,0,0,1,.05,1.56,9.34,9.34,0,0,1-.19,1.58,9.64,9.64,0,0,1-.26,1.06h0a2.64,2.64,0,0,1-3.3,1.77l-10.43-3.15-1.15,9.53c-1,9.85-3.4,15.9-6.08,19.61-.6.83-3.41,3.55-3.41,3.55,2.73,9.8,9.63,15.81,17.87,19.44,7,3.08,24.68,1.19,18.91-8.92s2.56-2.39,3.71-1,7.29,11.11-4.92,18.92c-5.17,3.31-10.72,6.06-22.06,6-1.82,0-11.12-2.09-16.45-2.17-15.86-.22-26.35-8.35-30.09-20S174.19,156.84,175.86,157.31Z"/><path class="cls-8" d="M215.4,201.89h-.21a42.26,42.26,0,0,1-4.79-.69,91.31,91.31,0,0,0-11.67-1.48c-15.34-.21-26.94-7.95-31-20.69-3-9.24,1.79-17.47,5.07-20.88,2.08-2.17,3-1.9,3.36-1.81h0a20.36,20.36,0,0,0,5.64.43,43.69,43.69,0,0,1,11.31,1.06,6.87,6.87,0,0,1,.64-.86c2.43-2.74,7.43-11.6,7.93-18.06l.4-5.36a25.37,25.37,0,0,1,1-5.39A11.91,11.91,0,0,1,204,126c.09-.17.19-.34.29-.5a12.6,12.6,0,0,1,1-1.4l.38-.42a9.94,9.94,0,0,1,.8-.79c.28-.25.57-.49.87-.71a11.44,11.44,0,0,1,2.94-1.58,10.16,10.16,0,0,1,1.07-.33,11.68,11.68,0,0,1,6.26.13l1.67.51a11.53,11.53,0,0,1,6.9,5.64c.17.33.33.66.47,1a11.15,11.15,0,0,1,.62,1.93c.06.25.11.51.15.76s0,.37.07.56a12.22,12.22,0,0,1,.06,1.71,11.2,11.2,0,0,1-.21,1.73,11.52,11.52,0,0,1-.28,1.16,3.66,3.66,0,0,1-4.55,2.44L213.17,135l-1,8.35c-.85,8.75-3,15.52-6.26,20.08a44.59,44.59,0,0,1-3.09,3.26C205.26,174.87,211,181,220,184.93c4.8,2.12,14.6,1.59,17.67-1.82,1.32-1.47,1.32-3.33,0-5.68-2.28-4-2.67-5.61-1.55-6.38,2-1.35,6.86,4.21,6.9,4.27a13.65,13.65,0,0,1,2.64,10c-.63,4-3.26,7.46-7.79,10.37C232.9,198.84,227.15,201.89,215.4,201.89Zm-39.67-43.58c-.57.22-2.45,1.82-4.18,4.86-1.64,2.86-4.06,8.65-2,15.25,3.88,12.06,14.5,19.1,29.15,19.3a92.1,92.1,0,0,1,12,1.51c2,.34,3.86.66,4.46.66h.22c11.21,0,16.47-2.77,21.3-5.86,4-2.58,6.36-5.61,6.9-9a11.81,11.81,0,0,0-2.21-8.46,24.65,24.65,0,0,0-3.66-3.27,29.57,29.57,0,0,0,1.59,3.13c2.24,3.92,1.11,6.52-.22,8-4,4.4-14.91,4.55-20,2.32-9.7-4.27-15.9-11-18.42-20.08l-.16-.57.42-.42c1.07-1,2.9-2.86,3.3-3.42,3.09-4.27,5.07-10.7,5.89-19.12l1.3-10.73,11.56,3.5a1.67,1.67,0,0,0,1.26-.13,1.62,1.62,0,0,0,.8-1,8.42,8.42,0,0,0,.24-1,9.79,9.79,0,0,0,.17-1.43,9.63,9.63,0,0,0-.05-1.42,3.62,3.62,0,0,0-.06-.46q0-.31-.12-.63a10,10,0,0,0-.51-1.6,8.09,8.09,0,0,0-.4-.84,9.53,9.53,0,0,0-5.7-4.67l-1.67-.5a9.54,9.54,0,0,0-5.19-.11,9.13,9.13,0,0,0-.89.27,9.9,9.9,0,0,0-2.44,1.31c-.24.18-.49.38-.72.58s-.45.43-.66.66l-.31.35a9.66,9.66,0,0,0-.82,1.16l-.24.41a10.52,10.52,0,0,0-.75,1.8,23.41,23.41,0,0,0-.92,5l-.41,5.36c-.53,7-5.77,16.25-8.43,19.24a7,7,0,0,0-.78,1.16l-.38.67-.74-.18a41.41,41.41,0,0,0-11.53-1.18A22.58,22.58,0,0,1,175.73,158.31Zm-.14,0Z"/><path class="cls-7" d="M189.1,146.19c3.59-10.68-2.41-21.73-11.59-26.46-1.9-1-2.37-1.82-4.58-2.48l-1.69-.51a10.77,10.77,0,0,0-13.43,7.2,2.67,2.67,0,0,0,1.79,3.34L177,132.54l1.42.43-1.42-.43c3.34,2.79,4.25,8.41,3.87,11.17a15.56,15.56,0,0,1-3.94,9,10.61,10.61,0,0,0-2.42,5.06l.09.06a20.31,20.31,0,0,0-.44,3.13c2-.65,5-1.59,5.57-1.7,1.16-.23,3.79-.75,5-1C192.33,156.49,187.06,152.26,189.1,146.19Z"/><path class="cls-8" d="M173.09,162.38l.1-1.48a22.92,22.92,0,0,1,.33-2.64l-.09-.07.14-.63a11.5,11.5,0,0,1,2.67-5.53,14.7,14.7,0,0,0,3.67-8.45c.31-2.26-.38-7.51-3.38-10.15l-17.21-5.19a3.65,3.65,0,0,1-2.19-1.79,3.69,3.69,0,0,1-.28-2.8,11.77,11.77,0,0,1,14.68-7.87l1.69.51a10,10,0,0,1,3.13,1.56,17,17,0,0,0,1.62,1c8.84,4.55,16.07,15.79,12.08,27.67h0a11.69,11.69,0,0,0-.23,5.59c.37,2.86.76,5.82-4.86,7.12-1.4.33-4.64,1-5,1s-3.22.94-5.45,1.67Zm2.58-5h0l-.08.7c-.11.47-.2,1-.27,1.49,1.69-.54,3.73-1.16,4.23-1.26s3.57-.7,4.94-1c3.85-.88,3.7-2.06,3.32-4.91a13.71,13.71,0,0,1,.32-6.49h0c3.64-10.82-3-21.09-11.09-25.25a17.88,17.88,0,0,1-1.84-1.12,8.16,8.16,0,0,0-2.58-1.3l-1.69-.51a9.79,9.79,0,0,0-12.18,6.54,1.7,1.7,0,0,0,1.12,2.1c5.87,1.77,17.07,5.15,17.41,5.24l.73.22.51.16.18.05h0a.81.81,0,0,1,.44.25l1.14,1.14-.89.3a16.13,16.13,0,0,1,2.49,10.15,16.72,16.72,0,0,1-4.22,9.57A9,9,0,0,0,175.67,157.35Z"/><path class="cls-9" d="M179.81,157c.42-1.69.42-2.62.82-3.24,2.25-3.57,3-4.7,4.22-8.83a13,13,0,0,0-2.77-12.09,7,7,0,0,0-5.05-.27c3.34,2.79,4.25,8.41,3.87,11.17a15.53,15.53,0,0,1-3.94,9,10.61,10.61,0,0,0-2.42,5.06s4.17,3.18,5.27-.81"/><path class="cls-8" d="M177.6,159.48a6.44,6.44,0,0,1-3.36-1.31L174,158l.06-.31a11.2,11.2,0,0,1,2.55-5.29,15.22,15.22,0,0,0,3.81-8.73c.39-2.88-.68-8.21-3.7-10.72l-.68-.57.83-.29a7,7,0,0,1,5.59.41,13.49,13.49,0,0,1,2.88,12.57,28.49,28.49,0,0,1-4.22,8.85l-.06.1a4.23,4.23,0,0,0-.4,1.44c-.09.46-.19,1-.35,1.65v0a3,3,0,0,1-1.83,2.24A2.87,2.87,0,0,1,177.6,159.48Zm-2.5-1.92c.7.46,2.08,1.16,3.05.84a2,2,0,0,0,1.18-1.55c.16-.63.25-1.15.33-1.59a5.2,5.2,0,0,1,.54-1.79l.06-.1a27.35,27.35,0,0,0,4.11-8.61,12.44,12.44,0,0,0-2.67-11.61,6.94,6.94,0,0,0-3.67-.36c2.9,3,3.75,8.21,3.37,11a16.16,16.16,0,0,1-4.08,9.29A10,10,0,0,0,175.1,157.56Z"/><path class="cls-2" d="M165.3,116.85a3,3,0,0,1,2.55-2l1.73-.16s.38,2.58-1,2.78A4.75,4.75,0,0,1,165.3,116.85Z"/><path class="cls-8" d="M167.82,118.06a5,5,0,0,1-2.81-.8l-.29-.21.1-.34a3.44,3.44,0,0,1,3-2.33l2.2-.2.07.46a4.32,4.32,0,0,1-.43,2.76,1.41,1.41,0,0,1-1,.59A5.09,5.09,0,0,1,167.82,118.06Zm-1.88-1.42a4.48,4.48,0,0,0,2.57.36.47.47,0,0,0,.33-.2,2.75,2.75,0,0,0,.28-1.54l-1.23.11A2.41,2.41,0,0,0,165.94,116.64Z"/><path class="cls-2" d="M170.16,116.94a3.14,3.14,0,0,1,3.67-2c.53.09,1.87.53,1.87.53s-.17,2.78-1.7,2.59A14.64,14.64,0,0,1,170.16,116.94Z"/><path class="cls-8" d="M174.14,118.61h-.2a14.9,14.9,0,0,1-4-1.21l-.4-.18.14-.42a3.62,3.62,0,0,1,4.22-2.31c.55.1,1.8.5,1.94.55l.37.12,0,.38a4.35,4.35,0,0,1-1.06,2.72A1.49,1.49,0,0,1,174.14,118.61Zm-3.3-1.92a13.07,13.07,0,0,0,3.22.91.51.51,0,0,0,.43-.12,2.88,2.88,0,0,0,.66-1.62,12.56,12.56,0,0,0-1.41-.39A2.64,2.64,0,0,0,170.84,116.69Z"/><path class="cls-2" d="M175.58,118.84s1.19-2.62,3.41-1.13a3.59,3.59,0,0,1,1.29,1.6s-1.12,1.93-2,1.4A20.49,20.49,0,0,1,175.58,118.84Z"/><path class="cls-8" d="M178.6,121.3a1.2,1.2,0,0,1-.59-.15,19.4,19.4,0,0,1-2.75-1.94L175,119l.16-.34a3.44,3.44,0,0,1,1.93-1.79,2.63,2.63,0,0,1,2.21.45,4.11,4.11,0,0,1,1.48,1.86l.08.21-.12.2c-.08.15-.86,1.46-1.79,1.7A1.22,1.22,0,0,1,178.6,121.3Zm-2.37-2.58a19.88,19.88,0,0,0,2.28,1.56.14.14,0,0,0,.15,0c.33-.08.77-.59,1.05-1a3.13,3.13,0,0,0-1-1.15,1.65,1.65,0,0,0-1.38-.32A2.13,2.13,0,0,0,176.23,118.72Z"/><path class="cls-2" d="M178.69,134.2s6.64-1.38,7.13-6.92a31.9,31.9,0,0,1,2.46,4.56c-.31,1-1.35,5.13-7.77,6.15A31.41,31.41,0,0,0,178.69,134.2Z"/><path class="cls-8" d="M180.24,138.54l-.17-.32c-.27-.53-.51-1.09-.73-1.63a11.08,11.08,0,0,0-1.05-2.1l-.46-.62.76-.16c.06,0,6.28-1.38,6.73-6.48l.13-1.41.79,1.18a32.47,32.47,0,0,1,2.51,4.66l.06.16-.05.16c-1.09,3.66-3.83,5.81-8.17,6.51Zm-.76-4c.28.51.52,1.1.78,1.71.17.4.35.82.54,1.23,5.5-1,6.59-4.37,6.95-5.58a29.67,29.67,0,0,0-1.67-3.22C185,132.42,181.07,134,179.48,134.5Z"/><path class="cls-9" d="M166.23,116.59a1.52,1.52,0,0,1,1.31-1l.9-.08s.2,1.33-.51,1.44A2.45,2.45,0,0,1,166.23,116.59Z"/><path class="cls-9" d="M171.51,116.74a1.6,1.6,0,0,1,1.87-1c.27.05,1,.27,1,.27s-.08,1.42-.86,1.32A7.62,7.62,0,0,1,171.51,116.74Z"/><path class="cls-9" d="M176.52,118.9s.63-1.38,1.81-.59a1.86,1.86,0,0,1,.68.85s-.59,1-1.07.74A10.79,10.79,0,0,1,176.52,118.9Z"/><path class="cls-10" d="M172.15,123.81h.48a2.48,2.48,0,0,1,2.48,2.48v0a2.48,2.48,0,0,1-2.48,2.48h-5.45a0,0,0,0,1,0,0v0a5,5,0,0,1,5-5Z" transform="translate(43.84 -44.1) rotate(16.81)"/><path class="cls-2" d="M171.07,124.63h1a2,2,0,0,1,2,2v0a2,2,0,0,1-2,2h-4.89a0,0,0,0,1,0,0v0A3.9,3.9,0,0,1,171.07,124.63Z" transform="translate(43.9 -43.92) rotate(16.81)"/><path class="cls-8" d="M172,129.46a2.15,2.15,0,0,1-.71-.11l-5.17-1.56.15-.47a4.4,4.4,0,0,1,5.49-2.94l.94.28a2.44,2.44,0,0,1,1.46,1.19,2.48,2.48,0,0,1,.18,1.87,2.45,2.45,0,0,1-2.34,1.74Zm-.42-1.06a1.44,1.44,0,0,0,1.8-1,1.45,1.45,0,0,0-1-1.81l-.94-.29a3.41,3.41,0,0,0-4.06,1.81Z"/><circle class="cls-8" cx="168.95" cy="127.01" r="1.09"/><path class="cls-8" d="M159.6,126.43h0a1.34,1.34,0,0,0,.89-.24l.49-.33-.83-.07-.49,0a.34.34,0,0,0-.37.31h0A.34.34,0,0,0,159.6,126.43Z"/><path class="cls-4" d="M179.63,134.59s5.1-1,6.47-5.82a9.46,9.46,0,0,1,1.72,3,8.07,8.07,0,0,1-2.42,3C183.25,136,181.4,136.05,179.63,134.59Z"/><path class="cls-2" d="M184,135a16.44,16.44,0,0,1-4.21,1.57"/><path class="cls-8" d="M179.91,137.08l-.17-1a16.5,16.5,0,0,0,4.06-1.52l.48.88A17.11,17.11,0,0,1,179.91,137.08Z"/><path class="cls-7" d="M195.66,158.73l-.39-2.22c-.94-10.09.09-15.53,4.57-23.53l2.63-4.69a24.13,24.13,0,0,0,2.06-4.85h0a10.62,10.62,0,0,0-7.1-13.25l-1.65-.5a10.49,10.49,0,0,0-13.08,7l-.08.29a2.5,2.5,0,0,0,1.67,3.11l10.4,3.14-4.31,8.57c-12.15,22.79-14.64,32.77-4.52,33.62"/><path class="cls-8" d="M185.77,166.43c-3.18-.27-5.26-1.38-6.36-3.4-2.47-4.55.36-13.44,10.09-31.69l3.77-7.49-9.27-2.8a3.49,3.49,0,0,1-2.34-4.35l.09-.29a11.5,11.5,0,0,1,14.32-7.68l1.64.5a11.62,11.62,0,0,1,7.78,14.5,25.23,25.23,0,0,1-2.15,5l-2.63,4.69c-4.38,7.82-5.38,13-4.45,22.94l.39,2.15-2,.35-.4-2.23c-1-10.42.12-16.05,4.69-24.19l2.63-4.68a23.27,23.27,0,0,0,2-4.66,9.63,9.63,0,0,0-6.43-12l-1.65-.49A9.5,9.5,0,0,0,183.66,117l-.08.28a1.46,1.46,0,0,0,.11,1.14,1.48,1.48,0,0,0,.88.73l11.55,3.49-4.84,9.63c-6.45,12.09-12.69,25.07-10.11,29.81.75,1.38,2.31,2.16,4.77,2.37Z"/><path class="cls-2" d="M190.39,109.38a3.27,3.27,0,0,1,2.67-1.89,2.82,2.82,0,0,1,1.37.43s.53,1.89-.82,2.09A4.7,4.7,0,0,1,190.39,109.38Z"/><path class="cls-8" d="M192.86,110.56a5,5,0,0,1-2.76-.78l-.32-.23.15-.36A3.75,3.75,0,0,1,193,107a3.21,3.21,0,0,1,1.67.5l.17.11,0,.18a2.83,2.83,0,0,1-.17,2.07,1.47,1.47,0,0,1-1.06.65A5.87,5.87,0,0,1,192.86,110.56Zm-1.79-1.38a4.3,4.3,0,0,0,2.47.33.48.48,0,0,0,.36-.2,1.71,1.71,0,0,0,.09-1.07,1.91,1.91,0,0,0-.89-.25A2.71,2.71,0,0,0,191.07,109.18Z"/><path class="cls-2" d="M194.74,110.05a3.55,3.55,0,0,1,4.15-2.22,7.79,7.79,0,0,1,1.34.39s.59,3.36-1.14,3.15A16.88,16.88,0,0,1,194.74,110.05Z"/><path class="cls-8" d="M199.24,111.88l-.21,0a17.18,17.18,0,0,1-4.5-1.35l-.4-.19.14-.42a4,4,0,0,1,4.7-2.56,9.18,9.18,0,0,1,1.44.41l.26.1.05.28c.05.24.4,2.41-.48,3.33A1.34,1.34,0,0,1,199.24,111.88Zm-3.83-2.08a15.29,15.29,0,0,0,3.74,1.07.39.39,0,0,0,.37-.1,3.35,3.35,0,0,0,.26-2.18,6.7,6.7,0,0,0-1-.27A3.08,3.08,0,0,0,195.41,109.8Z"/><path class="cls-2" d="M200.15,112.38s1.23-2.53,3.36-1a3.53,3.53,0,0,1,1.22,1.6s-1.13,1.86-2,1.32A18.81,18.81,0,0,1,200.15,112.38Z"/><path class="cls-8" d="M203.07,114.88a1.19,1.19,0,0,1-.61-.17,20.88,20.88,0,0,1-2.65-2l-.27-.26.16-.33a3.42,3.42,0,0,1,1.94-1.71,2.58,2.58,0,0,1,2.16.5,4,4,0,0,1,1.41,1.86l.07.22-.12.19a3.74,3.74,0,0,1-1.8,1.63Zm-2.27-2.6a19.6,19.6,0,0,0,2.19,1.58.13.13,0,0,0,.13,0,2.51,2.51,0,0,0,1-1,3,3,0,0,0-.95-1.14,1.58,1.58,0,0,0-1.33-.35A2,2,0,0,0,200.8,112.28Z"/><path class="cls-9" d="M176.18,157.05a4.86,4.86,0,0,1,2-.31"/><path class="cls-8" d="M176.35,157.52l-.35-.94a5.62,5.62,0,0,1,2.16-.34l0,1A4.5,4.5,0,0,0,176.35,157.52Z"/><path class="cls-9" d="M179.64,158c.39-7.43,7.45-19.72,9-22.8l6.17-12.36,1,.29a2.35,2.35,0,0,1,1.22,3.19l-5,10.81c-1.71,3.67-7.63,21.22-2.13,27,1.17,1.25,3.64,1.41,4.63,1.26,3.62-.56,5.72-4.22,7.38-7.19,3.42-6.15,3.86-11.65,5.1-16.9l1.61-6.55a2.39,2.39,0,0,1,2.76-1.79l1.19.36-1.8,13.68c-.48,3.91-2.71,17.28-12.11,21-.17.07,1.67,1.11.79,2-3.5,3.34-10.3,2-12.06,3.33-6.81,5.2-6.6,20.72-6.6,20.72a36.12,36.12,0,0,1-7.08-7.68c-5.61-9.23-3.57-19.53-2.72-22.48,1-3.53,2.61-5.44,4.14-6.4"/><path class="cls-8" d="M181.26,195.15l-.83-.66a35.93,35.93,0,0,1-7.19-7.81c-6.06-10-3.38-20.8-2.78-22.88.93-3.21,2.39-5.45,4.36-6.68l.53.84c-1.73,1.08-3.08,3.2-3.93,6.12-.35,1.23-3.29,12.28,2.67,22.08a33.09,33.09,0,0,0,6.16,6.87c.09-3.66.84-15.5,6.78-20.05.8-.61,2.25-.73,4.08-.88,2.64-.21,5.93-.49,7.95-2.42.08-.08.08-.12.08-.14,0-.25-.48-.67-.66-.83s-.43-.38-.38-.69l.05-.28.27-.11c9.05-3.6,11.33-16.69,11.81-20.62L212,133.75l-.78-.24a1.5,1.5,0,0,0-1.15.18,2.06,2.06,0,0,0-1,1.25l-1.62,6.55c-.28,1.2-.52,2.41-.76,3.64-.85,4.22-1.71,8.58-4.39,13.38-1.6,2.89-3.81,6.84-7.73,7.44-1,.16-3.73,0-5.07-1.4-5.91-6.24.59-24.49,2-27.59l5-10.81a2,2,0,0,0,0-1.64,1.5,1.5,0,0,0-.91-.86l-.57-.17-6,12c-.21.42-.52,1-.9,1.72-2.31,4.36-7.71,14.57-8,20.88l-1-.05c.34-6.54,5.62-16.5,8.16-21.29.37-.72.68-1.29.89-1.71l6.36-12.73,1.38.41a2.5,2.5,0,0,1,1.53,1.41,3,3,0,0,1,0,2.47l-5,10.81c-2,4.27-7.37,21-2.22,26.48,1,1.07,3.28,1.25,4.2,1.1,3.44-.52,5.5-4.23,7-6.94,2.6-4.66,3.45-9,4.27-13.09.25-1.24.5-2.46.78-3.67l1.62-6.56a3.06,3.06,0,0,1,1.45-1.88,2.44,2.44,0,0,1,1.94-.26l1.59.48-1.85,14.1c-.49,4-2.75,17-11.75,21.13a1.9,1.9,0,0,1,.67,1.25,1.17,1.17,0,0,1-.39.89c-2.28,2.17-5.76,2.46-8.56,2.69-1.54.13-3,.24-3.55.68-6.52,5-6.4,20.16-6.4,20.31Z"/><path class="cls-2" d="M240.42,182.69a3,3,0,0,0,1.34-2.69,2.57,2.57,0,0,0-.59-1.19s-1.79-.22-1.78,1A4.27,4.27,0,0,0,240.42,182.69Z"/><path class="cls-8" d="M240.34,183.32l-.27-.28a4.68,4.68,0,0,1-1.18-3.18,1.36,1.36,0,0,1,.46-1.09,2.63,2.63,0,0,1,1.88-.45l.19,0,.13.14a3,3,0,0,1,.71,1.48,3.5,3.5,0,0,1-1.58,3.16Zm.55-4a1.48,1.48,0,0,0-.88.22.38.38,0,0,0-.12.33,4,4,0,0,0,.62,2.13,2.47,2.47,0,0,0,.75-1.95,1.86,1.86,0,0,0-.34-.73Z"/><path class="cls-9" d="M240.57,180.9a1.07,1.07,0,0,0,.47-1,1,1,0,0,0-.21-.41s-.63-.08-.63.36A1.52,1.52,0,0,0,240.57,180.9Z"/><path class="cls-2" d="M228.84,188.67a3.31,3.31,0,0,1,2.63-3.51,7.9,7.9,0,0,1,1.28-.2s1.82,2.62.27,3.11A15.71,15.71,0,0,1,228.84,188.67Z"/><path class="cls-8" d="M228.87,189.17h-.48l0-.43a3.8,3.8,0,0,1,3-4,8,8,0,0,1,1.38-.21l.28,0,.16.23c.22.31,1.28,1.92.91,3a1.32,1.32,0,0,1-.9.84A16,16,0,0,1,228.87,189.17Zm3.63-3.68a5.53,5.53,0,0,0-.9.16,2.79,2.79,0,0,0-2.26,2.5,14.32,14.32,0,0,0,3.53-.55.36.36,0,0,0,.25-.21A3.18,3.18,0,0,0,232.5,185.49Z"/><path class="cls-9" d="M230,188a1.83,1.83,0,0,1,1.46-1.94,4.85,4.85,0,0,1,.71-.11s1,1.45.15,1.73A8.36,8.36,0,0,1,230,188Z"/><path class="cls-2" d="M238.76,183.19s1.33,2.12-.83,3a3.08,3.08,0,0,1-1.79.15s-.85-1.73,0-2.14A17.68,17.68,0,0,1,238.76,183.19Z"/><path class="cls-8" d="M236.77,186.93a3.66,3.66,0,0,1-.75-.08l-.22-.06-.1-.2a3.36,3.36,0,0,1-.37-2.17,1.09,1.09,0,0,1,.55-.64,16.26,16.26,0,0,1,2.75-1.07l.36-.1.2.32a3.07,3.07,0,0,1,.37,2.31,2.32,2.32,0,0,1-1.44,1.43A3.6,3.6,0,0,1,236.77,186.93Zm-.28-1a2.53,2.53,0,0,0,1.25-.17,1.37,1.37,0,0,0,.87-.8,1.77,1.77,0,0,0-.11-1.15,18.9,18.9,0,0,0-2.18.88A2,2,0,0,0,236.49,185.91Z"/><path class="cls-9" d="M238.16,184.23s.59.94-.37,1.34a1.36,1.36,0,0,1-.79.07s-.38-.77,0-.95A7.52,7.52,0,0,1,238.16,184.23Z"/><path class="cls-2" d="M219.82,187.3a2.55,2.55,0,0,1,2.62-2.42c2.58-.14,3,.75,3,.75s.64,2.55-.72,2.9S219.82,187.3,219.82,187.3Z"/><path class="cls-8" d="M224.26,189.07a15,15,0,0,1-4.64-1.31l-.3-.14v-.33a3,3,0,0,1,3.1-2.91c2.77-.16,3.37.84,3.47,1,.31,1.22.39,3.23-1.06,3.6A2.49,2.49,0,0,1,224.26,189.07ZM220.37,187c1.34.57,3.41,1.26,4.21,1s.5-1.66.39-2.2c-.13-.13-.69-.56-2.5-.46A2,2,0,0,0,220.37,187Z"/><path class="cls-9" d="M221.06,187.15a1.32,1.32,0,0,1,1.36-1.26c1.34-.07,1.56.39,1.56.39s.33,1.33-.38,1.51A6.42,6.42,0,0,1,221.06,187.15Z"/><path class="cls-2" d="M193.34,125.9a11.76,11.76,0,0,0,8.86,2.9l-2.56,4.54s-5.27,0-8.29-3.45C192.38,127.86,193.34,125.9,193.34,125.9Z"/><path class="cls-8" d="M199.63,133.84c-.33,0-5.56-.06-8.66-3.62l-.22-.25.15-.3c1-2,2-4,2-4l.32-.64.49.52a11.44,11.44,0,0,0,8.47,2.74l.91-.05-.44.8-2.56,4.54-.14.25h-.31Zm-7.68-4c2.46,2.58,6.33,3,7.41,3l2-3.51a12.41,12.41,0,0,1-7.83-2.61C193.16,127.39,192.58,128.57,192,129.81Z"/><path class="cls-2" d="M223.93,124.86a3.29,3.29,0,0,0-1.19-3.07,9.33,9.33,0,0,0-1.91-.87s-1,1.76,0,2.68A4.7,4.7,0,0,0,223.93,124.86Z"/><path class="cls-8" d="M223.9,125.36a5.2,5.2,0,0,1-3.36-1.39c-1.3-1.17-.19-3.21-.15-3.3l.21-.36.39.13a9.93,9.93,0,0,1,2.07,1,3.78,3.78,0,0,1,1.36,3.56l-.08.39h-.44Zm-2.8-3.81c-.18.47-.36,1.25.11,1.68a4.41,4.41,0,0,0,2.26,1.1,2.77,2.77,0,0,0-1-2.15A6.69,6.69,0,0,0,221.1,121.55Z"/><path class="cls-2" d="M219.72,122.6a3.09,3.09,0,0,0-1.94-3.61,7.31,7.31,0,0,0-1.15-.37s-2.06,2.16-.7,2.84A14.81,14.81,0,0,0,219.72,122.6Z"/><path class="cls-8" d="M220.08,123.16l-.43-.06a15.1,15.1,0,0,1-3.94-1.2A1.23,1.23,0,0,1,215,121c-.19-1.09,1-2.44,1.27-2.7l.2-.2.27.06a7.77,7.77,0,0,1,1.26.4,3.57,3.57,0,0,1,2.21,4.2Zm-3.28-4c-.43.5-.9,1.24-.83,1.62,0,0,0,.13.19.21a13.27,13.27,0,0,0,3.14,1,2.6,2.6,0,0,0-1.72-2.58A5.94,5.94,0,0,0,216.8,119.18Z"/><path class="cls-2" d="M214.5,121.22s.38-2.81-2.25-2.73a3.5,3.5,0,0,0-1.92.66s-.08,2.19.95,2.23A19.21,19.21,0,0,0,214.5,121.22Z"/><path class="cls-8" d="M211.9,121.89h-.64a1.17,1.17,0,0,1-.82-.38,3.78,3.78,0,0,1-.61-2.37v-.23l.18-.14a4,4,0,0,1,2.21-.77,2.61,2.61,0,0,1,2.1.78,3.42,3.42,0,0,1,.67,2.51l-.05.37-.37.06A18.65,18.65,0,0,1,211.9,121.89Zm-1.07-2.47a2.5,2.5,0,0,0,.34,1.39.15.15,0,0,0,.12.07,19.22,19.22,0,0,0,2.73-.11,2.1,2.1,0,0,0-.44-1.33,1.64,1.64,0,0,0-1.32-.45A2.91,2.91,0,0,0,210.83,119.42Z"/><path class="cls-9" d="M191.45,109.21a1.74,1.74,0,0,1,1.42-1,1.46,1.46,0,0,1,.73.23s.29,1-.44,1.11A2.45,2.45,0,0,1,191.45,109.21Z"/><path class="cls-9" d="M195.91,109.9a2.25,2.25,0,0,1,2.61-1.4,5.24,5.24,0,0,1,.83.25s.38,2.11-.71,2A10.72,10.72,0,0,1,195.91,109.9Z"/><path class="cls-9" d="M201.26,112.42s.71-1.46,1.94-.59a2.06,2.06,0,0,1,.71.93s-.66,1.07-1.16.76A10.73,10.73,0,0,1,201.26,112.42Z"/><path class="cls-9" d="M223.19,124.14a1.75,1.75,0,0,0-.63-1.62,5,5,0,0,0-1-.46s-.52.93,0,1.41A2.44,2.44,0,0,0,223.19,124.14Z"/><path class="cls-9" d="M218.79,121.85a1.71,1.71,0,0,0-1.07-2,3.94,3.94,0,0,0-.64-.2s-1.14,1.19-.38,1.57A8,8,0,0,0,218.79,121.85Z"/><path class="cls-9" d="M213.6,120.75s.21-1.54-1.23-1.5a2,2,0,0,0-1.05.37s0,1.2.52,1.21A10.06,10.06,0,0,0,213.6,120.75Z"/><path class="cls-2" d="M203,133.84a27.3,27.3,0,0,0,9.07,2.35c-.29,2.5-.56,4.38-.56,4.38s-3.65,1.14-8.89-1.74C202.92,135.58,203,133.84,203,133.84Z"/><path class="cls-8" d="M209.57,141.29a14.85,14.85,0,0,1-7.16-2l-.28-.15,0-.32c.26-3.25.37-5,.37-5l.05-.74.67.32a27,27,0,0,0,8.87,2.3l.54,0-.06.53c-.3,2.51-.57,4.39-.57,4.39l0,.31-.3.09A7.26,7.26,0,0,1,209.57,141.29Zm-6.39-2.75a12.41,12.41,0,0,0,7.91,1.62c.08-.59.26-1.88.45-3.51a27.5,27.5,0,0,1-8.06-2.06C203.43,135.34,203.33,136.67,203.18,138.54Z"/><path class="cls-10" d="M210.19,127.09h5.45a2.48,2.48,0,0,1,2.48,2.48v0a2.48,2.48,0,0,1-2.48,2.48h-.48a5,5,0,0,1-5-5v0a0,0,0,0,1,0,0Z" transform="translate(381.69 315.54) rotate(-163.19)"/><path class="cls-2" d="M211,128.17h4.76a2.09,2.09,0,0,1,2.09,2.09v0a1.81,1.81,0,0,1-1.81,1.81h-1.13a3.9,3.9,0,0,1-3.9-3.9v0A0,0,0,0,1,211,128.17Z" transform="translate(382.12 316.71) rotate(-163.19)"/><path class="cls-8" d="M217.5,133.6l-5-1.51a2.6,2.6,0,0,1-1.73-3.23,2.3,2.3,0,0,1,1.13-1.37,2.34,2.34,0,0,1,1.76-.18l1.08.33a4.41,4.41,0,0,1,2.94,5.49Zm-4.74-2.47,4,1.22a3.41,3.41,0,0,0-2.38-3.75l-1.08-.33a1.29,1.29,0,0,0-1,.1,1.31,1.31,0,0,0-.64.78,1.59,1.59,0,0,0,1.06,2Z"/><circle class="cls-8" cx="215.57" cy="130.15" r="1.09"/><path class="cls-10" d="M195.65,116.28h.48a2.48,2.48,0,0,1,2.48,2.48v0a2.48,2.48,0,0,1-2.48,2.48h-5.45a0,0,0,0,1,0,0v0a5,5,0,0,1,5-5Z" transform="translate(42.66 -51.21) rotate(16.81)"/><path class="cls-2" d="M194.57,117.1h1a2,2,0,0,1,2,2v0a2,2,0,0,1-2,2h-4.89a0,0,0,0,1,0,0v0A3.9,3.9,0,0,1,194.57,117.1Z" transform="translate(42.72 -51.04) rotate(16.81)"/><path class="cls-8" d="M195.5,121.93a2.15,2.15,0,0,1-.71-.11l-5.17-1.56.15-.47a4.4,4.4,0,0,1,5.49-2.94l.94.28a2.45,2.45,0,0,1-.7,4.8Zm-4.59-2.32,4.17,1.26a1.46,1.46,0,0,0,1.1-.11,1.51,1.51,0,0,0,.71-.86,1.46,1.46,0,0,0-1-1.81l-.95-.29a3.39,3.39,0,0,0-2.59.26A3.29,3.29,0,0,0,190.91,119.61Z"/><circle class="cls-8" cx="195.05" cy="120.17" r="1.09"/><path class="cls-8" d="M223.19,136.08h0a1.33,1.33,0,0,1-.61-.69l-.22-.55.73.4.43.24a.35.35,0,0,1,.13.47h0A.34.34,0,0,1,223.19,136.08Z"/><path class="cls-8" d="M184.45,119.05h0a1.35,1.35,0,0,0,.89-.23l.48-.34-.83-.07-.49,0a.34.34,0,0,0-.36.32h0A.33.33,0,0,0,184.45,119.05Z"/><path class="cls-4" d="M193.58,126.71a11.93,11.93,0,0,0,7.76,2.5,32.15,32.15,0,0,1-1.82,3.24,20.24,20.24,0,0,1-3.87-1.35C193.55,130,193,128.71,193.58,126.71Z"/><path class="cls-2" d="M198.1,131.29a13.87,13.87,0,0,1-5.94-3"/><path class="cls-8" d="M198,131.78a14.16,14.16,0,0,1-6.17-3.15l.69-.71a13.41,13.41,0,0,0,5.69,2.89Z"/><path class="cls-4" d="M210.15,136.56a16.73,16.73,0,0,1-6.6-1.59,25.13,25.13,0,0,0,0,3.24S208.28,139,210.15,136.56Z"/><path class="cls-9" d="M198.59,168.14s-.25.09-.6.18"/><path class="cls-8" d="M198.05,168.56l-.12-.48.58-.17.16.47S198.41,168.47,198.05,168.56Z"/><path class="cls-2" d="M210.09,138a27.73,27.73,0,0,1-7.22-1.94"/><path class="cls-8" d="M210,138.46a28.32,28.32,0,0,1-7.37-2l.4-.92a27.33,27.33,0,0,0,7.07,1.9Z"/><path class="cls-2" d="M182.85,207.61a1.74,1.74,0,0,0-2.22-.39c-1.4.58-2.67,1.74-2.21,2a5.5,5.5,0,0,0,2.28.81c.85.1,1.51.47,2.34-1.12A1.17,1.17,0,0,0,182.85,207.61Z"/><path class="cls-8" d="M181.57,210.42a3.68,3.68,0,0,1-.58-.06l-.32-.05a5.63,5.63,0,0,1-2.38-.85.43.43,0,0,1-.21-.43c0-.63,1.34-1.58,2.45-2.05a2,2,0,0,1,2.51.46,1.45,1.45,0,0,1,.23,1.62C182.67,210.18,182.11,210.42,181.57,210.42Zm0-3.16a2.16,2.16,0,0,0-.85.19,4.16,4.16,0,0,0-2.14,1.63,5.87,5.87,0,0,0,2.14.73l.35.05c.67.11,1.11.18,1.75-1a.91.91,0,0,0-.15-1l0,0A1.3,1.3,0,0,0,181.57,207.26Z"/><path class="cls-4" d="M182.56,207.82a1.1,1.1,0,0,0-1.39-.25c-.86.36-1.65,1.09-1.37,1.27a3.56,3.56,0,0,0,1.42.51c.53.05.94.29,1.46-.7A.74.74,0,0,0,182.56,207.82Z"/><path class="cls-2" d="M184.16,208c.5.08.88,1.34.71,1.64s-.56,1.35-1.38,1.22c-.6-.09-2.73-.49-3.05-1.08S181.54,207.56,184.16,208Z"/><path class="cls-8" d="M183.63,211.11h-.17c-.29,0-2.82-.44-3.24-1.21a.91.91,0,0,1,.18-.95,3.9,3.9,0,0,1,3.8-1.2h0c.35.06.59.42.72.71a1.71,1.71,0,0,1,.16,1.31l-.08.16C184.8,210.32,184.39,211.11,183.63,211.11Zm-.3-2.94a3.1,3.1,0,0,0-2.52,1.06c-.16.23-.17.38-.15.42.2.38,1.8.8,2.87,1,.47.06.78-.44,1-.92l.1-.19a1.68,1.68,0,0,0-.24-.95c-.12-.22-.23-.31-.29-.32h0A5.56,5.56,0,0,0,183.33,208.17Z"/><path class="cls-4" d="M184.21,208.32c.29.05.52.8.41,1s-.32.79-.81.72-1.61-.29-1.8-.64S182.66,208.07,184.21,208.32Z"/><path class="cls-2" d="M186.15,208.81s-.35-.34-1.33-.12-2.16.54-2.12,1.46,2.45,1.31,3,1.29a1.19,1.19,0,0,0,1.12-1A1.68,1.68,0,0,0,186.15,208.81Z"/><path class="cls-8" d="M185.68,211.69c-.63,0-3.18-.36-3.23-1.53s1.55-1.54,2.32-1.71a1.73,1.73,0,0,1,1.53.16,2,2,0,0,1,.79,1.86,1.43,1.43,0,0,1-1.36,1.22Zm-.25-2.82a2.41,2.41,0,0,0-.55.06c-1,.23-2,.55-1.93,1.21s2.09,1.08,2.76,1.05a.93.93,0,0,0,.88-.78A1.4,1.4,0,0,0,186,209l0,0A.85.85,0,0,0,185.43,208.87Z"/><path class="cls-4" d="M186.22,209.16s-.21-.21-.79-.08-1.28.32-1.25.87,1.45.78,1.78.76a.71.71,0,0,0,.67-.59A1,1,0,0,0,186.22,209.16Z"/><path class="cls-7" d="M184.49,179.26a64.49,64.49,0,0,1-5.07,13.56c-3.65,7.48-6.65,9.27-7.1,11.36-.35,1.62-.12,3.26,1.46,3.74l4.73,1.43a5.35,5.35,0,0,0,5.92-2,35.27,35.27,0,0,0,3.6-6.41,90.82,90.82,0,0,0,3.31-10.15"/><path class="cls-8" d="M180.06,210.58a6.51,6.51,0,0,1-1.84-.27l-4.73-1.43c-1.89-.57-2.69-2.41-2.15-4.91a8.93,8.93,0,0,1,2-3.36,42.09,42.09,0,0,0,5.19-8.23,64.25,64.25,0,0,0,5-13.33l2,.41a65.09,65.09,0,0,1-5.15,13.79,44.15,44.15,0,0,1-5.42,8.59,8.14,8.14,0,0,0-1.61,2.55c-.21,1-.25,2.26.78,2.58l4.73,1.43a4.39,4.39,0,0,0,4.82-1.66,35.77,35.77,0,0,0,3.5-6.23,89.94,89.94,0,0,0,3.25-10l1.93.52A90.37,90.37,0,0,1,189,201.28a36.76,36.76,0,0,1-3.71,6.62A6.38,6.38,0,0,1,180.06,210.58Z"/><path class="cls-7" d="M207.67,190.14a7.77,7.77,0,0,0-4.06,4.87c-.8,2.71-.27,6.64-2.63,10.84-2.1,3.74-4.08,3.91-4.63,7.67a1.4,1.4,0,0,0,1,1.52l5.27,1.59a5.17,5.17,0,0,0,6.15-2.67,51.55,51.55,0,0,0,4.55-17.23"/><path class="cls-8" d="M204.13,217.86a6.29,6.29,0,0,1-1.8-.27L197.06,216a2.4,2.4,0,0,1-1.7-2.62,8.41,8.41,0,0,1,2.51-5,16.87,16.87,0,0,0,2.24-3,18.12,18.12,0,0,0,2-7.32,19.87,19.87,0,0,1,.55-3.31,8.76,8.76,0,0,1,4.61-5.5l.81,1.82a6.78,6.78,0,0,0-3.5,4.24,18,18,0,0,0-.49,3,20,20,0,0,1-2.22,8.07,18.72,18.72,0,0,1-2.49,3.39,6.51,6.51,0,0,0-2,3.94.38.38,0,0,0,.3.41l5.27,1.6a4.17,4.17,0,0,0,5-2.16,50.52,50.52,0,0,0,4.46-16.9l2,.22a52.61,52.61,0,0,1-4.65,17.56A6.16,6.16,0,0,1,204.13,217.86Z"/><polygon class="cls-8" points="206.81 197.47 205.28 196.04 207.5 195.16 208.18 195.64 207.89 196.04 207.44 195.72 206.2 196.22 206.95 196.92 207.56 196.74 207.25 196.56 206.98 196.66 206.82 196.19 207.3 196.02 208.85 196.9 206.81 197.47"/><path class="cls-2" d="M173.28,204.72a1.73,1.73,0,0,0-2.22-.39c-1.39.58-2.66,1.74-2.21,2a5.5,5.5,0,0,0,2.28.81c.85.1,1.51.47,2.35-1.12A1.18,1.18,0,0,0,173.28,204.72Z"/><path class="cls-8" d="M172,207.77a3.23,3.23,0,0,1-.61-.06l-.31,0a6.15,6.15,0,0,1-2.49-.89.71.71,0,0,1-.32-.66c.08-.83,1.6-1.84,2.61-2.26a2.28,2.28,0,0,1,2.8.54,1.66,1.66,0,0,1,.25,1.88C173.29,207.49,172.66,207.77,172,207.77Zm-2.64-1.69a5.25,5.25,0,0,0,1.83.6l.36,0c.62.1.94.15,1.49-.91a.66.66,0,0,0-.11-.76l0-.06c-.05-.06-.53-.67-1.62-.21A5.28,5.28,0,0,0,169.35,206.08Z"/><path class="cls-4" d="M173,204.93a1.08,1.08,0,0,0-1.38-.25c-.87.36-1.66,1.09-1.38,1.27a3.56,3.56,0,0,0,1.42.51c.53,0,.94.29,1.46-.7A.74.74,0,0,0,173,204.93Z"/><polygon class="cls-8" points="184.3 195.81 182.11 194.97 182.45 192.74 184.72 192.72 184.73 193.22 182.88 193.23 182.66 194.65 184.25 195.25 185.09 194.72 184.42 194.02 183.88 194.01 184.11 194.51 183.66 194.73 183.09 193.51 184.63 193.52 185.88 194.81 184.3 195.81"/><g class="cls-11"><path class="cls-9" d="M162.23,124.12a.63.63,0,0,1-.19,0,.65.65,0,0,1-.44-.82l.24.07a.41.41,0,1,0,.78.24l.24.07A.65.65,0,0,1,162.23,124.12Z"/><path class="cls-9" d="M161.2,123.81l-.19,0a.62.62,0,0,1-.39-.32.67.67,0,0,1-.05-.5l.24.07a.41.41,0,0,0,0,.31.41.41,0,0,0,.56.17.43.43,0,0,0,.2-.24l.24.07a.66.66,0,0,1-.32.39A.72.72,0,0,1,161.2,123.81Z"/><path class="cls-9" d="M161.56,124.48a.67.67,0,0,1-.58-.35.67.67,0,0,1,0-.5l.24.07a.4.4,0,0,0,.27.51.44.44,0,0,0,.32,0,.48.48,0,0,0,.2-.24l.23.07a.62.62,0,0,1-.32.39A.65.65,0,0,1,161.56,124.48Z"/><path class="cls-9" d="M182.11,129.15h-.06a.87.87,0,0,1-.63-.31l.19-.16a.67.67,0,0,0,.46.22.68.68,0,0,0,.48-.16.67.67,0,0,0,.06-.94l.18-.16a.91.91,0,0,1-.08,1.29A.94.94,0,0,1,182.11,129.15Z"/><path class="cls-9" d="M182,130.27a.93.93,0,0,1-.69-.31l.19-.17a.66.66,0,0,0,.94.06.67.67,0,0,0,.06-.94l.18-.16a.91.91,0,0,1-.08,1.29A.92.92,0,0,1,182,130.27Z"/><path class="cls-9" d="M201.34,154.4a.77.77,0,0,1-.25,0,.8.8,0,0,1-.49-.41.84.84,0,0,1-.07-.64l.24.07a.55.55,0,0,0,0,.45.56.56,0,0,0,.35.29.59.59,0,0,0,.45,0,.63.63,0,0,0,.29-.35l.24.07a.88.88,0,0,1-.41.5A1,1,0,0,1,201.34,154.4Z"/><path class="cls-9" d="M200,154a.67.67,0,0,1-.24,0,.8.8,0,0,1-.5-.4.82.82,0,0,1-.06-.65l.23.08a.59.59,0,0,0,.85.69.56.56,0,0,0,.29-.35l.24.07a.82.82,0,0,1-.41.5A.79.79,0,0,1,200,154Z"/><path class="cls-9" d="M200.44,154.88a.67.67,0,0,1-.24,0,.85.85,0,0,1-.57-1.05l.24.07a.6.6,0,0,0,.4.74.59.59,0,0,0,.74-.39l.24.07a.84.84,0,0,1-.41.5A.91.91,0,0,1,200.44,154.88Z"/><path class="cls-9" d="M167.62,191.78a1,1,0,0,1-.24,0,.85.85,0,0,1-.5-.41.8.8,0,0,1-.06-.64l.24.07a.59.59,0,0,0,0,.45.63.63,0,0,0,.35.29.58.58,0,0,0,.74-.4l.24.08A.85.85,0,0,1,167.62,191.78Z"/><path class="cls-9" d="M166.25,191.36a.77.77,0,0,1-.25,0,.84.84,0,0,1-.56-1l.24.08a.55.55,0,0,0,0,.45.57.57,0,0,0,.35.29.61.61,0,0,0,.74-.4l.24.07A.86.86,0,0,1,166.25,191.36Z"/><path class="cls-9" d="M166.73,192.26a1.18,1.18,0,0,1-.25,0,.83.83,0,0,1-.49-.41.84.84,0,0,1-.07-.64l.24.07a.59.59,0,0,0,0,.45.58.58,0,0,0,.36.29.59.59,0,0,0,.45,0,.61.61,0,0,0,.29-.36l.24.08a.88.88,0,0,1-.41.5A1,1,0,0,1,166.73,192.26Z"/><path class="cls-9" d="M207,132.24a.84.84,0,0,1-.27,0,.91.91,0,0,1-.61-1.14l.24.07a.66.66,0,0,0,.44.83.7.7,0,0,0,.51-.05.62.62,0,0,0,.32-.39l.24.07a.91.91,0,0,1-.44.54A1,1,0,0,1,207,132.24Z"/><path class="cls-9" d="M206,132.77a.75.75,0,0,1-.26,0,.93.93,0,0,1-.55-.44,1,1,0,0,1-.07-.7l.24.07a.68.68,0,0,0,.45.83.66.66,0,0,0,.83-.44l.24.07A.93.93,0,0,1,206,132.77Z"/><path class="cls-9" d="M193.43,142.89a1.09,1.09,0,0,1-1-1.4l.24.08a.81.81,0,0,0,.07.63.78.78,0,0,0,.49.4.8.8,0,0,0,.64-.06.82.82,0,0,0,.4-.49l.24.07a1.1,1.1,0,0,1-1,.77Z"/><path class="cls-9" d="M192.24,143.53a1.17,1.17,0,0,1-.32,0,1.09,1.09,0,0,1-.72-1.36l.24.08a.83.83,0,0,0,.55,1,.84.84,0,0,0,1-.56l.24.07a1.08,1.08,0,0,1-1,.77Z"/><path class="cls-9" d="M186.69,115.61a.91.91,0,0,1-.23,0,.78.78,0,0,1-.45-.37.74.74,0,0,1-.06-.58l.24.07a.48.48,0,0,0,0,.39.5.5,0,0,0,.3.25.51.51,0,0,0,.65-.34l.24.07a.73.73,0,0,1-.37.45A.8.8,0,0,1,186.69,115.61Z"/><path class="cls-9" d="M185.88,116l-.22,0a.78.78,0,0,1-.45-.37.76.76,0,0,1-.06-.59l.24.08a.48.48,0,0,0,0,.39.49.49,0,0,0,.31.25.51.51,0,0,0,.64-.34l.24.07A.77.77,0,0,1,185.88,116Z"/><path class="cls-9" d="M225.86,194.64a.87.87,0,0,1-.32-.06.88.88,0,0,1-.47-.46l.23-.1a.59.59,0,0,0,.33.33.64.64,0,0,0,.47,0,.62.62,0,0,0,.32-.81l.23-.1a.87.87,0,0,1-.45,1.14A.8.8,0,0,1,225.86,194.64Z"/><path class="cls-9" d="M225.48,195.61a.86.86,0,0,1-.8-.52l.23-.1a.64.64,0,0,0,.34.33.59.59,0,0,0,.47,0,.58.58,0,0,0,.33-.34.64.64,0,0,0,0-.47l.23-.1a.87.87,0,0,1-.45,1.14A.83.83,0,0,1,225.48,195.61Z"/><path class="cls-9" d="M200.88,176.69a1,1,0,0,1-1-.86l.25,0a.74.74,0,1,0,1.47-.19l.25,0a1,1,0,0,1-.85,1.12Z"/><path class="cls-9" d="M199.16,176.92a1,1,0,0,1-1-.86l.24,0a.76.76,0,0,0,.29.49.73.73,0,0,0,.55.14.75.75,0,0,0,.49-.28.73.73,0,0,0,.14-.55l.25,0a1,1,0,0,1-.85,1.12Z"/><path class="cls-9" d="M200.13,177.66a1,1,0,0,1-1-.86l.25,0a.74.74,0,0,0,1.47-.2l.25,0a1,1,0,0,1-.85,1.11Z"/><path class="cls-9" d="M198.41,177.89a1,1,0,0,1-1-.85l.25,0a.74.74,0,0,0,.84.64.76.76,0,0,0,.49-.29.72.72,0,0,0,.14-.55l.25,0a1,1,0,0,1-.85,1.12Z"/><path class="cls-9" d="M201.11,178.4a1,1,0,0,1-1-.85l.24,0a.74.74,0,1,0,1.47-.2l.25,0a1,1,0,0,1-.85,1.12Z"/><path class="cls-9" d="M200.29,126.73a1,1,0,0,1-.29,0,1,1,0,0,1-.59-.48,1,1,0,0,1-.08-.76l.24.07a.75.75,0,0,0,.5.93.78.78,0,0,0,.58,0A.81.81,0,0,0,201,126l.24.07A1,1,0,0,1,200.29,126.73Z"/><path class="cls-9" d="M190.44,158.29a1,1,0,0,1-.29,0,1,1,0,0,1-.66-1.24l.24.07a.74.74,0,0,0,.5.93.75.75,0,0,0,.57-.05.81.81,0,0,0,.36-.45l.24.08a1,1,0,0,1-.49.59A.94.94,0,0,1,190.44,158.29Z"/><path class="cls-9" d="M205,143.44a.91.91,0,0,1-.23,0,.8.8,0,0,1-.53-1l.24.08a.55.55,0,0,0,.36.67.54.54,0,0,0,.67-.36l.24.07A.79.79,0,0,1,205,143.44Z"/><path class="cls-9" d="M224.3,133.38a.57.57,0,0,1-.18,0,.65.65,0,0,1-.37-.3.62.62,0,0,1-.05-.48l.24.08a.37.37,0,0,0,.25.46.34.34,0,0,0,.28,0,.33.33,0,0,0,.18-.22l.24.07a.58.58,0,0,1-.3.37A.6.6,0,0,1,224.3,133.38Z"/><path class="cls-9" d="M207.51,204.89h-.12a1,1,0,0,1-.67-.37,1,1,0,0,1-.2-.74l.25,0a.75.75,0,0,0,1.48.18l.25,0a1,1,0,0,1-.37.67A1.05,1.05,0,0,1,207.51,204.89Z"/><path class="cls-9" d="M182.57,204.33a1.12,1.12,0,0,1-.31-.05,1.09,1.09,0,0,1-.73-1.35l.24.07a.84.84,0,0,0,.56,1A.86.86,0,0,0,183,204a.88.88,0,0,0,.41-.5l.24.07a1.11,1.11,0,0,1-.53.65A1.14,1.14,0,0,1,182.57,204.33Z"/><path class="cls-9" d="M181.37,205a1.12,1.12,0,0,1-.31-.05,1,1,0,0,1-.64-.53,1.06,1.06,0,0,1-.09-.82l.24.07a.84.84,0,0,0,.07.64.82.82,0,0,0,.49.4.82.82,0,0,0,1-.56l.24.07a1.09,1.09,0,0,1-.52.65A1.18,1.18,0,0,1,181.37,205Z"/></g><path class="cls-2" d="M174.59,205.1c.51.08.89,1.34.71,1.64s-.55,1.35-1.37,1.22c-.61-.09-2.74-.49-3.06-1.08S172,204.67,174.59,205.1Z"/><path class="cls-8" d="M174.07,208.48l-.22,0c-.69-.1-3-.5-3.42-1.34a1.17,1.17,0,0,1,.2-1.22,4.07,4.07,0,0,1,4-1.3h0a1.32,1.32,0,0,1,.91.85,2,2,0,0,1,.15,1.55l-.08.14C175.45,207.55,175,208.48,174.07,208.48Zm-.3-2.95a3.17,3.17,0,0,0-2,.63,1.21,1.21,0,0,0-.43.55,8.43,8.43,0,0,0,2.67.76c.31,0,.56-.38.76-.78l.11-.2a1.89,1.89,0,0,0-.38-.91A4.67,4.67,0,0,0,173.77,205.53Z"/><path class="cls-4" d="M174.64,205.43c.3,0,.52.8.42,1s-.33.79-.81.72-1.62-.29-1.81-.64S173.09,205.18,174.64,205.43Z"/><path class="cls-2" d="M176.16,206.14s-.31-.31-1.17-.11-1.91.48-1.88,1.29,2.16,1.16,2.67,1.14a1,1,0,0,0,1-.88A1.48,1.48,0,0,0,176.16,206.14Z"/><path class="cls-8" d="M175.77,209c-.47,0-3.11-.28-3.16-1.62s1.57-1.64,2.26-1.8a1.83,1.83,0,0,1,1.58.19,2,2,0,0,1,.82,1.9A1.54,1.54,0,0,1,175.8,209Zm-.25-2.5a1.91,1.91,0,0,0-.42.06c-.38.08-1.51.34-1.49.78s1.56.72,2.15.66a.55.55,0,0,0,.51-.44,1,1,0,0,0-.37-1l-.07,0A.56.56,0,0,0,175.52,206.46Z"/><path class="cls-4" d="M176.22,206.44s-.18-.18-.69-.06-1.14.28-1.12.76,1.29.69,1.58.68a.63.63,0,0,0,.59-.53A.87.87,0,0,0,176.22,206.44Z"/><path class="cls-2" d="M156.69,200.48s-.32-.31-1.18-.11-1.91.48-1.88,1.29,2.17,1.16,2.67,1.14a1,1,0,0,0,1-.88A1.48,1.48,0,0,0,156.69,200.48Z"/><path class="cls-8" d="M156.29,203.3c-.47,0-3.1-.28-3.16-1.62s1.52-1.62,2.27-1.8a1.85,1.85,0,0,1,1.58.19,2,2,0,0,1,.81,1.9,1.53,1.53,0,0,1-1.47,1.33Zm-.24-2.5a2.07,2.07,0,0,0-.43.06c-.37.08-1.5.34-1.49.78s1.58.71,2.16.66a.56.56,0,0,0,.51-.44,1,1,0,0,0-.38-1l-.06,0A.64.64,0,0,0,156.05,200.8Z"/><path class="cls-4" d="M156.75,200.78s-.19-.18-.7-.06-1.13.28-1.11.76,1.28.69,1.58.68a.62.62,0,0,0,.59-.53A.89.89,0,0,0,156.75,200.78Z"/><path class="cls-2" d="M159.09,200.64c.51.08.89,1.34.71,1.64s-.55,1.35-1.38,1.22c-.6-.09-2.73-.49-3-1.08S156.47,200.21,159.09,200.64Z"/><path class="cls-8" d="M158.56,204l-.21,0c-.69-.1-3-.5-3.42-1.34a1.17,1.17,0,0,1,.2-1.22,4.09,4.09,0,0,1,4-1.3h0a1.34,1.34,0,0,1,.91.85,2,2,0,0,1,.15,1.55l-.08.14C159.94,203.09,159.48,204,158.56,204Zm-.3-3a3.13,3.13,0,0,0-2,.63,1.17,1.17,0,0,0-.43.56,8.7,8.7,0,0,0,2.67.75c.31,0,.56-.38.76-.78l.11-.2a1.75,1.75,0,0,0-.39-.9A4.56,4.56,0,0,0,158.26,201.07Z"/><path class="cls-4" d="M159.14,201c.3.05.52.8.42,1s-.33.79-.82.72-1.61-.29-1.8-.64S157.59,200.72,159.14,201Z"/><path class="cls-2" d="M198.87,212.45a1.74,1.74,0,0,0-2.22-.39c-1.4.58-2.67,1.74-2.21,2a5.5,5.5,0,0,0,2.28.81c.85.1,1.51.47,2.34-1.12A1.17,1.17,0,0,0,198.87,212.45Z"/><path class="cls-8" d="M197.59,215.26a3.8,3.8,0,0,1-.58-.06l-.32,0a5.63,5.63,0,0,1-2.38-.85.43.43,0,0,1-.21-.43c.05-.63,1.34-1.58,2.45-2.05a2,2,0,0,1,2.51.46,1.45,1.45,0,0,1,.23,1.62C198.69,215,198.13,215.26,197.59,215.26Zm0-3.16a2.16,2.16,0,0,0-.85.19,4.16,4.16,0,0,0-2.14,1.63,5.87,5.87,0,0,0,2.14.73l.35,0c.67.11,1.11.18,1.75-1a.91.91,0,0,0-.15-1l0,0A1.3,1.3,0,0,0,197.59,212.1Z"/><path class="cls-4" d="M198.58,212.66a1.1,1.1,0,0,0-1.39-.25c-.86.36-1.65,1.09-1.37,1.27a3.56,3.56,0,0,0,1.42.51c.53.05.94.29,1.46-.7A.74.74,0,0,0,198.58,212.66Z"/><path class="cls-2" d="M200.18,212.83c.5.08.89,1.34.71,1.64s-.56,1.35-1.38,1.22c-.6-.09-2.73-.5-3-1.08S197.56,212.4,200.18,212.83Z"/><path class="cls-8" d="M199.65,216h-.17c-.29,0-2.82-.44-3.24-1.21a.93.93,0,0,1,.18-.95,3.9,3.9,0,0,1,3.8-1.2h0c.35.06.59.42.72.71a1.71,1.71,0,0,1,.16,1.31l-.08.16C200.82,215.16,200.41,216,199.65,216Zm-.3-2.94a3.1,3.1,0,0,0-2.52,1.06c-.16.23-.17.38-.15.42.2.38,1.8.8,2.87,1,.47.06.78-.44,1-.92a1.82,1.82,0,0,0,.1-.19,1.6,1.6,0,0,0-.24-1c-.12-.22-.23-.31-.29-.32h0A5.56,5.56,0,0,0,199.35,213Z"/><path class="cls-4" d="M200.23,213.16c.3.05.52.8.42,1s-.33.79-.82.72-1.61-.29-1.8-.64S198.68,212.91,200.23,213.16Z"/><path class="cls-2" d="M201.75,213.87s-.31-.31-1.18-.11-1.91.48-1.88,1.29,2.17,1.16,2.68,1.14a1,1,0,0,0,1-.88A1.48,1.48,0,0,0,201.75,213.87Z"/><path class="cls-8" d="M201.33,216.44c-.57,0-2.84-.32-2.89-1.38s1.39-1.39,2.08-1.54a1.53,1.53,0,0,1,1.38.15,1.71,1.71,0,0,1,.7,1.66,1.3,1.3,0,0,1-1.23,1.11Zm-.22-2.5a2.4,2.4,0,0,0-.48.06c-.85.2-1.71.47-1.69,1s1.76.9,2.37.9h.05a.79.79,0,0,0,.75-.66,1.25,1.25,0,0,0-.49-1.2l0,0A.78.78,0,0,0,201.11,213.94Z"/><path class="cls-4" d="M201.81,214.17s-.19-.18-.7-.06-1.13.28-1.11.76,1.28.69,1.58.68a.63.63,0,0,0,.59-.53A.89.89,0,0,0,201.81,214.17Z"/><path class="cls-2" d="M165.34,203a.48.48,0,0,1,.51,0c.48.43,1.66,1.61,1.06,2.53-.46.73-.87.34-1.8.08l-.7-.2a.42.42,0,0,1-.29-.31h0a2,2,0,0,1,1.16-2.12Z"/><path class="cls-8" d="M166.31,206.52a2.4,2.4,0,0,1-.84-.2l-.49-.16-.7-.19a.94.94,0,0,1-.64-.67,2.48,2.48,0,0,1,1.44-2.71l.06,0a1,1,0,0,1,1,.14c1.31,1.18,1.72,2.31,1.15,3.18A1.17,1.17,0,0,1,166.31,206.52Zm-.78-3.07v0l-.06,0a1.48,1.48,0,0,0-.87,1.55l.64.15.55.18c.54.19.54.19.69,0C166.87,204.75,165.87,203.76,165.53,203.45Z"/><path class="cls-4" d="M165.34,203.27a.33.33,0,0,1,.37,0c.35.31,1.21,1.16.78,1.84-.34.52-.64.24-1.31,0l-.51-.14a.29.29,0,0,1-.21-.23h0a1.41,1.41,0,0,1,.84-1.54Z"/><path class="cls-2" d="M162.16,201.73a1.73,1.73,0,0,0-2.17-.58c-1.44.46-2.81,1.51-2.38,1.84a5.51,5.51,0,0,0,2.2,1c.84.17,1.47.6,2.44-.91A1.18,1.18,0,0,0,162.16,201.73Z"/><path class="cls-8" d="M160.8,204.67a3,3,0,0,1-.78-.12l-.31-.07a6,6,0,0,1-2.4-1.09.7.7,0,0,1-.26-.69c.14-.82,1.74-1.69,2.78-2a2.28,2.28,0,0,1,2.75.78,1.65,1.65,0,0,1,.09,1.89C162,204.39,161.4,204.67,160.8,204.67Zm-2.67-1.92a5,5,0,0,0,1.78.75l.35.08c.61.16.92.23,1.56-.77a.66.66,0,0,0,0-.76l-.05-.07c0-.07-.47-.71-1.59-.35A5.45,5.45,0,0,0,158.13,202.75Z"/><path class="cls-4" d="M161.86,201.92a1.09,1.09,0,0,0-1.36-.37c-.9.29-1.74.95-1.48,1.15a3.44,3.44,0,0,0,1.37.62c.52.11.92.37,1.52-.57A.72.72,0,0,0,161.86,201.92Z"/></g><path class="cls-2" d="M199.2,164v48.59h28a1,1,0,0,0,1-1V165a1,1,0,0,0-1-1Z"/><path class="cls-12" d="M227.23,213.61h-28a1,1,0,0,1-1-1V164a1,1,0,0,1,1-1h28a2,2,0,0,1,2,2v46.61A2,2,0,0,1,227.23,213.61Zm-27-2h27V165h-27Z"/><path class="cls-4" d="M199.2,212.61h-6a1,1,0,0,1-1-1V165a1,1,0,0,1,1-1h6Z"/><path class="cls-12" d="M199.2,213.61h-6a2,2,0,0,1-2-2V165a2,2,0,0,1,2-2h6a1,1,0,0,1,1,1v48.59A1,1,0,0,1,199.2,213.61Zm-6-48.59v46.6h5V165Z"/><path class="cls-12" d="M195.71,199.59a.5.5,0,0,1-.5-.5v-17.4a.51.51,0,0,1,.5-.5.5.5,0,0,1,.5.5v17.4A.5.5,0,0,1,195.71,199.59Z"/><path class="cls-12" d="M209.93,176.68c0,.08,0,.78,0,1.07s.07.81-.35.8-.33-.4-.32-.69,0-1.18,0-1.18-.89-1-1-1.19a.32.32,0,0,1,.12-.49.37.37,0,0,1,.46.13c.22.27.62.72.79.89.17-.17.58-.62.8-.89a.37.37,0,0,1,.46-.13.32.32,0,0,1,.12.49C210.82,175.71,210,176.62,209.93,176.68Zm4,.23a1.45,1.45,0,0,1-1.52,1.39,1.49,1.49,0,0,1-1.47-1.6,1.46,1.46,0,0,1,1.69-1.41A1.48,1.48,0,0,1,213.93,176.91ZM212.5,176a.77.77,0,0,0-.89.64.78.78,0,0,0,.64,1,.84.84,0,0,0,1-.76A.81.81,0,0,0,212.5,176Z"/><path class="cls-12" d="M215.55,178.55a1.22,1.22,0,0,1-.94-.6,4.83,4.83,0,0,1-.3-2.14c0-.23,0-.56.28-.63s.39.07.42.38-.16,2.25.54,2.25c.9,0,.59-1.95.62-2.28,0-.17.06-.32.25-.35a.34.34,0,0,1,.39.29,5.23,5.23,0,0,1,0,1.58C216.78,177.74,216.31,178.6,215.55,178.55Z"/><path class="cls-12" d="M218.05,178.2a.37.37,0,0,1-.32.35.38.38,0,0,1-.34-.4c0-.46,0-1.12,0-1.52a5.5,5.5,0,0,1,.1-1.47c.11-.16.59-.18.9-.18,1,0,1.26.47,1.25.93a1.28,1.28,0,0,1-.77,1.07l.93.75c.14.11.33.37,0,.56s-.51,0-.74-.19a8.83,8.83,0,0,1-1-.85C218.06,177.53,218.09,177.84,218.05,178.2Zm0-2.47v.73s.94,0,.81-.53S218.06,175.73,218.06,175.73Z"/><path class="cls-12" d="M206.3,181c0,.28-.27.36-.5.34a.77.77,0,0,0-.76.19,1.29,1.29,0,0,0,.13,1.8.93.93,0,0,0,.7.06.37.37,0,0,1,.48.33c0,.28-.16.42-.54.45a1.73,1.73,0,0,1-1.4-.51,2,2,0,0,1-.39-1.7,1.52,1.52,0,0,1,1.87-1.35C206.09,180.59,206.31,180.74,206.3,181Z"/><path class="cls-12" d="M209.88,183.59a.42.42,0,0,1-.16.51c-.19.09-.36,0-.48-.21s-.37-.75-.37-.75h-1.29a2.46,2.46,0,0,1-.35.7.38.38,0,0,1-.42,0c-.17-.14-.07-.45,0-.67.19-.54.4-1.06.59-1.59s.33-.93.77-.93.78,1,1,1.46S209.52,182.88,209.88,183.59Zm-1.26-1.13c-.09-.18-.39-.87-.46-1-.06.19-.28.8-.35,1Zm3.76-1.54c0,.21-.22.32-.57.36a2.67,2.67,0,0,1-.53,0s0,1.28,0,1.58.11,1.26-.41,1.26c-.37,0-.31-.67-.32-.92s0-1.91,0-1.91a4.83,4.83,0,0,1-.7-.07c-.22,0-.36-.16-.36-.32s.17-.35.45-.35h1.75C212.17,180.57,212.4,180.64,212.38,180.92Z"/><path class="cls-12" d="M215.62,184.1c-.19.09-.35,0-.47-.21l-.38-.75h-1.29a2.22,2.22,0,0,1-.35.7.38.38,0,0,1-.42,0c-.16-.14-.06-.45,0-.67.19-.54.41-1.06.6-1.59s.33-.93.77-.93.78,1,1,1.46.34.75.69,1.46A.4.4,0,0,1,215.62,184.1Zm-1.55-2.65c-.07.19-.28.8-.36,1h.81Z"/><path class="cls-12" d="M218.4,183.57a.38.38,0,0,1-.28.39,7.8,7.8,0,0,1-1.18.17c-.11,0-.45,0-.55-.08s-.13-.32-.15-.64c0-.61,0-1.44-.05-2.07,0-.33,0-.76.25-.79s.44.23.46.66c0,.65,0,.75.06,2.21l1-.13C218.17,183.29,218.37,183.34,218.4,183.57Zm2.51-1.09a1.44,1.44,0,0,1-1.51,1.38,1.51,1.51,0,1,1,1.51-1.38Zm-1.42-.93a.83.83,0,0,0-.26,1.63.86.86,0,0,0,1-.77A.83.83,0,0,0,219.49,181.55Z"/><path class="cls-12" d="M222.09,184a2,2,0,0,1-.81-1.62,2,2,0,0,1,.77-1.8c.29-.2.63-.19.73,0a.38.38,0,0,1-.21.55c-.8.41-.77,2.24,0,2.3.58,0,.54-.88.54-.88s-.58,0-.7-.26.28-.41.49-.43.75,0,.9,0c.36,0,.56.26.43.52s-.46.19-.46.19a2.6,2.6,0,0,1-.26,1.11A1,1,0,0,1,222.09,184Z"/><path class="cls-12" d="M202.23,164.23v9.06l2.37-1.83,2.48,1.83v-9.06a.7.7,0,0,0-.7-.69h-3.45A.7.7,0,0,0,202.23,164.23Z"/><path class="cls-12" d="M220.15,192.94a3.69,3.69,0,0,1,2.16,2,24.73,24.73,0,0,1,1.32,3.8,9.88,9.88,0,0,1,.35,3.43,2.7,2.7,0,0,1-1.5,2.35,3.26,3.26,0,0,1-1.42.24,1.66,1.66,0,0,0,.52-1,1.71,1.71,0,0,0,.51-.14,1.83,1.83,0,0,0,1-1.6,9,9,0,0,0-.33-3.09,23.43,23.43,0,0,0-1.11-3.28l-2-2.91Z"/><path class="cls-3" d="M221.76,197.16c0,4.2,1.9,8.65-3.93,8.69l-7.29.05c-6.19,0-4.25-4.47-4.25-8.74Z"/><path class="cls-12" d="M210.46,206.4c-1.89,0-3.2-.42-4-1.29-1.19-1.3-1-3.32-.82-5.45.07-.83.15-1.68.15-2.51a.5.5,0,0,1,.5-.5h15.47a.5.5,0,0,1,.5.5c0,.84.08,1.69.16,2.52.19,2.12.37,4.12-.8,5.41a4.91,4.91,0,0,1-3.79,1.27l-7.28.05Zm-3.68-8.75c0,.71-.08,1.41-.14,2.1-.18,2-.34,3.71.56,4.69a4.35,4.35,0,0,0,3.26,1h.08l7.28-.05a4,4,0,0,0,3.06-.94c.88-1,.71-2.75.54-4.65-.06-.69-.13-1.39-.15-2.11Z"/><path class="cls-3" d="M221.87,195.84h0c0,8.25-15.69,8.37-15.69,0v-.18a3.18,3.18,0,0,1,3.17-3.17h9.17A3.36,3.36,0,0,1,221.87,195.84Z"/><path class="cls-12" d="M214,202.57a9.82,9.82,0,0,1-5.66-1.64,6,6,0,0,1-2.65-5.09v-.18a3.68,3.68,0,0,1,3.67-3.67h9.17a3.85,3.85,0,0,1,3.85,3.85C222.37,200.26,218.15,202.57,214,202.57ZM209.35,193a2.68,2.68,0,0,0-2.67,2.67v.18a5,5,0,0,0,2.23,4.27,8.77,8.77,0,0,0,5.08,1.46c3.55,0,7.38-1.79,7.38-5.73a2.86,2.86,0,0,0-2.85-2.85Z"/><path class="cls-3" d="M213.59,192.49h.88a.47.47,0,0,1,.46.47v9.34a.47.47,0,0,1,0,.17l-.44,1.09a.47.47,0,0,1-.43.28h0a.46.46,0,0,1-.43-.28l-.44-1.09a.47.47,0,0,1,0-.17V193A.46.46,0,0,1,213.59,192.49Z"/><path class="cls-12" d="M214,204.35a.94.94,0,0,1-.89-.61l-.44-1.08a.92.92,0,0,1-.07-.36V193a1,1,0,0,1,1-1h.88a1,1,0,0,1,1,1v9.34a.92.92,0,0,1-.07.36l-.44,1.08A1,1,0,0,1,214,204.35Zm-.4-11.36v9.31l.43,1.07.37-1.09V193Zm0,0Z"/><rect class="cls-4" x="212.16" y="197.98" width="3.73" height="2.73"/><path class="cls-12" d="M215.9,201.21h-3.74a.5.5,0,0,1-.5-.5V198a.51.51,0,0,1,.5-.5h3.74a.51.51,0,0,1,.5.5v2.73A.5.5,0,0,1,215.9,201.21Zm-3.24-1h2.74v-1.73h-2.74Z"/><path class="cls-12" d="M214,199.48a.5.5,0,0,1-.5-.5v-1.62a.5.5,0,0,1,1,0V199A.5.5,0,0,1,214,199.48Z"/><path class="cls-2" d="M157.05,164v48.59h28a1,1,0,0,0,1-1V165a1,1,0,0,0-1-1Z"/><path class="cls-12" d="M185.08,213.61h-28a1,1,0,0,1-1-1V164a1,1,0,0,1,1-1h28a2,2,0,0,1,2,2v46.61A2,2,0,0,1,185.08,213.61Zm-27-2h27V165h-27Z"/><path class="cls-4" d="M157.05,212.61h-6a1,1,0,0,1-1-1V165a1,1,0,0,1,1-1h6Z"/><path class="cls-12" d="M157.05,213.61h-6a2,2,0,0,1-2-2V165a2,2,0,0,1,2-2h6a1,1,0,0,1,1,1v48.59A1,1,0,0,1,157.05,213.61ZM151,165v46.6h5V165Z"/><path class="cls-12" d="M153.56,199.59a.5.5,0,0,1-.5-.5v-17.4a.51.51,0,0,1,.5-.5.5.5,0,0,1,.5.5v17.4A.5.5,0,0,1,153.56,199.59Z"/><path class="cls-12" d="M167.78,176.68c0,.08,0,.78,0,1.07s.07.81-.35.8-.33-.4-.32-.69,0-1.18,0-1.18-.89-1-1-1.19a.32.32,0,0,1,.12-.49.37.37,0,0,1,.46.13c.22.27.62.72.79.89.18-.17.58-.62.8-.89a.37.37,0,0,1,.46-.13.32.32,0,0,1,.12.49C168.68,175.71,167.84,176.62,167.78,176.68Zm4,.23a1.45,1.45,0,0,1-1.52,1.39,1.49,1.49,0,0,1-1.47-1.6,1.47,1.47,0,0,1,1.7-1.41A1.48,1.48,0,0,1,171.78,176.91Zm-1.43-.92a.77.77,0,0,0-.89.64.78.78,0,0,0,.64,1,.84.84,0,0,0,1-.76A.81.81,0,0,0,170.35,176Z"/><path class="cls-12" d="M173.4,178.55a1.22,1.22,0,0,1-.94-.6,4.83,4.83,0,0,1-.3-2.14c0-.23,0-.56.28-.63s.39.07.42.38-.16,2.25.54,2.25c.9,0,.59-1.95.62-2.28,0-.17.06-.32.25-.35a.34.34,0,0,1,.39.29,5.23,5.23,0,0,1,0,1.58C174.64,177.74,174.16,178.6,173.4,178.55Z"/><path class="cls-12" d="M175.9,178.2a.37.37,0,0,1-.32.35.38.38,0,0,1-.34-.4c0-.46,0-1.12,0-1.52a5.5,5.5,0,0,1,.1-1.47c.11-.16.59-.18.9-.18,1,0,1.26.47,1.25.93a1.28,1.28,0,0,1-.77,1.07l.93.75c.14.11.33.37,0,.56s-.51,0-.74-.19a8.83,8.83,0,0,1-1-.85C175.91,177.53,175.94,177.84,175.9,178.2Zm0-2.47v.73s.94,0,.81-.53S175.91,175.73,175.91,175.73Z"/><path class="cls-12" d="M164.15,181c0,.28-.27.36-.5.34a.75.75,0,0,0-.75.19,1.28,1.28,0,0,0,.12,1.8.93.93,0,0,0,.7.06.37.37,0,0,1,.48.33c0,.28-.16.42-.54.45a1.73,1.73,0,0,1-1.4-.51,2,2,0,0,1-.39-1.7,1.52,1.52,0,0,1,1.87-1.35C163.94,180.59,164.16,180.74,164.15,181Z"/><path class="cls-12" d="M167.73,183.59a.42.42,0,0,1-.16.51c-.19.09-.36,0-.48-.21s-.37-.75-.37-.75h-1.29a2.46,2.46,0,0,1-.35.7.38.38,0,0,1-.42,0c-.17-.14-.07-.45,0-.67.19-.54.4-1.06.59-1.59s.33-.93.77-.93.78,1,1,1.46S167.37,182.88,167.73,183.59Zm-1.26-1.13c-.09-.18-.39-.87-.46-1-.06.19-.28.8-.35,1Zm3.77-1.54c0,.21-.23.32-.58.36a2.67,2.67,0,0,1-.53,0s0,1.28,0,1.58.11,1.26-.41,1.26-.31-.67-.32-.92,0-1.91,0-1.91a4.83,4.83,0,0,1-.7-.07c-.22,0-.36-.16-.36-.32s.17-.35.45-.35h1.75C170,180.57,170.25,180.64,170.24,180.92Z"/><path class="cls-12" d="M173.47,184.1c-.19.09-.35,0-.47-.21l-.38-.75h-1.29a2.22,2.22,0,0,1-.35.7.38.38,0,0,1-.42,0c-.16-.14-.06-.45,0-.67.2-.54.41-1.06.6-1.59s.33-.93.77-.93.78,1,1,1.46.34.75.7,1.46A.42.42,0,0,1,173.47,184.1Zm-1.55-2.65c-.07.19-.28.8-.36,1h.81Z"/><path class="cls-12" d="M176.25,183.57a.38.38,0,0,1-.27.39,8.24,8.24,0,0,1-1.19.17c-.11,0-.45,0-.55-.08s-.13-.32-.15-.64c0-.61,0-1.44-.05-2.07,0-.33,0-.76.25-.79s.44.23.46.66c0,.65,0,.75.06,2.21l1.05-.13C176,183.29,176.22,183.34,176.25,183.57Zm2.51-1.09a1.44,1.44,0,0,1-1.51,1.38,1.51,1.51,0,1,1,1.51-1.38Zm-1.42-.93a.83.83,0,0,0-.26,1.63.86.86,0,0,0,1-.77A.83.83,0,0,0,177.34,181.55Z"/><path class="cls-12" d="M179.94,184a1.93,1.93,0,0,1-.8-1.62,2,2,0,0,1,.76-1.8c.29-.2.63-.19.73,0a.38.38,0,0,1-.21.55c-.8.41-.77,2.24,0,2.3.58,0,.54-.88.54-.88s-.58,0-.7-.26.28-.41.49-.43.75,0,.9,0c.36,0,.56.26.43.52s-.46.19-.46.19a2.6,2.6,0,0,1-.26,1.11A1,1,0,0,1,179.94,184Z"/><path class="cls-12" d="M160.08,164.23v9.06l2.37-1.83,2.48,1.83v-9.06a.7.7,0,0,0-.7-.69h-3.45A.7.7,0,0,0,160.08,164.23Z"/><path class="cls-12" d="M167.26,205.45h0a.22.22,0,0,1-.22-.28l2-7.26.7.29-2.27,7.09A.23.23,0,0,1,167.26,205.45Z"/><path class="cls-12" d="M167.26,205.7h0a.47.47,0,0,1-.38-.19.47.47,0,0,1-.08-.41l2-7.26a.24.24,0,0,1,.13-.15.26.26,0,0,1,.21,0l.7.29a.25.25,0,0,1,.14.31l-2.27,7.09A.47.47,0,0,1,167.26,205.7Zm2-7.45L167.62,204l1.82-5.67Z"/><path class="cls-12" d="M177.55,205.44h0a.22.22,0,0,0,.2-.29l-2.37-7.37-.65.34,2.6,7.17A.25.25,0,0,0,177.55,205.44Z"/><path class="cls-12" d="M177.54,205.69a.47.47,0,0,1-.44-.31l-2.61-7.18a.26.26,0,0,1,.12-.31l.65-.33a.22.22,0,0,1,.21,0,.23.23,0,0,1,.14.15l2.38,7.37a.49.49,0,0,1-.06.42.47.47,0,0,1-.36.2Zm-2.5-7.45,2.07,5.71-1.88-5.81Z"/><path class="cls-12" d="M172.22,206.21h0a.32.32,0,0,0,.32-.32l.09-7.69-.72.07v7.62A.32.32,0,0,0,172.22,206.21Z"/><path class="cls-12" d="M172.22,206.46a.58.58,0,0,1-.57-.57v-7.62a.24.24,0,0,1,.22-.25l.73-.06a.2.2,0,0,1,.19.06.27.27,0,0,1,.08.19l-.09,7.69A.57.57,0,0,1,172.22,206.46Zm-.06-8v7.39c0,.08.14.08.14,0l.09-7.41Z"/><path class="cls-4" d="M166.36,196.72c.2,1.55,6.83,3.37,10,.55,2.32-2.07,2.23-10.33-1-10.1s-3.76,5.32-4.89,7.39S166.24,195.81,166.36,196.72Z"/><path class="cls-12" d="M171.8,199.24a11.3,11.3,0,0,1-3.77-.64c-.76-.28-2-.89-2.17-1.81h0c-.11-.86.8-1,1.54-1.12a3.22,3.22,0,0,0,2.64-1.35,14.31,14.31,0,0,0,.84-2.09c.84-2.4,1.89-5.39,4.45-5.56a2.57,2.57,0,0,1,2.51,1.88c1.08,2.55.71,7.42-1.16,9.1A7.26,7.26,0,0,1,171.8,199.24Zm-4.89-2.46a3.22,3.22,0,0,0,1.46.88c2.33.86,5.8.89,7.64-.76,1.42-1.27,1.92-5.59.91-8-.37-.89-.88-1.32-1.52-1.28-1.9.14-2.83,2.78-3.58,4.9a15.51,15.51,0,0,1-.9,2.24,4.15,4.15,0,0,1-3.36,1.86A4.75,4.75,0,0,0,166.91,196.78Z"/><path class="cls-4" d="M142.46,213.24h90.26a3.38,3.38,0,0,1,3.38,3.38v0a3.38,3.38,0,0,1-3.38,3.38H142.46a0,0,0,0,1,0,0v-6.66a0,0,0,0,1,0,0Z"/><path class="cls-5" d="M232.72,221H141.46l-.05-1v-7.66l1.05,0h90.26a4.38,4.38,0,0,1,0,8.75Zm-89.31-2h89.31a2.38,2.38,0,0,0,0-4.75H143.41Z"/><circle class="cls-4" cx="154.28" cy="216.62" r="0.67"/><path class="cls-5" d="M154.28,218.29a1.68,1.68,0,1,1,1.67-1.67A1.67,1.67,0,0,1,154.28,218.29Zm0-2a.33.33,0,0,0-.33.33.33.33,0,0,0,.66,0A.33.33,0,0,0,154.28,216.29Z"/><circle class="cls-4" cx="167.21" cy="216.62" r="0.67"/><path class="cls-5" d="M167.21,218.29a1.68,1.68,0,1,1,1.68-1.67A1.67,1.67,0,0,1,167.21,218.29Zm0-2a.32.32,0,0,0-.32.33.33.33,0,0,0,.65,0A.33.33,0,0,0,167.21,216.29Z"/><circle class="cls-4" cx="180.15" cy="216.62" r="0.67"/><path class="cls-5" d="M180.15,218.29a1.68,1.68,0,1,1,1.67-1.67A1.67,1.67,0,0,1,180.15,218.29Zm0-2a.33.33,0,0,0-.33.33.33.33,0,0,0,.66,0A.33.33,0,0,0,180.15,216.29Z"/><circle class="cls-4" cx="193.09" cy="216.62" r="0.67"/><path class="cls-5" d="M193.09,218.29a1.68,1.68,0,1,1,1.67-1.67A1.68,1.68,0,0,1,193.09,218.29Zm0-2a.33.33,0,0,0-.33.33.33.33,0,0,0,.65,0A.32.32,0,0,0,193.09,216.29Z"/><circle class="cls-4" cx="206.02" cy="216.62" r="0.67"/><path class="cls-5" d="M206,218.29a1.68,1.68,0,1,1,1.67-1.67A1.67,1.67,0,0,1,206,218.29Zm0-2a.33.33,0,0,0-.33.33.33.33,0,0,0,.66,0A.33.33,0,0,0,206,216.29Z"/><circle class="cls-4" cx="218.9" cy="216.62" r="0.67"/><path class="cls-5" d="M218.9,218.29a1.68,1.68,0,1,1,1.67-1.67A1.67,1.67,0,0,1,218.9,218.29Zm0-2a.33.33,0,0,0-.33.33.33.33,0,0,0,.66,0A.33.33,0,0,0,218.9,216.29Z"/><circle class="cls-4" cx="231.71" cy="216.62" r="0.67"/><path class="cls-5" d="M231.71,218.29a1.68,1.68,0,1,1,1.68-1.67A1.67,1.67,0,0,1,231.71,218.29Zm0-2a.32.32,0,0,0-.32.33.33.33,0,0,0,.65,0A.33.33,0,0,0,231.71,216.29Z"/><path class="cls-5" d="M76.31,201.56a.47.47,0,0,1-.46-.46v-3.61a.46.46,0,0,1,.92,0v3.61A.47.47,0,0,1,76.31,201.56Z"/><path class="cls-5" d="M78.11,199.75h-3.6a.46.46,0,1,1,0-.91h3.6a.46.46,0,1,1,0,.91Z"/><circle class="cls-13" cx="75.16" cy="213.27" r="3.87"/><path class="cls-14" d="M19.91,102.16h101.5a0,0,0,0,1,0,0V210.1a9.93,9.93,0,0,1-9.93,9.93H29.84a9.93,9.93,0,0,1-9.93-9.93V102.16a0,0,0,0,1,0,0Z" transform="translate(141.32 322.2) rotate(-180)"/><path class="cls-4" d="M51.13,98.22a20.67,20.67,0,0,1,41.34,0"/><path class="cls-4" d="M75.18,89.11H68.05A1.92,1.92,0,0,0,66.13,91v9h11V91A1.92,1.92,0,0,0,75.18,89.11Z"/><path class="cls-12" d="M77.1,101.08h-11a1,1,0,0,1-1-1V91a2.93,2.93,0,0,1,2.93-2.93h7.12A2.93,2.93,0,0,1,78.1,91v9A1,1,0,0,1,77.1,101.08Zm-10-2h9V91a.93.93,0,0,0-.92-.93H68.06a.93.93,0,0,0-.93.93Z"/><path class="cls-5" d="M66.1,97.64h11A2.36,2.36,0,0,1,79.49,100v2.14a0,0,0,0,1,0,0H63.74a0,0,0,0,1,0,0V100a2.36,2.36,0,0,1,2.36-2.36Z"/><path class="cls-2" d="M19.91,102.09h101.5a0,0,0,0,1,0,0V210a9.93,9.93,0,0,1-9.93,9.93H29.84A9.93,9.93,0,0,1,19.91,210V102.09a0,0,0,0,1,0,0Z" transform="translate(141.32 322.06) rotate(-180)"/><path class="cls-5" d="M121.41,221H19.91a1,1,0,0,1-1-1V112a10.94,10.94,0,0,1,10.93-10.93h81.64A11,11,0,0,1,122.41,112V220A1,1,0,0,1,121.41,221Zm-100.5-2h99.5V112a9,9,0,0,0-8.93-8.93H29.84A8.94,8.94,0,0,0,20.91,112Z"/><rect class="cls-2" x="121.42" y="145.99" width="17.98" height="73.99"/><path class="cls-5" d="M139.4,221h-18a1,1,0,0,1-1-1V146a1,1,0,0,1,1-1h18a1,1,0,0,1,1,1v74A1,1,0,0,1,139.4,221Zm-17-2h16V147h-16Z"/><path class="cls-2" d="M138.94,145h1.9a1.62,1.62,0,0,1,1.62,1.62V220a0,0,0,0,1,0,0h-5.14a0,0,0,0,1,0,0V146.6A1.62,1.62,0,0,1,138.94,145Z"/><path class="cls-5" d="M142.46,221h-5.14a1,1,0,0,1-1-1V146.6a2.62,2.62,0,0,1,2.62-2.62h1.9a2.62,2.62,0,0,1,2.62,2.62V220A1,1,0,0,1,142.46,221Zm-4.14-2h3.14V146.6a.62.62,0,0,0-.62-.62h-1.9a.62.62,0,0,0-.62.62Z"/><circle class="cls-4" cx="140.03" cy="175.88" r="0.77"/><path class="cls-5" d="M140,177.65a1.78,1.78,0,1,1,1.77-1.77A1.77,1.77,0,0,1,140,177.65Zm0-2a.23.23,0,0,0-.23.23c0,.25.46.25.46,0A.23.23,0,0,0,140,175.65Z"/><circle class="cls-4" cx="140.03" cy="163.76" r="0.77"/><path class="cls-5" d="M140,165.54a1.78,1.78,0,1,1,1.77-1.78A1.78,1.78,0,0,1,140,165.54Zm0-2a.23.23,0,0,0-.23.22c0,.25.46.25.46,0A.22.22,0,0,0,140,163.54Z"/><circle class="cls-4" cx="140.03" cy="151.65" r="0.77"/><path class="cls-5" d="M140,153.42a1.77,1.77,0,1,1,1.77-1.77A1.77,1.77,0,0,1,140,153.42Zm0-2a.23.23,0,0,0-.23.23c0,.25.46.25.46,0A.23.23,0,0,0,140,151.42Z"/><circle class="cls-4" cx="140.03" cy="188.6" r="0.77"/><path class="cls-5" d="M140,190.37a1.78,1.78,0,1,1,1.77-1.77A1.77,1.77,0,0,1,140,190.37Zm0-2a.23.23,0,0,0-.23.23c0,.25.46.25.46,0A.23.23,0,0,0,140,188.37Z"/><circle class="cls-4" cx="140.03" cy="201.05" r="0.77"/><path class="cls-5" d="M140,202.82a1.77,1.77,0,1,1,1.77-1.77A1.77,1.77,0,0,1,140,202.82Zm0-2a.24.24,0,0,0-.23.23c0,.25.46.25.46,0A.23.23,0,0,0,140,200.82Z"/><circle class="cls-4" cx="140.03" cy="213.51" r="0.77"/><path class="cls-5" d="M140,215.28a1.78,1.78,0,1,1,1.77-1.77A1.77,1.77,0,0,1,140,215.28Zm0-2a.23.23,0,0,0-.23.23c0,.25.46.25.46,0A.23.23,0,0,0,140,213.28Z"/><rect class="cls-4" x="87.62" y="166.55" width="19.12" height="33.25" rx="5.64"/><path class="cls-12" d="M101.09,166.55a5.63,5.63,0,0,1,5.64,5.64v22a5.64,5.64,0,0,1-5.64,5.64H93.26a5.64,5.64,0,0,1-5.64-5.64v-22a5.63,5.63,0,0,1,5.64-5.64h7.83m0-2H93.26a7.65,7.65,0,0,0-7.64,7.64v22a7.65,7.65,0,0,0,7.64,7.64h7.83a7.65,7.65,0,0,0,7.64-7.64v-22a7.65,7.65,0,0,0-7.64-7.64Z"/><rect class="cls-4" x="91.24" y="171.73" width="11.74" height="5.79" rx="0.77"/><path class="cls-12" d="M102.2,171.73a.77.77,0,0,1,.77.77v4.24a.77.77,0,0,1-.77.78H92a.78.78,0,0,1-.77-.78V172.5a.78.78,0,0,1,.77-.77H102.2m0-2H92a2.77,2.77,0,0,0-2.77,2.77v4.24A2.78,2.78,0,0,0,92,179.52H102.2a2.78,2.78,0,0,0,2.77-2.78V172.5a2.77,2.77,0,0,0-2.77-2.77Z"/><rect class="cls-5" x="100.03" y="182.3" width="2.73" height="2.73" rx="0.86"/><rect class="cls-5" x="95.87" y="182.3" width="2.73" height="2.73" rx="0.86"/><rect class="cls-5" x="91.71" y="182.3" width="2.73" height="2.73" rx="0.86" transform="translate(186.14 367.34) rotate(-180)"/><rect class="cls-5" x="99.96" y="186.94" width="2.73" height="2.73" rx="0.86" transform="translate(202.64 376.61) rotate(180)"/><rect class="cls-5" x="95.8" y="186.94" width="2.73" height="2.73" rx="0.86" transform="matrix(-1, 0, 0, -1, 194.32, 376.61)"/><rect class="cls-5" x="91.64" y="186.94" width="2.73" height="2.73" rx="0.86" transform="matrix(-1, 0, 0, -1, 186, 376.61)"/><rect class="cls-5" x="99.92" y="191.65" width="2.76" height="2.76" rx="0.87"/><rect class="cls-5" x="95.71" y="191.65" width="2.76" height="2.76" rx="0.87" transform="translate(194.18 386.06) rotate(180)"/><rect class="cls-5" x="91.56" y="191.57" width="2.73" height="2.73" rx="0.86"/><path class="cls-5" d="M94,176.4H92.79a.36.36,0,0,1,0-.71H94a.36.36,0,1,1,0,.71Z"/><path class="cls-5" d="M94,176.65H92.79a.61.61,0,0,1,0-1.21H94a.61.61,0,1,1,0,1.21Zm-1.18-.71a.1.1,0,0,0-.1.11.1.1,0,0,0,.1.1H94a.11.11,0,0,0,.11-.1.11.11,0,0,0-.11-.11Z"/><path class="cls-5" d="M96.5,176.4H95.31a.36.36,0,0,1,0-.71H96.5a.36.36,0,0,1,0,.71Z"/><path class="cls-5" d="M96.5,176.65H95.32a.61.61,0,1,1,0-1.21H96.5a.61.61,0,0,1,0,1.21Zm-1.18-.71a.11.11,0,0,0-.11.11.11.11,0,0,0,.11.1H96.5a.11.11,0,0,0,.1-.1.11.11,0,0,0-.1-.11Z"/><path class="cls-5" d="M99,176.4H97.82a.36.36,0,0,1,0-.71H99a.36.36,0,1,1,0,.71Z"/><path class="cls-5" d="M99,176.65H97.82a.61.61,0,0,1,0-1.21H99a.61.61,0,1,1,0,1.21Zm-1.18-.71a.11.11,0,0,0-.1.11.11.11,0,0,0,.1.1H99a.11.11,0,0,0,.11-.1.11.11,0,0,0-.11-.11Z"/><path class="cls-5" d="M101.53,176.4h-1.18a.36.36,0,1,1,0-.71h1.18a.36.36,0,0,1,0,.71Z"/><path class="cls-5" d="M101.53,176.65h-1.18a.61.61,0,1,1,0-1.21h1.18a.61.61,0,0,1,0,1.21Zm-1.18-.71a.11.11,0,0,0-.11.11.11.11,0,0,0,.11.1h1.18a.1.1,0,0,0,.1-.1.1.1,0,0,0-.1-.11Z"/><rect class="cls-12" x="77.56" y="173.22" width="1.97" height="21.88" rx="0.58"/><rect class="cls-12" x="70.32" y="173.22" width="1.97" height="21.88" rx="0.58"/><rect class="cls-12" x="63.08" y="173.22" width="1.97" height="21.88" rx="0.58"/><rect class="cls-5" x="61.35" y="178.78" width="5.42" height="1.44" rx="0.45" transform="translate(128.12 358.99) rotate(-180)"/><path class="cls-5" d="M66.32,180.59H61.8a.83.83,0,0,1-.82-.83v-.53a.83.83,0,0,1,.82-.83h4.52a.83.83,0,0,1,.83.83v.53A.83.83,0,0,1,66.32,180.59Zm-4.52-1.44a.08.08,0,0,0-.07.08v.53a.08.08,0,0,0,.07.08h4.52a.09.09,0,0,0,.08-.08v-.53a.09.09,0,0,0-.08-.08Z"/><rect class="cls-5" x="68.59" y="186.4" width="5.42" height="1.44" rx="0.45" transform="translate(142.61 374.23) rotate(180)"/><path class="cls-5" d="M73.56,188.21H69.05a.83.83,0,0,1-.83-.83v-.53a.83.83,0,0,1,.83-.83h4.51a.83.83,0,0,1,.83.83v.53A.83.83,0,0,1,73.56,188.21Zm-4.51-1.44a.08.08,0,0,0-.08.08v.53a.08.08,0,0,0,.08.08h4.51a.08.08,0,0,0,.08-.08v-.53a.08.08,0,0,0-.08-.08Z"/><rect class="cls-5" x="75.84" y="179.5" width="5.42" height="1.44" rx="0.45" transform="translate(157.1 360.43) rotate(180)"/><path class="cls-5" d="M80.81,181.31H76.29a.83.83,0,0,1-.83-.83V180a.83.83,0,0,1,.83-.83h4.52a.83.83,0,0,1,.82.83v.53A.83.83,0,0,1,80.81,181.31Zm-4.52-1.44a.09.09,0,0,0-.08.08v.53a.09.09,0,0,0,.08.08h4.52a.08.08,0,0,0,.07-.08V180a.08.08,0,0,0-.07-.08Z"/><circle class="cls-4" cx="38.05" cy="182.93" r="3.41"/><path class="cls-12" d="M38.05,179.52a3.42,3.42,0,1,1-3.42,3.41,3.41,3.41,0,0,1,3.42-3.41m0-2a5.42,5.42,0,1,0,5.41,5.41,5.42,5.42,0,0,0-5.41-5.41Z"/><rect class="cls-4" x="37.64" y="177.19" width="0.9" height="3.19" rx="0.28" transform="translate(76.17 357.56) rotate(180)"/><path class="cls-12" d="M37.92,176.69h.33a.78.78,0,0,1,.78.78v2.62a.78.78,0,0,1-.78.78h-.33a.79.79,0,0,1-.79-.79v-2.62a.79.79,0,0,1,.79-.79Z"/><circle class="cls-4" cx="51.32" cy="182.86" r="3.41"/><path class="cls-12" d="M51.32,179.44a3.42,3.42,0,0,1,2.41,5.83,3.42,3.42,0,1,1-4.83-4.83,3.44,3.44,0,0,1,2.42-1m0-2A5.41,5.41,0,1,0,55.15,179a5.39,5.39,0,0,0-3.83-1.59Z"/><rect class="cls-4" x="54.12" y="178.06" width="0.9" height="3.19" rx="0.28" transform="translate(-33.87 345.28) rotate(-135)"/><path class="cls-12" d="M53.77,181.48a.75.75,0,0,1-.56-.23L53,181h0a.8.8,0,0,1,0-1.11l1.86-1.86a.79.79,0,0,1,.55-.23,1.14,1.14,0,0,1,.56.23l.23.24a.79.79,0,0,1,0,1.11l-1.86,1.85A.74.74,0,0,1,53.77,181.48Zm1.77-2.72Z"/><rect class="cls-4" x="38.92" y="123.23" width="45.24" height="31.58" rx="4.43" transform="translate(123.09 278.05) rotate(-180)"/><path class="cls-5" d="M79.74,155.81H43.35a5.44,5.44,0,0,1-5.43-5.43V127.66a5.44,5.44,0,0,1,5.43-5.43H79.74a5.44,5.44,0,0,1,5.43,5.43v22.72A5.44,5.44,0,0,1,79.74,155.81ZM43.35,124.23a3.44,3.44,0,0,0-3.43,3.43v22.72a3.44,3.44,0,0,0,3.43,3.43H79.74a3.44,3.44,0,0,0,3.43-3.43V127.66a3.44,3.44,0,0,0-3.43-3.43Z"/><line class="cls-4" x1="60.59" y1="146.06" x2="51.94" y2="137.42"/><path class="cls-12" d="M60.59,147.06a1,1,0,0,1-.71-.29l-8.65-8.64a1,1,0,0,1,1.42-1.42l8.64,8.64a1,1,0,0,1-.7,1.71Z"/><line class="cls-4" x1="69.13" y1="145.23" x2="63.5" y2="139.61"/><path class="cls-12" d="M69.13,146.23a1,1,0,0,1-.71-.29l-5.63-5.63a1,1,0,0,1,0-1.41,1,1,0,0,1,1.42,0l5.62,5.62a1,1,0,0,1-.7,1.71Z"/><path class="cls-12" d="M199.2,170.14h-7a1,1,0,0,1,0-2h7a1,1,0,0,1,0,2Z"/><path class="cls-12" d="M199.2,172.88h-7a.5.5,0,0,1-.5-.5.5.5,0,0,1,.5-.5h7a.51.51,0,0,1,.5.5A.5.5,0,0,1,199.2,172.88Z"/><path class="cls-12" d="M199.2,209.69h-7a1,1,0,0,1,0-2h7a1,1,0,0,1,0,2Z"/><path class="cls-12" d="M199.2,206h-7a.5.5,0,0,1-.5-.5.5.5,0,0,1,.5-.5h7a.5.5,0,0,1,.5.5A.51.51,0,0,1,199.2,206Z"/><path class="cls-12" d="M157.05,170.14h-7a1,1,0,1,1,0-2h7a1,1,0,0,1,0,2Z"/><path class="cls-12" d="M157.05,172.88h-7a.5.5,0,0,1-.5-.5.5.5,0,0,1,.5-.5h7a.51.51,0,0,1,.5.5A.5.5,0,0,1,157.05,172.88Z"/><path class="cls-12" d="M157.05,209.69h-7a1,1,0,0,1,0-2h7a1,1,0,0,1,0,2Z"/><path class="cls-12" d="M157.05,206h-7a.5.5,0,0,1-.5-.5.5.5,0,0,1,.5-.5h7a.5.5,0,0,1,.5.5A.51.51,0,0,1,157.05,206Z"/><path class="cls-4" d="M117.56,143.42a1,1,0,0,1-1-1V114.8a7.55,7.55,0,0,0-7.54-7.55H92.93a1,1,0,0,1,0-2H109a9.55,9.55,0,0,1,9.54,9.55v27.62A1,1,0,0,1,117.56,143.42Z"/><path class="cls-4" d="M24.34,133.42a1,1,0,0,1-1-1V114.8a9.56,9.56,0,0,1,9.55-9.55H42a1,1,0,0,1,0,2H32.89a7.56,7.56,0,0,0-7.55,7.55v17.62A1,1,0,0,1,24.34,133.42Z"/><path class="cls-4" d="M88.55,216.89H34.44a1,1,0,0,1,0-2H88.55a1,1,0,1,1,0,2Z"/><path class="cls-4" d="M112.55,216.89h-11.1a1,1,0,1,1,0-2h11.1a1,1,0,1,1,0,2Z"/><path class="cls-4" d="M61.82,161H50.71a1,1,0,0,1,0-2H61.82a1,1,0,0,1,0,2Z"/><line class="cls-4" x1="172.63" y1="195.63" x2="174.52" y2="196.07"/><path class="cls-12" d="M174.52,196.57h-.12l-1.88-.44a.51.51,0,0,1-.38-.6.5.5,0,0,1,.6-.38l1.89.45a.5.5,0,0,1-.11,1Z"/></g></svg>